<svg width="146" height="218" viewBox="0 0 146 218" fill="none" xmlns="http://www.w3.org/2000/svg">
<circle cx="39" cy="5" r="5" fill="#0E1323"/>
<circle cx="39" cy="31" r="5" fill="#0E1323"/>
<circle cx="39" cy="57" r="5" fill="#0E1323"/>
<circle cx="39" cy="109" r="5" fill="#0E1323"/>
<circle cx="39" cy="83" r="5" fill="#0E1323"/>
<circle cx="39" cy="161" r="5" fill="#0E1323"/>
<circle cx="39" cy="135" r="5" fill="#0E1323"/>
<circle cx="39" cy="187" r="5" fill="#0E1323"/>
<circle cx="39" cy="213" r="5" fill="#0E1323"/>
<circle cx="5" cy="5" r="5" fill="#0E1323"/>
<circle cx="5" cy="31" r="5" fill="#0E1323"/>
<circle cx="5" cy="57" r="5" fill="#0E1323"/>
<circle cx="5" cy="109" r="5" fill="#0E1323"/>
<circle cx="5" cy="83" r="5" fill="#0E1323"/>
<circle cx="5" cy="161" r="5" fill="#0E1323"/>
<circle cx="5" cy="135" r="5" fill="#0E1323"/>
<circle cx="5" cy="187" r="5" fill="#0E1323"/>
<circle cx="5" cy="213" r="5" fill="#0E1323"/>
<circle cx="73" cy="5" r="5" fill="#0E1323"/>
<circle cx="73" cy="31" r="5" fill="#0E1323"/>
<circle cx="73" cy="57" r="5" fill="#0E1323"/>
<circle cx="73" cy="109" r="5" fill="#0E1323"/>
<circle cx="73" cy="83" r="5" fill="#0E1323"/>
<circle cx="73" cy="161" r="5" fill="#0E1323"/>
<circle cx="73" cy="135" r="5" fill="#0E1323"/>
<circle cx="73" cy="187" r="5" fill="#0E1323"/>
<circle cx="73" cy="213" r="5" fill="#0E1323"/>
<circle cx="107" cy="5" r="5" fill="#0E1323"/>
<circle cx="107" cy="31" r="5" fill="#0E1323"/>
<circle cx="107" cy="57" r="5" fill="#0E1323"/>
<circle cx="107" cy="109" r="5" fill="#0E1323"/>
<circle cx="107" cy="83" r="5" fill="#0E1323"/>
<circle cx="107" cy="161" r="5" fill="#0E1323"/>
<circle cx="107" cy="135" r="5" fill="#0E1323"/>
<circle cx="107" cy="187" r="5" fill="#0E1323"/>
<circle cx="107" cy="213" r="5" fill="#0E1323"/>
<circle cx="141" cy="5" r="5" fill="#0E1323"/>
<circle cx="141" cy="31" r="5" fill="#0E1323"/>
<circle cx="141" cy="57" r="5" fill="#0E1323"/>
<circle cx="141" cy="109" r="5" fill="#0E1323"/>
<circle cx="141" cy="83" r="5" fill="#0E1323"/>
<circle cx="141" cy="161" r="5" fill="#0E1323"/>
<circle cx="141" cy="135" r="5" fill="#0E1323"/>
<circle cx="141" cy="187" r="5" fill="#0E1323"/>
<circle cx="141" cy="213" r="5" fill="#0E1323"/>
</svg>
