<?xml version="1.0" standalone="no"?>
<!DOCTYPE svg PUBLIC "-//W3C//DTD SVG 1.1//EN" "http://www.w3.org/Graphics/SVG/1.1/DTD/svg11.dtd" >
<svg xmlns="http://www.w3.org/2000/svg" xmlns:xlink="http://www.w3.org/1999/xlink" version="1.1">
<metadata>
Created by FontForge 20201107 at Mon Mar 17 08:30:48 2025
 By 
Copyright (c) 2016 by Grilli Type. All rights reserved.
</metadata>
<defs>
<font id="GTAmericaTrial-ULt" horiz-adv-x="497" >
  <font-face 
    font-family="GT America Trial U Lt"
    font-weight="250"
    font-stretch="normal"
    units-per-em="2048"
    panose-1="0 0 0 0 0 0 0 0 0 0"
    ascent="1608"
    descent="-440"
    x-height="1024"
    cap-height="1454"
    bbox="-66 -424 2623 1522"
    underline-thickness="102"
    underline-position="-255"
    unicode-range="U+0020-1EF3"
  />
<missing-glyph horiz-adv-x="1126" 
d="M864 700v324h-61v-324h61zM102 0v1434h922v-1434h-922zM145 860q0 -72 37.5 -119t100.5 -47q65 0 88 41l8 -35h47v179h-137v-58h82v-4q0 -25 -18.5 -46t-55.5 -21q-41 0 -62.5 28t-21.5 80q0 51 21.5 82t60.5 31q49 0 63 -47l62 24q-29 80 -123 80q-72 0 -112 -47
t-40 -121zM182 569h90v-260h62v260h90v60h-242v-60zM406 309h61v101q0 71 57 71q13 0 21 -2v58q-6 2 -21 2q-42 0 -61 -43v36h-57v-223zM463 700h59v103q0 31 15 51t47 20q14 0 20 -2v56q-12 4 -22 4q-38 0 -64 -43v37h-55v-226zM557 571h66v62h-66v-62zM559 309h62v223h-62
v-223zM616 965h66v59h-66v-59zM618 700h62v226h-62v-226zM637 373q0 -32 22 -51t56 -19q51 0 71 39q0 -23 2 -33h60q-6 30 -6 43v82q0 55 -20.5 80t-73.5 25q-50 0 -76.5 -20t-28.5 -56h59q3 31 43 31q22 0 29.5 -11t7.5 -34q-62 -5 -102 -17q-43 -17 -43 -59zM698 375
q0 27 47 33l37 4v-6q0 -27 -13.5 -42.5t-35.5 -15.5q-16 0 -25.5 8t-9.5 19zM711 700h59v324h-59v-324zM874 309h60v324h-60v-324zM897 965h66v59h-66v-59zM899 700h62v226h-62v-226z" />
    <glyph glyph-name=".notdef" horiz-adv-x="1126" 
d="M864 700v324h-61v-324h61zM102 0v1434h922v-1434h-922zM145 860q0 -72 37.5 -119t100.5 -47q65 0 88 41l8 -35h47v179h-137v-58h82v-4q0 -25 -18.5 -46t-55.5 -21q-41 0 -62.5 28t-21.5 80q0 51 21.5 82t60.5 31q49 0 63 -47l62 24q-29 80 -123 80q-72 0 -112 -47
t-40 -121zM182 569h90v-260h62v260h90v60h-242v-60zM406 309h61v101q0 71 57 71q13 0 21 -2v58q-6 2 -21 2q-42 0 -61 -43v36h-57v-223zM463 700h59v103q0 31 15 51t47 20q14 0 20 -2v56q-12 4 -22 4q-38 0 -64 -43v37h-55v-226zM557 571h66v62h-66v-62zM559 309h62v223h-62
v-223zM616 965h66v59h-66v-59zM618 700h62v226h-62v-226zM637 373q0 -32 22 -51t56 -19q51 0 71 39q0 -23 2 -33h60q-6 30 -6 43v82q0 55 -20.5 80t-73.5 25q-50 0 -76.5 -20t-28.5 -56h59q3 31 43 31q22 0 29.5 -11t7.5 -34q-62 -5 -102 -17q-43 -17 -43 -59zM698 375
q0 27 47 33l37 4v-6q0 -27 -13.5 -42.5t-35.5 -15.5q-16 0 -25.5 8t-9.5 19zM711 700h59v324h-59v-324zM874 309h60v324h-60v-324zM897 965h66v59h-66v-59zM899 700h62v226h-62v-226z" />
    <glyph glyph-name=".null" horiz-adv-x="0" 
 />
    <glyph glyph-name=".null" horiz-adv-x="0" 
 />
    <glyph glyph-name="nonmarkingreturn" horiz-adv-x="682" 
 />
    <glyph glyph-name="space" unicode=" " horiz-adv-x="567" 
 />
    <glyph glyph-name="space" unicode="&#xa0;" horiz-adv-x="567" 
 />
    <glyph glyph-name="comma" unicode="," horiz-adv-x="395" 
d="M119 -197q49 37 63.5 80t14.5 115v2h-31v197h74v-189q0 -92 -22 -145.5t-77 -89.5z" />
    <glyph glyph-name="hyphen" unicode="-" horiz-adv-x="831" 
d="M119 600h592v-57h-592v57z" />
    <glyph glyph-name="period" unicode="." horiz-adv-x="385" 
d="M229 197v-197h-73v197h73z" />
    <glyph glyph-name="zero" unicode="0" horiz-adv-x="1286" 
d="M645 -31q-250 0 -383 197.5t-133 550.5q0 345 133.5 541t380.5 196q246 0 380 -199t134 -548q0 -346 -133 -542t-379 -196zM190 717q0 -327 118 -509.5t337 -182.5q215 0 332 181t117 501q0 324 -117.5 508t-333.5 184t-334.5 -181.5t-118.5 -500.5z" />
    <glyph glyph-name="one" unicode="1" horiz-adv-x="772" 
d="M422 1272q-42 -79 -124 -126.5t-171 -47.5h-45v57h27q116 0 207.5 73.5t115.5 194.5h53v-1423h-63v1272z" />
    <glyph glyph-name="two" unicode="2" horiz-adv-x="1114" 
d="M98 57q329 231 586 506q225 237 225 479q0 167 -92.5 261t-255.5 94q-177 0 -276 -89t-99 -247q0 -60 17 -129l-64 2q-14 49 -14 127q0 183 116.5 288t321.5 105q193 0 302.5 -108.5t109.5 -301.5q0 -131 -59 -256t-183 -258q-108 -118 -265.5 -252t-289.5 -221h834v-57
h-914v57z" />
    <glyph glyph-name="three" unicode="3" horiz-adv-x="1157" 
d="M575 -31q-212 0 -337.5 117.5t-131.5 314.5l62 5q6 -176 115.5 -278.5t294.5 -102.5q192 0 294.5 92t102.5 268q0 151 -101.5 240.5t-273.5 89.5h-119v55h99q159 0 252.5 83t93.5 220q0 153 -94.5 239.5t-262.5 86.5q-181 0 -283 -99.5t-102 -279.5l-59 6
q0 201 117 314.5t329 113.5q195 0 306.5 -101.5t111.5 -275.5q0 -130 -80.5 -222t-208.5 -107q152 -12 245 -110t93 -251q0 -200 -122.5 -309t-340.5 -109z" />
    <glyph glyph-name="four" unicode="4" horiz-adv-x="1163" 
d="M1057 403h-242v-403h-61v403h-711v50l709 970h63v-966h242v-54zM106 457h648v778q0 74 4 115h-2q-16 -35 -56 -90l-536 -730q-16 -24 -58 -73z" />
    <glyph glyph-name="five" unicode="5" horiz-adv-x="1153" 
d="M571 -31q-181 0 -302.5 98.5t-149.5 266.5l65 2q26 -146 129 -228.5t260 -82.5q187 0 296.5 121.5t109.5 328.5q0 199 -102.5 311.5t-284.5 112.5q-142 0 -250 -86t-137 -221l-64 8l80 823h756v-55h-707l-65 -670q114 256 403 256q201 0 317.5 -128.5t116.5 -348.5
q0 -229 -129 -368.5t-342 -139.5z" />
    <glyph glyph-name="six" unicode="6" horiz-adv-x="1181" 
d="M627 -31q-251 0 -379.5 184t-128.5 543q0 362 132 560t372 198q180 0 289 -93.5t141 -273.5l-64 -8q-62 320 -368 320q-211 0 -326.5 -184.5t-114.5 -520.5v-16q0 -37 4 -103q35 172 155.5 273.5t293.5 101.5q204 0 327 -135t123 -358q0 -217 -126.5 -352.5
t-329.5 -135.5zM197 465q37 -214 147.5 -327t284.5 -113q177 0 284 118.5t107 313.5q0 201 -107.5 319.5t-287.5 118.5q-173 0 -288 -116t-140 -314z" />
    <glyph glyph-name="seven" unicode="7" horiz-adv-x="1062" 
d="M375 27q0 738 557 1339h-838v57h905v-57q-559 -583 -559 -1321v-45h-65v27z" />
    <glyph glyph-name="eight" unicode="8" horiz-adv-x="1167" 
d="M586 -31q-229 0 -353 100.5t-124 286.5q0 152 95 251.5t277 142.5q-176 47 -253.5 131.5t-77.5 226.5q0 155 118.5 250.5t311.5 95.5q197 0 314.5 -94t117.5 -252q0 -145 -84 -229t-266 -121l20 -6q200 -52 288.5 -147t88.5 -255q0 -180 -125 -280.5t-348 -100.5z
M172 362q0 -161 108.5 -250t305.5 -89t303 85.5t106 243.5q0 140 -79 223.5t-257 129.5l-98 24q-389 -91 -389 -367zM213 1106q0 -121 71 -193t234 -118l74 -19q203 52 279.5 123t76.5 205q0 137 -99 218t-269 81q-167 0 -267 -81t-100 -216z" />
    <glyph glyph-name="nine" unicode="9" horiz-adv-x="1183" 
d="M565 -31q-184 0 -293.5 94.5t-140.5 276.5l64 8q57 -323 372 -323q216 0 325 187t109 513v20q0 47 -4 125q-27 -112 -95 -190t-157 -114t-192 -36q-202 0 -328.5 126t-126.5 339q0 127 53 230.5t159 166t247 62.5q506 0 506 -729q0 -168 -30 -304.5t-89.5 -238
t-156 -157.5t-222.5 -56zM162 995q0 -188 109 -298.5t286 -110.5q166 0 284 105.5t142 289.5q-67 418 -428 418q-181 0 -287 -113.5t-106 -290.5z" />
    <glyph glyph-name="A" unicode="A" horiz-adv-x="1314" 
d="M66 0l559 1454h65l559 -1454h-67l-164 436h-719l-164 -436h-69zM322 496h673l-254 669q-47 123 -82 226h-4q-13 -42 -80 -226z" />
    <glyph glyph-name="B" unicode="B" horiz-adv-x="1347" 
d="M240 0v1454h462q105 0 186.5 -21.5t131.5 -56.5t82 -83.5t44.5 -97.5t12.5 -103q0 -64 -15 -117.5t-48 -100.5t-91.5 -78.5t-138.5 -43.5q163 -17 244.5 -114.5t81.5 -246.5q0 -61 -12.5 -115t-45.5 -106t-84 -88.5t-133 -59t-188 -22.5h-489zM305 57h414q407 0 407 334
q0 71 -19.5 127.5t-63 103.5t-122 73t-188.5 26h-428v-664zM305 778h418q91 0 160 20t108 50.5t63.5 73.5t32 81t7.5 82q0 49 -10 91t-37 84t-69.5 71.5t-113 47.5t-162.5 18h-397v-619z" />
    <glyph glyph-name="C" unicode="C" horiz-adv-x="1458" 
d="M758 -35q-129 0 -235 39.5t-178.5 108.5t-122 166t-72.5 210t-23 242q0 227 72.5 396.5t217 265.5t345.5 96q164 0 286.5 -67.5t189.5 -182t85 -266.5l-68 -4q-27 214 -155.5 338.5t-339.5 124.5q-175 0 -303.5 -87.5t-195 -245t-66.5 -366.5q0 -153 35.5 -281t104 -224
t178 -149.5t249.5 -53.5q200 0 329.5 118t168.5 326l65 -6q-22 -107 -63.5 -194t-108.5 -157t-167.5 -108.5t-227.5 -38.5z" />
    <glyph glyph-name="D" unicode="D" horiz-adv-x="1472" 
d="M240 0v1454h419q315 0 502 -197.5t187 -527.5q0 -326 -192.5 -527.5t-502.5 -201.5h-413zM305 57h352q185 0 327 87t218 239t76 346q0 303 -166.5 485.5t-449.5 182.5h-357v-1340z" />
    <glyph glyph-name="E" unicode="E" horiz-adv-x="1245" 
d="M305 57h799v-57h-864v1454h850v-57h-785v-623h750v-57h-750v-660z" />
    <glyph glyph-name="F" unicode="F" horiz-adv-x="1189" 
d="M305 0h-65v1454h850v-57h-785v-623h750v-57h-750v-717z" />
    <glyph glyph-name="G" unicode="G" horiz-adv-x="1492" 
d="M733 -35q-191 0 -330 102t-207.5 273.5t-68.5 390.5q0 165 41.5 303.5t119 239.5t196.5 158t266 57q114 0 207 -31.5t150.5 -78t99 -109.5t60.5 -117t27 -109l-65 -6q-10 54 -27.5 103.5t-55 104.5t-88.5 94.5t-132.5 65.5t-182.5 26q-172 0 -296.5 -90t-188 -248.5
t-63.5 -368.5q0 -146 34 -271t100 -222t172.5 -152t243.5 -55q88 0 162.5 21.5t126 56.5t92.5 83t65.5 97t40.5 101.5t22 94.5t6 78v119h-521v59h584v-735h-53l-8 342q-55 -175 -194 -276t-335 -101z" />
    <glyph glyph-name="H" unicode="H" horiz-adv-x="1540" 
d="M1303 1454v-1454h-68v717h-930v-717h-65v1454h65v-680h930v680h68z" />
    <glyph glyph-name="I" unicode="I" horiz-adv-x="544" 
d="M305 0h-65v1454h65v-1454z" />
    <glyph glyph-name="J" unicode="J" horiz-adv-x="765" 
d="M547 348q0 -85 -19 -150.5t-50 -107t-76 -68t-93.5 -37t-105.5 -10.5q-99 0 -162 23v63q80 -24 160 -24q60 0 106.5 14t87.5 48t63.5 100.5t22.5 162.5v1092h66v-1106z" />
    <glyph glyph-name="K" unicode="K" horiz-adv-x="1339" 
d="M240 0v1454h65v-883l823 883h86l-548 -582l589 -872h-77l-557 825l-316 -336v-489h-65z" />
    <glyph glyph-name="L" unicode="L" horiz-adv-x="1099" 
d="M240 0v1454h65v-1397h737v-57h-802z" />
    <glyph glyph-name="M" unicode="M" horiz-adv-x="1769" 
d="M240 0v1454h88l524 -1282q27 -70 31 -90h4q1 7 33 90l522 1282h88v-1454h-64v1257q0 69 7 115h-5q-16 -60 -38 -115l-515 -1257h-61l-514 1257q-25 62 -39 115h-2q4 -39 4 -115v-1257h-63z" />
    <glyph glyph-name="N" unicode="N" horiz-adv-x="1521" 
d="M240 0v1454h79l826 -1243q23 -34 76 -121h2q-2 63 -2 143v1221h63v-1454h-78l-829 1251q-61 96 -76 123h-2q4 -94 4 -143v-1231h-63z" />
    <glyph glyph-name="O" unicode="O" horiz-adv-x="1519" 
d="M762 -35q-190 0 -334.5 95t-222.5 267.5t-78 399.5q0 348 173 555t462 207q288 0 460.5 -207t172.5 -555q0 -347 -172.5 -554.5t-460.5 -207.5zM195 727q0 -205 68.5 -364.5t198 -249.5t300.5 -90q258 0 410.5 193.5t152.5 510.5q0 209 -68 368.5t-196 248t-299 88.5
q-259 0 -413 -194t-154 -511z" />
    <glyph glyph-name="P" unicode="P" horiz-adv-x="1241" 
d="M305 0h-65v1454h477q207 0 326.5 -102t119.5 -277q0 -192 -119.5 -302.5t-326.5 -110.5h-412v-662zM305 721h420q169 0 269 95.5t100 258.5q0 149 -100 235.5t-269 86.5h-420v-676z" />
    <glyph glyph-name="Q" unicode="Q" horiz-adv-x="1519" 
d="M762 -35q-190 0 -334.5 95t-222.5 267.5t-78 399.5q0 348 173 555t462 207q288 0 460.5 -207t172.5 -555q0 -282 -118 -476t-323 -257q62 -101 131 -145t172 -44q45 0 121 13v-62q-68 -14 -129 -14q-239 0 -350 238q-65 -15 -137 -15zM195 727q0 -205 68.5 -364.5
t198 -249.5t300.5 -90q258 0 410.5 193.5t152.5 510.5q0 209 -68 368.5t-196 248t-299 88.5q-259 0 -413 -194t-154 -511z" />
    <glyph glyph-name="R" unicode="R" horiz-adv-x="1343" 
d="M240 0v1454h477q102 0 181 -22.5t128.5 -59t81 -88t43.5 -105.5t12 -116q0 -69 -18 -129.5t-56.5 -115.5t-109 -93.5t-166.5 -52.5l395 -672h-78l-389 664h-436v-664h-65zM305 723h414q97 0 170.5 26.5t118 73.5t66.5 107.5t22 132.5q0 73 -20 132t-62.5 105t-117.5 71.5
t-177 25.5h-414v-674z" />
    <glyph glyph-name="S" unicode="S" horiz-adv-x="1310" 
d="M682 -35q-256 0 -398.5 132t-150.5 349l66 5q5 -190 130 -309t359 -119q198 0 310 90.5t112 244.5q0 85 -24 145.5t-73 98t-107.5 58.5t-143.5 36l-223 41q-163 31 -252.5 122t-89.5 235q-3 180 121 287.5t339 107.5q105 0 191 -24.5t153.5 -76t106.5 -138.5t43 -203
l-66 -7q-17 394 -430 394q-185 0 -289.5 -91.5t-101.5 -246.5q0 -118 76.5 -197t232.5 -106l222 -41q69 -12 123.5 -30t104.5 -48.5t83 -71t52.5 -100t19.5 -133.5q0 -196 -137 -300t-359 -104z" />
    <glyph glyph-name="T" unicode="T" horiz-adv-x="1153" 
d="M39 1397v57h1075v-57h-506v-1397h-63v1397h-506z" />
    <glyph glyph-name="U" unicode="U" horiz-adv-x="1452" 
d="M219 1454h66v-962q0 -218 114.5 -342.5t325.5 -124.5t326.5 124.5t115.5 342.5v962h68v-967q0 -241 -133.5 -381.5t-376.5 -140.5q-242 0 -374 140t-132 382v967z" />
    <glyph glyph-name="V" unicode="V" horiz-adv-x="1247" 
d="M588 0l-549 1454h72l438 -1165q59 -159 74 -217h4q24 90 73 217l437 1165h71l-546 -1454h-74z" />
    <glyph glyph-name="W" unicode="W" horiz-adv-x="1865" 
d="M463 0l-404 1454h72l356 -1317q13 -50 13 -61h4q0 14 12 61l381 1317h72l381 -1317q3 -13 6.5 -28.5t5 -23.5t2.5 -9h2q0 14 12 61l359 1317h69l-401 -1454h-82l-377 1309q-10 41 -12 63h-2q-4 -37 -12 -63l-377 -1309h-80z" />
    <glyph glyph-name="X" unicode="X" horiz-adv-x="1222" 
d="M39 0l532 758l-489 696h78l391 -553q44 -63 61 -100h4q14 31 64 98l387 555h76l-490 -702l531 -752h-80l-408 580q-52 71 -84 129h-4q-31 -55 -84 -129l-407 -580h-78z" />
    <glyph glyph-name="Y" unicode="Y" horiz-adv-x="1173" 
d="M553 0v596l-524 858h73l408 -663q51 -85 76 -134h4q23 49 74 134l407 663h74l-524 -858v-596h-68z" />
    <glyph glyph-name="Z" unicode="Z" horiz-adv-x="1157" 
d="M80 61l907 1336h-872v57h946v-61l-909 -1336h938v-57h-1010v61z" />
    <glyph glyph-name="a" unicode="a" horiz-adv-x="1093" 
d="M455 -25q-147 0 -237.5 79t-90.5 204q0 122 78 191q91 85 319 112l318 39v16q0 203 -70.5 291t-234.5 88q-143 0 -227 -73.5t-91 -212.5h-63q7 161 109 250.5t272 89.5q193 0 278.5 -99t85.5 -317v-244q0 -227 27 -389h-64q-15 93 -18 256q-45 -136 -144 -208.5
t-247 -72.5zM190 260q0 -105 76.5 -168t202.5 -63q168 0 271.5 118t103.5 299v105l-320 -41q-174 -22 -254 -81t-80 -169z" />
    <glyph glyph-name="b" unicode="b" horiz-adv-x="1212" 
d="M659 -25q-135 0 -239.5 84.5t-140.5 219.5l-11 -279h-49v1485h62v-750q35 145 139 229.5t250 84.5q195 0 309.5 -145.5t114.5 -391.5q0 -244 -118.5 -390.5t-316.5 -146.5zM279 492q0 -201 105 -331t269 -130q172 0 274.5 129.5t102.5 351.5q0 224 -98 352.5t-270 128.5
q-167 0 -275 -131t-108 -334v-36z" />
    <glyph glyph-name="c" unicode="c" horiz-adv-x="1077" 
d="M559 -25q-207 0 -323.5 142t-116.5 395t117 395t323 142q167 0 273.5 -97.5t123.5 -267.5l-61 -2q-20 151 -108 232t-232 81q-177 0 -276 -127.5t-99 -353.5q0 -227 101 -355t280 -128q140 0 229 81.5t109 227.5l59 -4q-26 -172 -130.5 -266.5t-268.5 -94.5z" />
    <glyph glyph-name="d" unicode="d" horiz-adv-x="1212" 
d="M553 -25q-202 0 -318 148t-116 389q0 238 119.5 387.5t320.5 149.5q138 0 237 -77t136 -227v740h61v-1485h-59v285q-35 -138 -141 -224t-240 -86zM182 512q0 -219 100.5 -350t276.5 -131q113 0 199.5 64t131 168.5t44.5 230.5v34q0 130 -43 234.5t-128 167.5t-200 63
q-178 0 -279.5 -130.5t-101.5 -350.5z" />
    <glyph glyph-name="e" unicode="e" horiz-adv-x="1089" 
d="M561 -25q-215 0 -328.5 140t-113.5 405q0 244 114.5 386.5t309.5 142.5q202 0 310 -129t108 -373v-33h-781q1 -233 101 -359t280 -124q134 2 222 77t116 211l55 -12q-29 -154 -135 -243t-258 -89zM180 567h717v2q0 203 -93 315.5t-261 112.5q-161 0 -260.5 -118
t-102.5 -312z" />
    <glyph glyph-name="f" unicode="f" horiz-adv-x="665" 
d="M614 1024v-53h-288v-971h-62v971h-196v53h196v193q0 136 65.5 208t192.5 72q38 0 92 -12v-53q-45 10 -88 10q-104 0 -152 -56.5t-48 -175.5v-186h288z" />
    <glyph glyph-name="g" unicode="g" horiz-adv-x="1062" 
d="M549 -424q-220 0 -335.5 78.5t-115.5 218.5q0 82 46 141t132 84q-60 22 -93 66t-33 102q0 64 37 112t104 71q-119 95 -119 260q0 151 99 245.5t257 94.5q110 0 199 -50q24 83 86 131t150 48q12 0 36 -4v-56q-12 2 -36 2q-76 0 -128 -38t-71 -107q123 -93 123 -266
q0 -149 -99.5 -242.5t-259.5 -93.5q-115 0 -200 51q-53 -15 -87 -55t-34 -90q0 -65 48.5 -104.5t131.5 -39.5h318q145 0 222 -66t77 -188q0 -149 -115.5 -227t-339.5 -78zM158 -119q0 -123 103.5 -187.5t293.5 -64.5q387 0 387 250q0 201 -248 201h-305q-25 0 -61 4
q-82 -23 -126 -76.5t-44 -126.5zM231 709q0 -126 82.5 -205.5t214.5 -79.5q133 0 215 79t82 206q0 129 -82 208.5t-215 79.5q-132 0 -214.5 -79.5t-82.5 -208.5z" />
    <glyph glyph-name="h" unicode="h" horiz-adv-x="1202" 
d="M219 0v1485h62v-740q38 145 138 224.5t243 79.5q173 0 263.5 -105t90.5 -311v-633h-62v631q0 180 -77.5 272t-229.5 92q-160 0 -263 -124.5t-103 -319.5v-551h-62z" />
    <glyph glyph-name="i" unicode="i" 
d="M219 0v1024h62v-1024h-62zM217 1192v242h66v-242h-66z" />
    <glyph glyph-name="j" unicode="j" horiz-adv-x="481" 
d="M35 -414q-67 0 -101 13v53q58 -10 89 -10q82 0 130 46.5t48 143.5v1192h61v-1198q0 -115 -61.5 -177.5t-165.5 -62.5zM199 1192v242h65v-242h-65z" />
    <glyph glyph-name="k" unicode="k" horiz-adv-x="1085" 
d="M219 0v1485h62v-1065l591 604h80l-377 -383l410 -641h-74l-379 596l-251 -252v-344h-62z" />
    <glyph glyph-name="l" unicode="l" 
d="M281 1485v-1485h-62v1485h62z" />
    <glyph glyph-name="m" unicode="m" horiz-adv-x="1751" 
d="M219 1024h57v-254q26 131 114.5 205t215.5 74q121 0 198.5 -66t102.5 -188q35 121 122 187.5t210 66.5q158 0 241 -100t83 -287v-662h-62v657q0 162 -70 250t-200 88q-136 0 -222.5 -92t-86.5 -237v-666h-62v670q0 156 -68.5 240.5t-195.5 84.5q-140 0 -227.5 -111
t-87.5 -290v-594h-62v1024z" />
    <glyph glyph-name="n" unicode="n" horiz-adv-x="1202" 
d="M219 0v1024h60v-281q37 148 134 227t242 79q177 0 269 -108t92 -318v-623h-62v623q0 181 -79 276.5t-230 95.5q-164 0 -264 -121.5t-100 -322.5v-551h-62z" />
    <glyph glyph-name="o" unicode="o" horiz-adv-x="1132" 
d="M565 -25q-204 0 -325 144t-121 393t121 393t325 144q205 0 327 -144t122 -393t-122 -393t-327 -144zM180 512q0 -224 105 -352.5t280 -128.5q176 0 280.5 128.5t104.5 352.5t-104.5 353.5t-280.5 129.5q-175 0 -280 -129.5t-105 -353.5z" />
    <glyph glyph-name="p" unicode="p" horiz-adv-x="1212" 
d="M219 -399v1423h60v-291q40 147 144.5 231.5t252.5 84.5q193 0 305.5 -149.5t112.5 -389.5q0 -239 -117 -387t-311 -148q-140 0 -245 81t-140 220v-675h-62zM279 496q0 -127 43 -231.5t130.5 -169t204.5 -64.5q170 0 271.5 130.5t101.5 348.5q0 221 -95 352t-265 131
q-121 0 -212 -67.5t-135 -171t-44 -224.5v-34z" />
    <glyph glyph-name="q" unicode="q" horiz-adv-x="1212" 
d="M932 279q-37 -138 -142.5 -221t-248.5 -83q-193 0 -307.5 148.5t-114.5 388.5q0 239 117.5 388t316.5 149q142 0 242 -76t139 -223l10 274h49v-1423h-61v678zM182 512q0 -220 99 -350.5t270 -130.5q116 0 204.5 64.5t133.5 169t45 229.5v36q0 205 -100.5 334t-278.5 129
q-175 0 -274 -130t-99 -351z" />
    <glyph glyph-name="r" unicode="r" horiz-adv-x="710" 
d="M279 729q31 149 119.5 234.5t213.5 85.5q18 0 41 -5v-57q-18 4 -37 4q-116 0 -198 -76q-66 -63 -101.5 -158t-35.5 -206v-551h-62v1024h60v-295z" />
    <glyph glyph-name="s" unicode="s" horiz-adv-x="999" 
d="M522 -25q-177 0 -280.5 82.5t-122.5 243.5l61 6q17 -139 105 -208.5t239 -69.5q134 0 209.5 60t75.5 163q0 95 -48 143.5t-161 73.5l-201 43q-247 56 -247 266q0 121 96 196t250 75q341 0 364 -301l-61 -9q-15 137 -90.5 196.5t-214.5 59.5q-125 0 -204 -59.5t-79 -157.5
q0 -165 201 -209l207 -47q132 -30 190.5 -90.5t58.5 -173.5q0 -130 -92.5 -206.5t-255.5 -76.5z" />
    <glyph glyph-name="t" unicode="t" horiz-adv-x="692" 
d="M74 971v53h186v279l62 28v-307h282v-53h-282v-742q0 -95 49.5 -142.5t136.5 -47.5q46 0 96 12v-53q-49 -16 -112 -16q-106 0 -169 63t-63 180v746h-186z" />
    <glyph glyph-name="u" unicode="u" horiz-adv-x="1191" 
d="M541 -25q-180 0 -266.5 107.5t-86.5 302.5v639h62v-639q0 -80 16.5 -142t44 -102t66 -65.5t80 -36t88.5 -10.5q88 0 159.5 36t115.5 95.5t67.5 133t23.5 152.5v578h62v-1024h-60v258q-40 -128 -137 -205.5t-235 -77.5z" />
    <glyph glyph-name="v" unicode="v" horiz-adv-x="931" 
d="M430 0l-401 1024h65l320 -819q42 -109 49 -137h6q4 19 11 39t18 48t18 50l322 819h65l-401 -1024h-72z" />
    <glyph glyph-name="w" unicode="w" horiz-adv-x="1445" 
d="M371 0l-312 1024h62l250 -819q2 -9 13.5 -56t16.5 -75h5q11 65 32 131l258 819h54l258 -819q20 -60 34 -131h5q5 38 30 131l248 819h61l-311 -1024h-61l-260 840q-21 70 -29 110h-2q-10 -39 -31 -110l-258 -840h-63z" />
    <glyph glyph-name="x" unicode="x" horiz-adv-x="962" 
d="M57 0l387 539l-360 485h72l231 -311q14 -19 46.5 -64.5t49.5 -70.5h2q53 81 97 137l225 309h74l-359 -492l385 -532h-73l-265 371q-44 59 -86 125h-2q-69 -107 -90 -134l-262 -362h-72z" />
    <glyph glyph-name="y" unicode="y" horiz-adv-x="915" 
d="M147 -410q-33 0 -77 9v55q33 -8 65 -8q59 0 105 20.5t79 61t55 84.5t44 108l26 76l-415 1028h67l310 -778q28 -69 69 -193h4q16 62 64 195l282 776h62l-400 -1090q-69 -185 -143.5 -264.5t-196.5 -79.5z" />
    <glyph glyph-name="z" unicode="z" horiz-adv-x="931" 
d="M98 51l652 920h-623v53h696v-47l-651 -924h674v-53h-748v51z" />
    <glyph glyph-name="ordfeminine" unicode="&#xaa;" horiz-adv-x="1093" 
d="M455 -25q-147 0 -237.5 79t-90.5 204q0 122 78 191q91 85 319 112l318 39v16q0 203 -70.5 291t-234.5 88q-143 0 -227 -73.5t-91 -212.5h-63q7 161 109 250.5t272 89.5q193 0 278.5 -99t85.5 -317v-244q0 -227 27 -389h-64q-15 93 -18 256q-45 -136 -144 -208.5
t-247 -72.5zM190 260q0 -105 76.5 -168t202.5 -63q168 0 271.5 118t103.5 299v105l-320 -41q-174 -22 -254 -81t-80 -169z" />
    <glyph glyph-name="ordmasculine" unicode="&#xba;" horiz-adv-x="1132" 
d="M565 -25q-204 0 -325 144t-121 393t121 393t325 144q205 0 327 -144t122 -393t-122 -393t-327 -144zM180 512q0 -224 105 -352.5t280 -128.5q176 0 280.5 128.5t104.5 352.5t-104.5 353.5t-280.5 129.5q-175 0 -280 -129.5t-105 -353.5z" />
    <glyph glyph-name="Agrave" unicode="&#xc0;" horiz-adv-x="1314" 
d="M66 0l559 1454h65l559 -1454h-67l-164 436h-719l-164 -436h-69zM322 496h673l-254 669q-47 123 -82 226h-4q-13 -42 -80 -226z" />
    <glyph glyph-name="Aacute" unicode="&#xc1;" horiz-adv-x="1314" 
d="M66 0l559 1454h65l559 -1454h-67l-164 436h-719l-164 -436h-69zM322 496h673l-254 669q-47 123 -82 226h-4q-13 -42 -80 -226z" />
    <glyph glyph-name="Acircumflex" unicode="&#xc2;" horiz-adv-x="1314" 
d="M66 0l559 1454h65l559 -1454h-67l-164 436h-719l-164 -436h-69zM322 496h673l-254 669q-47 123 -82 226h-4q-13 -42 -80 -226z" />
    <glyph glyph-name="Atilde" unicode="&#xc3;" horiz-adv-x="1314" 
d="M66 0l559 1454h65l559 -1454h-67l-164 436h-719l-164 -436h-69zM322 496h673l-254 669q-47 123 -82 226h-4q-13 -42 -80 -226z" />
    <glyph glyph-name="Adieresis" unicode="&#xc4;" horiz-adv-x="1314" 
d="M66 0l559 1454h65l559 -1454h-67l-164 436h-719l-164 -436h-69zM322 496h673l-254 669q-47 123 -82 226h-4q-13 -42 -80 -226z" />
    <glyph glyph-name="Aring" unicode="&#xc5;" horiz-adv-x="1314" 
d="M66 0l559 1454h65l559 -1454h-67l-164 436h-719l-164 -436h-69zM322 496h673l-254 669q-47 123 -82 226h-4q-13 -42 -80 -226z" />
    <glyph glyph-name="AE" unicode="&#xc6;" horiz-adv-x="2560" 
d="M66 0l559 1454h65l559 -1454h-67l-164 436h-719l-164 -436h-69zM322 496h673l-254 669q-47 123 -82 226h-4q-13 -42 -80 -226zM1554 0v1454h850v-57h-784v-623h750v-57h-750v-660h799v-57h-865z" />
    <glyph glyph-name="Ccedilla" unicode="&#xc7;" horiz-adv-x="1458" 
d="M758 -35q-129 0 -235 39.5t-178.5 108.5t-122 166t-72.5 210t-23 242q0 227 72.5 396.5t217 265.5t345.5 96q164 0 286.5 -67.5t189.5 -182t85 -266.5l-68 -4q-27 214 -155.5 338.5t-339.5 124.5q-175 0 -303.5 -87.5t-195 -245t-66.5 -366.5q0 -153 35.5 -281t104 -224
t178 -149.5t249.5 -53.5q200 0 329.5 118t168.5 326l65 -6q-22 -107 -63.5 -194t-108.5 -157t-167.5 -108.5t-227.5 -38.5z" />
    <glyph glyph-name="Egrave" unicode="&#xc8;" horiz-adv-x="1245" 
d="M305 57h799v-57h-864v1454h850v-57h-785v-623h750v-57h-750v-660z" />
    <glyph glyph-name="Eacute" unicode="&#xc9;" horiz-adv-x="1245" 
d="M305 57h799v-57h-864v1454h850v-57h-785v-623h750v-57h-750v-660z" />
    <glyph glyph-name="Ecircumflex" unicode="&#xca;" horiz-adv-x="1245" 
d="M305 57h799v-57h-864v1454h850v-57h-785v-623h750v-57h-750v-660z" />
    <glyph glyph-name="Edieresis" unicode="&#xcb;" horiz-adv-x="1245" 
d="M305 57h799v-57h-864v1454h850v-57h-785v-623h750v-57h-750v-660z" />
    <glyph glyph-name="Igrave" unicode="&#xcc;" horiz-adv-x="544" 
d="M305 0h-65v1454h65v-1454z" />
    <glyph glyph-name="Iacute" unicode="&#xcd;" horiz-adv-x="544" 
d="M305 0h-65v1454h65v-1454z" />
    <glyph glyph-name="Icircumflex" unicode="&#xce;" horiz-adv-x="544" 
d="M305 0h-65v1454h65v-1454z" />
    <glyph glyph-name="Idieresis" unicode="&#xcf;" horiz-adv-x="544" 
d="M305 0h-65v1454h65v-1454z" />
    <glyph glyph-name="Eth" unicode="&#xd0;" horiz-adv-x="1472" 
d="M240 0v1454h419q315 0 502 -197.5t187 -527.5q0 -326 -192.5 -527.5t-502.5 -201.5h-413zM305 57h352q185 0 327 87t218 239t76 346q0 303 -166.5 485.5t-449.5 182.5h-357v-1340z" />
    <glyph glyph-name="Ntilde" unicode="&#xd1;" horiz-adv-x="1521" 
d="M240 0v1454h79l826 -1243q23 -34 76 -121h2q-2 63 -2 143v1221h63v-1454h-78l-829 1251q-61 96 -76 123h-2q4 -94 4 -143v-1231h-63z" />
    <glyph glyph-name="Ograve" unicode="&#xd2;" horiz-adv-x="1519" 
d="M762 -35q-190 0 -334.5 95t-222.5 267.5t-78 399.5q0 348 173 555t462 207q288 0 460.5 -207t172.5 -555q0 -347 -172.5 -554.5t-460.5 -207.5zM195 727q0 -205 68.5 -364.5t198 -249.5t300.5 -90q258 0 410.5 193.5t152.5 510.5q0 209 -68 368.5t-196 248t-299 88.5
q-259 0 -413 -194t-154 -511z" />
    <glyph glyph-name="Oacute" unicode="&#xd3;" horiz-adv-x="1519" 
d="M762 -35q-190 0 -334.5 95t-222.5 267.5t-78 399.5q0 348 173 555t462 207q288 0 460.5 -207t172.5 -555q0 -347 -172.5 -554.5t-460.5 -207.5zM195 727q0 -205 68.5 -364.5t198 -249.5t300.5 -90q258 0 410.5 193.5t152.5 510.5q0 209 -68 368.5t-196 248t-299 88.5
q-259 0 -413 -194t-154 -511z" />
    <glyph glyph-name="Ocircumflex" unicode="&#xd4;" horiz-adv-x="1519" 
d="M762 -35q-190 0 -334.5 95t-222.5 267.5t-78 399.5q0 348 173 555t462 207q288 0 460.5 -207t172.5 -555q0 -347 -172.5 -554.5t-460.5 -207.5zM195 727q0 -205 68.5 -364.5t198 -249.5t300.5 -90q258 0 410.5 193.5t152.5 510.5q0 209 -68 368.5t-196 248t-299 88.5
q-259 0 -413 -194t-154 -511z" />
    <glyph glyph-name="Otilde" unicode="&#xd5;" horiz-adv-x="1519" 
d="M762 -35q-190 0 -334.5 95t-222.5 267.5t-78 399.5q0 348 173 555t462 207q288 0 460.5 -207t172.5 -555q0 -347 -172.5 -554.5t-460.5 -207.5zM195 727q0 -205 68.5 -364.5t198 -249.5t300.5 -90q258 0 410.5 193.5t152.5 510.5q0 209 -68 368.5t-196 248t-299 88.5
q-259 0 -413 -194t-154 -511z" />
    <glyph glyph-name="Odieresis" unicode="&#xd6;" horiz-adv-x="1519" 
d="M762 -35q-190 0 -334.5 95t-222.5 267.5t-78 399.5q0 348 173 555t462 207q288 0 460.5 -207t172.5 -555q0 -347 -172.5 -554.5t-460.5 -207.5zM195 727q0 -205 68.5 -364.5t198 -249.5t300.5 -90q258 0 410.5 193.5t152.5 510.5q0 209 -68 368.5t-196 248t-299 88.5
q-259 0 -413 -194t-154 -511z" />
    <glyph glyph-name="Oslash" unicode="&#xd8;" horiz-adv-x="1519" 
d="M762 -35q-190 0 -334.5 95t-222.5 267.5t-78 399.5q0 348 173 555t462 207q288 0 460.5 -207t172.5 -555q0 -347 -172.5 -554.5t-460.5 -207.5zM195 727q0 -205 68.5 -364.5t198 -249.5t300.5 -90q258 0 410.5 193.5t152.5 510.5q0 209 -68 368.5t-196 248t-299 88.5
q-259 0 -413 -194t-154 -511z" />
    <glyph glyph-name="Ugrave" unicode="&#xd9;" horiz-adv-x="1452" 
d="M219 1454h66v-962q0 -218 114.5 -342.5t325.5 -124.5t326.5 124.5t115.5 342.5v962h68v-967q0 -241 -133.5 -381.5t-376.5 -140.5q-242 0 -374 140t-132 382v967z" />
    <glyph glyph-name="Uacute" unicode="&#xda;" horiz-adv-x="1452" 
d="M219 1454h66v-962q0 -218 114.5 -342.5t325.5 -124.5t326.5 124.5t115.5 342.5v962h68v-967q0 -241 -133.5 -381.5t-376.5 -140.5q-242 0 -374 140t-132 382v967z" />
    <glyph glyph-name="Ucircumflex" unicode="&#xdb;" horiz-adv-x="1452" 
d="M219 1454h66v-962q0 -218 114.5 -342.5t325.5 -124.5t326.5 124.5t115.5 342.5v962h68v-967q0 -241 -133.5 -381.5t-376.5 -140.5q-242 0 -374 140t-132 382v967z" />
    <glyph glyph-name="Udieresis" unicode="&#xdc;" horiz-adv-x="1452" 
d="M219 1454h66v-962q0 -218 114.5 -342.5t325.5 -124.5t326.5 124.5t115.5 342.5v962h68v-967q0 -241 -133.5 -381.5t-376.5 -140.5q-242 0 -374 140t-132 382v967z" />
    <glyph glyph-name="Yacute" unicode="&#xdd;" horiz-adv-x="1173" 
d="M553 0v596l-524 858h73l408 -663q51 -85 76 -134h4q23 49 74 134l407 663h74l-524 -858v-596h-68z" />
    <glyph glyph-name="Thorn" unicode="&#xde;" horiz-adv-x="1241" 
d="M305 0h-65v1454h477q207 0 326.5 -102t119.5 -277q0 -192 -119.5 -302.5t-326.5 -110.5h-412v-662zM305 721h420q169 0 269 95.5t100 258.5q0 149 -100 235.5t-269 86.5h-420v-676z" />
    <glyph glyph-name="agrave" unicode="&#xe0;" horiz-adv-x="1093" 
d="M455 -25q-147 0 -237.5 79t-90.5 204q0 122 78 191q91 85 319 112l318 39v16q0 203 -70.5 291t-234.5 88q-143 0 -227 -73.5t-91 -212.5h-63q7 161 109 250.5t272 89.5q193 0 278.5 -99t85.5 -317v-244q0 -227 27 -389h-64q-15 93 -18 256q-45 -136 -144 -208.5
t-247 -72.5zM190 260q0 -105 76.5 -168t202.5 -63q168 0 271.5 118t103.5 299v105l-320 -41q-174 -22 -254 -81t-80 -169z" />
    <glyph glyph-name="aacute" unicode="&#xe1;" horiz-adv-x="1093" 
d="M455 -25q-147 0 -237.5 79t-90.5 204q0 122 78 191q91 85 319 112l318 39v16q0 203 -70.5 291t-234.5 88q-143 0 -227 -73.5t-91 -212.5h-63q7 161 109 250.5t272 89.5q193 0 278.5 -99t85.5 -317v-244q0 -227 27 -389h-64q-15 93 -18 256q-45 -136 -144 -208.5
t-247 -72.5zM190 260q0 -105 76.5 -168t202.5 -63q168 0 271.5 118t103.5 299v105l-320 -41q-174 -22 -254 -81t-80 -169z" />
    <glyph glyph-name="acircumflex" unicode="&#xe2;" horiz-adv-x="1093" 
d="M455 -25q-147 0 -237.5 79t-90.5 204q0 122 78 191q91 85 319 112l318 39v16q0 203 -70.5 291t-234.5 88q-143 0 -227 -73.5t-91 -212.5h-63q7 161 109 250.5t272 89.5q193 0 278.5 -99t85.5 -317v-244q0 -227 27 -389h-64q-15 93 -18 256q-45 -136 -144 -208.5
t-247 -72.5zM190 260q0 -105 76.5 -168t202.5 -63q168 0 271.5 118t103.5 299v105l-320 -41q-174 -22 -254 -81t-80 -169z" />
    <glyph glyph-name="atilde" unicode="&#xe3;" horiz-adv-x="1093" 
d="M455 -25q-147 0 -237.5 79t-90.5 204q0 122 78 191q91 85 319 112l318 39v16q0 203 -70.5 291t-234.5 88q-143 0 -227 -73.5t-91 -212.5h-63q7 161 109 250.5t272 89.5q193 0 278.5 -99t85.5 -317v-244q0 -227 27 -389h-64q-15 93 -18 256q-45 -136 -144 -208.5
t-247 -72.5zM190 260q0 -105 76.5 -168t202.5 -63q168 0 271.5 118t103.5 299v105l-320 -41q-174 -22 -254 -81t-80 -169z" />
    <glyph glyph-name="adieresis" unicode="&#xe4;" horiz-adv-x="1093" 
d="M455 -25q-147 0 -237.5 79t-90.5 204q0 122 78 191q91 85 319 112l318 39v16q0 203 -70.5 291t-234.5 88q-143 0 -227 -73.5t-91 -212.5h-63q7 161 109 250.5t272 89.5q193 0 278.5 -99t85.5 -317v-244q0 -227 27 -389h-64q-15 93 -18 256q-45 -136 -144 -208.5
t-247 -72.5zM190 260q0 -105 76.5 -168t202.5 -63q168 0 271.5 118t103.5 299v105l-320 -41q-174 -22 -254 -81t-80 -169z" />
    <glyph glyph-name="aring" unicode="&#xe5;" horiz-adv-x="1093" 
d="M455 -25q-147 0 -237.5 79t-90.5 204q0 122 78 191q91 85 319 112l318 39v16q0 203 -70.5 291t-234.5 88q-143 0 -227 -73.5t-91 -212.5h-63q7 161 109 250.5t272 89.5q193 0 278.5 -99t85.5 -317v-244q0 -227 27 -389h-64q-15 93 -18 256q-45 -136 -144 -208.5
t-247 -72.5zM190 260q0 -105 76.5 -168t202.5 -63q168 0 271.5 118t103.5 299v105l-320 -41q-174 -22 -254 -81t-80 -169z" />
    <glyph glyph-name="ae" unicode="&#xe6;" horiz-adv-x="2181" 
d="M455 -25q-147 0 -237.5 79t-90.5 204q0 122 78 191q91 85 319 112l318 39v16q0 203 -70.5 291t-234.5 88q-143 0 -227 -73.5t-91 -212.5h-63q7 161 109 250.5t272 89.5q193 0 278.5 -99t85.5 -317v-244q0 -227 27 -389h-64q-15 93 -18 256q-45 -136 -144 -208.5
t-247 -72.5zM190 260q0 -105 76.5 -168t202.5 -63q168 0 271.5 118t103.5 299v105l-320 -41q-174 -22 -254 -81t-80 -169zM1210 520q0 244 114.5 386.5t309.5 142.5q202 0 310 -129t108 -373v-33h-780q1 -233 101 -359t280 -124q134 2 222 77t116 211l55 -12
q-29 -154 -135 -243t-258 -89q-215 0 -329 140t-114 405zM1272 567h717v2q0 203 -93 315.5t-262 112.5q-161 0 -260 -118t-102 -312z" />
    <glyph glyph-name="ccedilla" unicode="&#xe7;" horiz-adv-x="1077" 
d="M559 -25q-207 0 -323.5 142t-116.5 395t117 395t323 142q167 0 273.5 -97.5t123.5 -267.5l-61 -2q-20 151 -108 232t-232 81q-177 0 -276 -127.5t-99 -353.5q0 -227 101 -355t280 -128q140 0 229 81.5t109 227.5l59 -4q-26 -172 -130.5 -266.5t-268.5 -94.5z" />
    <glyph glyph-name="egrave" unicode="&#xe8;" horiz-adv-x="1089" 
d="M561 -25q-215 0 -328.5 140t-113.5 405q0 244 114.5 386.5t309.5 142.5q202 0 310 -129t108 -373v-33h-781q1 -233 101 -359t280 -124q134 2 222 77t116 211l55 -12q-29 -154 -135 -243t-258 -89zM180 567h717v2q0 203 -93 315.5t-261 112.5q-161 0 -260.5 -118
t-102.5 -312z" />
    <glyph glyph-name="eacute" unicode="&#xe9;" horiz-adv-x="1089" 
d="M561 -25q-215 0 -328.5 140t-113.5 405q0 244 114.5 386.5t309.5 142.5q202 0 310 -129t108 -373v-33h-781q1 -233 101 -359t280 -124q134 2 222 77t116 211l55 -12q-29 -154 -135 -243t-258 -89zM180 567h717v2q0 203 -93 315.5t-261 112.5q-161 0 -260.5 -118
t-102.5 -312z" />
    <glyph glyph-name="ecircumflex" unicode="&#xea;" horiz-adv-x="1089" 
d="M561 -25q-215 0 -328.5 140t-113.5 405q0 244 114.5 386.5t309.5 142.5q202 0 310 -129t108 -373v-33h-781q1 -233 101 -359t280 -124q134 2 222 77t116 211l55 -12q-29 -154 -135 -243t-258 -89zM180 567h717v2q0 203 -93 315.5t-261 112.5q-161 0 -260.5 -118
t-102.5 -312z" />
    <glyph glyph-name="edieresis" unicode="&#xeb;" horiz-adv-x="1089" 
d="M561 -25q-215 0 -328.5 140t-113.5 405q0 244 114.5 386.5t309.5 142.5q202 0 310 -129t108 -373v-33h-781q1 -233 101 -359t280 -124q134 2 222 77t116 211l55 -12q-29 -154 -135 -243t-258 -89zM180 567h717v2q0 203 -93 315.5t-261 112.5q-161 0 -260.5 -118
t-102.5 -312z" />
    <glyph glyph-name="igrave" unicode="&#xec;" 
d="M219 0v1024h62v-1024h-62zM217 1192v242h66v-242h-66z" />
    <glyph glyph-name="iacute" unicode="&#xed;" 
d="M219 0v1024h62v-1024h-62zM217 1192v242h66v-242h-66z" />
    <glyph glyph-name="icircumflex" unicode="&#xee;" 
d="M219 0v1024h62v-1024h-62zM217 1192v242h66v-242h-66z" />
    <glyph glyph-name="idieresis" unicode="&#xef;" 
d="M219 0v1024h62v-1024h-62zM217 1192v242h66v-242h-66z" />
    <glyph glyph-name="ntilde" unicode="&#xf1;" horiz-adv-x="1202" 
d="M219 0v1024h60v-281q37 148 134 227t242 79q177 0 269 -108t92 -318v-623h-62v623q0 181 -79 276.5t-230 95.5q-164 0 -264 -121.5t-100 -322.5v-551h-62z" />
    <glyph glyph-name="ograve" unicode="&#xf2;" horiz-adv-x="1132" 
d="M565 -25q-204 0 -325 144t-121 393t121 393t325 144q205 0 327 -144t122 -393t-122 -393t-327 -144zM180 512q0 -224 105 -352.5t280 -128.5q176 0 280.5 128.5t104.5 352.5t-104.5 353.5t-280.5 129.5q-175 0 -280 -129.5t-105 -353.5z" />
    <glyph glyph-name="oacute" unicode="&#xf3;" horiz-adv-x="1132" 
d="M565 -25q-204 0 -325 144t-121 393t121 393t325 144q205 0 327 -144t122 -393t-122 -393t-327 -144zM180 512q0 -224 105 -352.5t280 -128.5q176 0 280.5 128.5t104.5 352.5t-104.5 353.5t-280.5 129.5q-175 0 -280 -129.5t-105 -353.5z" />
    <glyph glyph-name="ocircumflex" unicode="&#xf4;" horiz-adv-x="1132" 
d="M565 -25q-204 0 -325 144t-121 393t121 393t325 144q205 0 327 -144t122 -393t-122 -393t-327 -144zM180 512q0 -224 105 -352.5t280 -128.5q176 0 280.5 128.5t104.5 352.5t-104.5 353.5t-280.5 129.5q-175 0 -280 -129.5t-105 -353.5z" />
    <glyph glyph-name="otilde" unicode="&#xf5;" horiz-adv-x="1132" 
d="M565 -25q-204 0 -325 144t-121 393t121 393t325 144q205 0 327 -144t122 -393t-122 -393t-327 -144zM180 512q0 -224 105 -352.5t280 -128.5q176 0 280.5 128.5t104.5 352.5t-104.5 353.5t-280.5 129.5q-175 0 -280 -129.5t-105 -353.5z" />
    <glyph glyph-name="odieresis" unicode="&#xf6;" horiz-adv-x="1132" 
d="M565 -25q-204 0 -325 144t-121 393t121 393t325 144q205 0 327 -144t122 -393t-122 -393t-327 -144zM180 512q0 -224 105 -352.5t280 -128.5q176 0 280.5 128.5t104.5 352.5t-104.5 353.5t-280.5 129.5q-175 0 -280 -129.5t-105 -353.5z" />
    <glyph glyph-name="oslash" unicode="&#xf8;" horiz-adv-x="1132" 
d="M565 -25q-204 0 -325 144t-121 393t121 393t325 144q205 0 327 -144t122 -393t-122 -393t-327 -144zM180 512q0 -224 105 -352.5t280 -128.5q176 0 280.5 128.5t104.5 352.5t-104.5 353.5t-280.5 129.5q-175 0 -280 -129.5t-105 -353.5z" />
    <glyph glyph-name="ugrave" unicode="&#xf9;" horiz-adv-x="1191" 
d="M541 -25q-180 0 -266.5 107.5t-86.5 302.5v639h62v-639q0 -80 16.5 -142t44 -102t66 -65.5t80 -36t88.5 -10.5q88 0 159.5 36t115.5 95.5t67.5 133t23.5 152.5v578h62v-1024h-60v258q-40 -128 -137 -205.5t-235 -77.5z" />
    <glyph glyph-name="uacute" unicode="&#xfa;" horiz-adv-x="1191" 
d="M541 -25q-180 0 -266.5 107.5t-86.5 302.5v639h62v-639q0 -80 16.5 -142t44 -102t66 -65.5t80 -36t88.5 -10.5q88 0 159.5 36t115.5 95.5t67.5 133t23.5 152.5v578h62v-1024h-60v258q-40 -128 -137 -205.5t-235 -77.5z" />
    <glyph glyph-name="ucircumflex" unicode="&#xfb;" horiz-adv-x="1191" 
d="M541 -25q-180 0 -266.5 107.5t-86.5 302.5v639h62v-639q0 -80 16.5 -142t44 -102t66 -65.5t80 -36t88.5 -10.5q88 0 159.5 36t115.5 95.5t67.5 133t23.5 152.5v578h62v-1024h-60v258q-40 -128 -137 -205.5t-235 -77.5z" />
    <glyph glyph-name="udieresis" unicode="&#xfc;" horiz-adv-x="1191" 
d="M541 -25q-180 0 -266.5 107.5t-86.5 302.5v639h62v-639q0 -80 16.5 -142t44 -102t66 -65.5t80 -36t88.5 -10.5q88 0 159.5 36t115.5 95.5t67.5 133t23.5 152.5v578h62v-1024h-60v258q-40 -128 -137 -205.5t-235 -77.5z" />
    <glyph glyph-name="yacute" unicode="&#xfd;" horiz-adv-x="915" 
d="M147 -410q-33 0 -77 9v55q33 -8 65 -8q59 0 105 20.5t79 61t55 84.5t44 108l26 76l-415 1028h67l310 -778q28 -69 69 -193h4q16 62 64 195l282 776h62l-400 -1090q-69 -185 -143.5 -264.5t-196.5 -79.5z" />
    <glyph glyph-name="thorn" unicode="&#xfe;" horiz-adv-x="1212" 
d="M219 -399v1423h60v-291q40 147 144.5 231.5t252.5 84.5q193 0 305.5 -149.5t112.5 -389.5q0 -239 -117 -387t-311 -148q-140 0 -245 81t-140 220v-675h-62zM279 496q0 -127 43 -231.5t130.5 -169t204.5 -64.5q170 0 271.5 130.5t101.5 348.5q0 221 -95 352t-265 131
q-121 0 -212 -67.5t-135 -171t-44 -224.5v-34z" />
    <glyph glyph-name="ydieresis" unicode="&#xff;" horiz-adv-x="915" 
d="M147 -410q-33 0 -77 9v55q33 -8 65 -8q59 0 105 20.5t79 61t55 84.5t44 108l26 76l-415 1028h67l310 -778q28 -69 69 -193h4q16 62 64 195l282 776h62l-400 -1090q-69 -185 -143.5 -264.5t-196.5 -79.5z" />
    <glyph glyph-name="Amacron" unicode="&#x100;" horiz-adv-x="1314" 
d="M66 0l559 1454h65l559 -1454h-67l-164 436h-719l-164 -436h-69zM322 496h673l-254 669q-47 123 -82 226h-4q-13 -42 -80 -226z" />
    <glyph glyph-name="amacron" unicode="&#x101;" horiz-adv-x="1093" 
d="M455 -25q-147 0 -237.5 79t-90.5 204q0 122 78 191q91 85 319 112l318 39v16q0 203 -70.5 291t-234.5 88q-143 0 -227 -73.5t-91 -212.5h-63q7 161 109 250.5t272 89.5q193 0 278.5 -99t85.5 -317v-244q0 -227 27 -389h-64q-15 93 -18 256q-45 -136 -144 -208.5
t-247 -72.5zM190 260q0 -105 76.5 -168t202.5 -63q168 0 271.5 118t103.5 299v105l-320 -41q-174 -22 -254 -81t-80 -169z" />
    <glyph glyph-name="Abreve" unicode="&#x102;" horiz-adv-x="1314" 
d="M66 0l559 1454h65l559 -1454h-67l-164 436h-719l-164 -436h-69zM322 496h673l-254 669q-47 123 -82 226h-4q-13 -42 -80 -226z" />
    <glyph glyph-name="abreve" unicode="&#x103;" horiz-adv-x="1093" 
d="M455 -25q-147 0 -237.5 79t-90.5 204q0 122 78 191q91 85 319 112l318 39v16q0 203 -70.5 291t-234.5 88q-143 0 -227 -73.5t-91 -212.5h-63q7 161 109 250.5t272 89.5q193 0 278.5 -99t85.5 -317v-244q0 -227 27 -389h-64q-15 93 -18 256q-45 -136 -144 -208.5
t-247 -72.5zM190 260q0 -105 76.5 -168t202.5 -63q168 0 271.5 118t103.5 299v105l-320 -41q-174 -22 -254 -81t-80 -169z" />
    <glyph glyph-name="Aogonek" unicode="&#x104;" horiz-adv-x="1314" 
d="M66 0l559 1454h65l559 -1454h-67l-164 436h-719l-164 -436h-69zM322 496h673l-254 669q-47 123 -82 226h-4q-13 -42 -80 -226z" />
    <glyph glyph-name="aogonek" unicode="&#x105;" horiz-adv-x="1093" 
d="M455 -25q-147 0 -237.5 79t-90.5 204q0 122 78 191q91 85 319 112l318 39v16q0 203 -70.5 291t-234.5 88q-143 0 -227 -73.5t-91 -212.5h-63q7 161 109 250.5t272 89.5q193 0 278.5 -99t85.5 -317v-244q0 -227 27 -389h-64q-15 93 -18 256q-45 -136 -144 -208.5
t-247 -72.5zM190 260q0 -105 76.5 -168t202.5 -63q168 0 271.5 118t103.5 299v105l-320 -41q-174 -22 -254 -81t-80 -169z" />
    <glyph glyph-name="Cacute" unicode="&#x106;" horiz-adv-x="1458" 
d="M758 -35q-129 0 -235 39.5t-178.5 108.5t-122 166t-72.5 210t-23 242q0 227 72.5 396.5t217 265.5t345.5 96q164 0 286.5 -67.5t189.5 -182t85 -266.5l-68 -4q-27 214 -155.5 338.5t-339.5 124.5q-175 0 -303.5 -87.5t-195 -245t-66.5 -366.5q0 -153 35.5 -281t104 -224
t178 -149.5t249.5 -53.5q200 0 329.5 118t168.5 326l65 -6q-22 -107 -63.5 -194t-108.5 -157t-167.5 -108.5t-227.5 -38.5z" />
    <glyph glyph-name="cacute" unicode="&#x107;" horiz-adv-x="1077" 
d="M559 -25q-207 0 -323.5 142t-116.5 395t117 395t323 142q167 0 273.5 -97.5t123.5 -267.5l-61 -2q-20 151 -108 232t-232 81q-177 0 -276 -127.5t-99 -353.5q0 -227 101 -355t280 -128q140 0 229 81.5t109 227.5l59 -4q-26 -172 -130.5 -266.5t-268.5 -94.5z" />
    <glyph glyph-name="Ccircumflex" unicode="&#x108;" horiz-adv-x="1458" 
d="M758 -35q-129 0 -235 39.5t-178.5 108.5t-122 166t-72.5 210t-23 242q0 227 72.5 396.5t217 265.5t345.5 96q164 0 286.5 -67.5t189.5 -182t85 -266.5l-68 -4q-27 214 -155.5 338.5t-339.5 124.5q-175 0 -303.5 -87.5t-195 -245t-66.5 -366.5q0 -153 35.5 -281t104 -224
t178 -149.5t249.5 -53.5q200 0 329.5 118t168.5 326l65 -6q-22 -107 -63.5 -194t-108.5 -157t-167.5 -108.5t-227.5 -38.5z" />
    <glyph glyph-name="ccircumflex" unicode="&#x109;" horiz-adv-x="1077" 
d="M559 -25q-207 0 -323.5 142t-116.5 395t117 395t323 142q167 0 273.5 -97.5t123.5 -267.5l-61 -2q-20 151 -108 232t-232 81q-177 0 -276 -127.5t-99 -353.5q0 -227 101 -355t280 -128q140 0 229 81.5t109 227.5l59 -4q-26 -172 -130.5 -266.5t-268.5 -94.5z" />
    <glyph glyph-name="Cdotaccent" unicode="&#x10a;" horiz-adv-x="1458" 
d="M758 -35q-129 0 -235 39.5t-178.5 108.5t-122 166t-72.5 210t-23 242q0 227 72.5 396.5t217 265.5t345.5 96q164 0 286.5 -67.5t189.5 -182t85 -266.5l-68 -4q-27 214 -155.5 338.5t-339.5 124.5q-175 0 -303.5 -87.5t-195 -245t-66.5 -366.5q0 -153 35.5 -281t104 -224
t178 -149.5t249.5 -53.5q200 0 329.5 118t168.5 326l65 -6q-22 -107 -63.5 -194t-108.5 -157t-167.5 -108.5t-227.5 -38.5z" />
    <glyph glyph-name="cdotaccent" unicode="&#x10b;" horiz-adv-x="1077" 
d="M559 -25q-207 0 -323.5 142t-116.5 395t117 395t323 142q167 0 273.5 -97.5t123.5 -267.5l-61 -2q-20 151 -108 232t-232 81q-177 0 -276 -127.5t-99 -353.5q0 -227 101 -355t280 -128q140 0 229 81.5t109 227.5l59 -4q-26 -172 -130.5 -266.5t-268.5 -94.5z" />
    <glyph glyph-name="Ccaron" unicode="&#x10c;" horiz-adv-x="1458" 
d="M758 -35q-129 0 -235 39.5t-178.5 108.5t-122 166t-72.5 210t-23 242q0 227 72.5 396.5t217 265.5t345.5 96q164 0 286.5 -67.5t189.5 -182t85 -266.5l-68 -4q-27 214 -155.5 338.5t-339.5 124.5q-175 0 -303.5 -87.5t-195 -245t-66.5 -366.5q0 -153 35.5 -281t104 -224
t178 -149.5t249.5 -53.5q200 0 329.5 118t168.5 326l65 -6q-22 -107 -63.5 -194t-108.5 -157t-167.5 -108.5t-227.5 -38.5z" />
    <glyph glyph-name="ccaron" unicode="&#x10d;" horiz-adv-x="1077" 
d="M559 -25q-207 0 -323.5 142t-116.5 395t117 395t323 142q167 0 273.5 -97.5t123.5 -267.5l-61 -2q-20 151 -108 232t-232 81q-177 0 -276 -127.5t-99 -353.5q0 -227 101 -355t280 -128q140 0 229 81.5t109 227.5l59 -4q-26 -172 -130.5 -266.5t-268.5 -94.5z" />
    <glyph glyph-name="Dcaron" unicode="&#x10e;" horiz-adv-x="1472" 
d="M240 0v1454h419q315 0 502 -197.5t187 -527.5q0 -326 -192.5 -527.5t-502.5 -201.5h-413zM305 57h352q185 0 327 87t218 239t76 346q0 303 -166.5 485.5t-449.5 182.5h-357v-1340z" />
    <glyph glyph-name="dcaron" unicode="&#x10f;" horiz-adv-x="1212" 
d="M553 -25q-202 0 -318 148t-116 389q0 238 119.5 387.5t320.5 149.5q138 0 237 -77t136 -227v740h61v-1485h-59v285q-35 -138 -141 -224t-240 -86zM182 512q0 -219 100.5 -350t276.5 -131q113 0 199.5 64t131 168.5t44.5 230.5v34q0 130 -43 234.5t-128 167.5t-200 63
q-178 0 -279.5 -130.5t-101.5 -350.5z" />
    <glyph glyph-name="Dcroat" unicode="&#x110;" horiz-adv-x="1472" 
d="M240 0v1454h419q315 0 502 -197.5t187 -527.5q0 -326 -192.5 -527.5t-502.5 -201.5h-413zM305 57h352q185 0 327 87t218 239t76 346q0 303 -166.5 485.5t-449.5 182.5h-357v-1340z" />
    <glyph glyph-name="dcroat" unicode="&#x111;" horiz-adv-x="1212" 
d="M553 -25q-202 0 -318 148t-116 389q0 238 119.5 387.5t320.5 149.5q138 0 237 -77t136 -227v740h61v-1485h-59v285q-35 -138 -141 -224t-240 -86zM182 512q0 -219 100.5 -350t276.5 -131q113 0 199.5 64t131 168.5t44.5 230.5v34q0 130 -43 234.5t-128 167.5t-200 63
q-178 0 -279.5 -130.5t-101.5 -350.5z" />
    <glyph glyph-name="Emacron" unicode="&#x112;" horiz-adv-x="1245" 
d="M305 57h799v-57h-864v1454h850v-57h-785v-623h750v-57h-750v-660z" />
    <glyph glyph-name="emacron" unicode="&#x113;" horiz-adv-x="1089" 
d="M561 -25q-215 0 -328.5 140t-113.5 405q0 244 114.5 386.5t309.5 142.5q202 0 310 -129t108 -373v-33h-781q1 -233 101 -359t280 -124q134 2 222 77t116 211l55 -12q-29 -154 -135 -243t-258 -89zM180 567h717v2q0 203 -93 315.5t-261 112.5q-161 0 -260.5 -118
t-102.5 -312z" />
    <glyph glyph-name="Ebreve" unicode="&#x114;" horiz-adv-x="1245" 
d="M305 57h799v-57h-864v1454h850v-57h-785v-623h750v-57h-750v-660z" />
    <glyph glyph-name="ebreve" unicode="&#x115;" horiz-adv-x="1089" 
d="M561 -25q-215 0 -328.5 140t-113.5 405q0 244 114.5 386.5t309.5 142.5q202 0 310 -129t108 -373v-33h-781q1 -233 101 -359t280 -124q134 2 222 77t116 211l55 -12q-29 -154 -135 -243t-258 -89zM180 567h717v2q0 203 -93 315.5t-261 112.5q-161 0 -260.5 -118
t-102.5 -312z" />
    <glyph glyph-name="Edotaccent" unicode="&#x116;" horiz-adv-x="1245" 
d="M305 57h799v-57h-864v1454h850v-57h-785v-623h750v-57h-750v-660z" />
    <glyph glyph-name="edotaccent" unicode="&#x117;" horiz-adv-x="1089" 
d="M561 -25q-215 0 -328.5 140t-113.5 405q0 244 114.5 386.5t309.5 142.5q202 0 310 -129t108 -373v-33h-781q1 -233 101 -359t280 -124q134 2 222 77t116 211l55 -12q-29 -154 -135 -243t-258 -89zM180 567h717v2q0 203 -93 315.5t-261 112.5q-161 0 -260.5 -118
t-102.5 -312z" />
    <glyph glyph-name="Eogonek" unicode="&#x118;" horiz-adv-x="1245" 
d="M305 57h799v-57h-864v1454h850v-57h-785v-623h750v-57h-750v-660z" />
    <glyph glyph-name="eogonek" unicode="&#x119;" horiz-adv-x="1089" 
d="M561 -25q-215 0 -328.5 140t-113.5 405q0 244 114.5 386.5t309.5 142.5q202 0 310 -129t108 -373v-33h-781q1 -233 101 -359t280 -124q134 2 222 77t116 211l55 -12q-29 -154 -135 -243t-258 -89zM180 567h717v2q0 203 -93 315.5t-261 112.5q-161 0 -260.5 -118
t-102.5 -312z" />
    <glyph glyph-name="Ecaron" unicode="&#x11a;" horiz-adv-x="1245" 
d="M305 57h799v-57h-864v1454h850v-57h-785v-623h750v-57h-750v-660z" />
    <glyph glyph-name="ecaron" unicode="&#x11b;" horiz-adv-x="1089" 
d="M561 -25q-215 0 -328.5 140t-113.5 405q0 244 114.5 386.5t309.5 142.5q202 0 310 -129t108 -373v-33h-781q1 -233 101 -359t280 -124q134 2 222 77t116 211l55 -12q-29 -154 -135 -243t-258 -89zM180 567h717v2q0 203 -93 315.5t-261 112.5q-161 0 -260.5 -118
t-102.5 -312z" />
    <glyph glyph-name="Gcircumflex" unicode="&#x11c;" horiz-adv-x="1492" 
d="M733 -35q-191 0 -330 102t-207.5 273.5t-68.5 390.5q0 165 41.5 303.5t119 239.5t196.5 158t266 57q114 0 207 -31.5t150.5 -78t99 -109.5t60.5 -117t27 -109l-65 -6q-10 54 -27.5 103.5t-55 104.5t-88.5 94.5t-132.5 65.5t-182.5 26q-172 0 -296.5 -90t-188 -248.5
t-63.5 -368.5q0 -146 34 -271t100 -222t172.5 -152t243.5 -55q88 0 162.5 21.5t126 56.5t92.5 83t65.5 97t40.5 101.5t22 94.5t6 78v119h-521v59h584v-735h-53l-8 342q-55 -175 -194 -276t-335 -101z" />
    <glyph glyph-name="gcircumflex" unicode="&#x11d;" horiz-adv-x="1062" 
d="M549 -424q-220 0 -335.5 78.5t-115.5 218.5q0 82 46 141t132 84q-60 22 -93 66t-33 102q0 64 37 112t104 71q-119 95 -119 260q0 151 99 245.5t257 94.5q110 0 199 -50q24 83 86 131t150 48q12 0 36 -4v-56q-12 2 -36 2q-76 0 -128 -38t-71 -107q123 -93 123 -266
q0 -149 -99.5 -242.5t-259.5 -93.5q-115 0 -200 51q-53 -15 -87 -55t-34 -90q0 -65 48.5 -104.5t131.5 -39.5h318q145 0 222 -66t77 -188q0 -149 -115.5 -227t-339.5 -78zM158 -119q0 -123 103.5 -187.5t293.5 -64.5q387 0 387 250q0 201 -248 201h-305q-25 0 -61 4
q-82 -23 -126 -76.5t-44 -126.5zM231 709q0 -126 82.5 -205.5t214.5 -79.5q133 0 215 79t82 206q0 129 -82 208.5t-215 79.5q-132 0 -214.5 -79.5t-82.5 -208.5z" />
    <glyph glyph-name="Gbreve" unicode="&#x11e;" horiz-adv-x="1492" 
d="M733 -35q-191 0 -330 102t-207.5 273.5t-68.5 390.5q0 165 41.5 303.5t119 239.5t196.5 158t266 57q114 0 207 -31.5t150.5 -78t99 -109.5t60.5 -117t27 -109l-65 -6q-10 54 -27.5 103.5t-55 104.5t-88.5 94.5t-132.5 65.5t-182.5 26q-172 0 -296.5 -90t-188 -248.5
t-63.5 -368.5q0 -146 34 -271t100 -222t172.5 -152t243.5 -55q88 0 162.5 21.5t126 56.5t92.5 83t65.5 97t40.5 101.5t22 94.5t6 78v119h-521v59h584v-735h-53l-8 342q-55 -175 -194 -276t-335 -101z" />
    <glyph glyph-name="gbreve" unicode="&#x11f;" horiz-adv-x="1062" 
d="M549 -424q-220 0 -335.5 78.5t-115.5 218.5q0 82 46 141t132 84q-60 22 -93 66t-33 102q0 64 37 112t104 71q-119 95 -119 260q0 151 99 245.5t257 94.5q110 0 199 -50q24 83 86 131t150 48q12 0 36 -4v-56q-12 2 -36 2q-76 0 -128 -38t-71 -107q123 -93 123 -266
q0 -149 -99.5 -242.5t-259.5 -93.5q-115 0 -200 51q-53 -15 -87 -55t-34 -90q0 -65 48.5 -104.5t131.5 -39.5h318q145 0 222 -66t77 -188q0 -149 -115.5 -227t-339.5 -78zM158 -119q0 -123 103.5 -187.5t293.5 -64.5q387 0 387 250q0 201 -248 201h-305q-25 0 -61 4
q-82 -23 -126 -76.5t-44 -126.5zM231 709q0 -126 82.5 -205.5t214.5 -79.5q133 0 215 79t82 206q0 129 -82 208.5t-215 79.5q-132 0 -214.5 -79.5t-82.5 -208.5z" />
    <glyph glyph-name="Gdotaccent" unicode="&#x120;" horiz-adv-x="1492" 
d="M733 -35q-191 0 -330 102t-207.5 273.5t-68.5 390.5q0 165 41.5 303.5t119 239.5t196.5 158t266 57q114 0 207 -31.5t150.5 -78t99 -109.5t60.5 -117t27 -109l-65 -6q-10 54 -27.5 103.5t-55 104.5t-88.5 94.5t-132.5 65.5t-182.5 26q-172 0 -296.5 -90t-188 -248.5
t-63.5 -368.5q0 -146 34 -271t100 -222t172.5 -152t243.5 -55q88 0 162.5 21.5t126 56.5t92.5 83t65.5 97t40.5 101.5t22 94.5t6 78v119h-521v59h584v-735h-53l-8 342q-55 -175 -194 -276t-335 -101z" />
    <glyph glyph-name="gdotaccent" unicode="&#x121;" horiz-adv-x="1062" 
d="M549 -424q-220 0 -335.5 78.5t-115.5 218.5q0 82 46 141t132 84q-60 22 -93 66t-33 102q0 64 37 112t104 71q-119 95 -119 260q0 151 99 245.5t257 94.5q110 0 199 -50q24 83 86 131t150 48q12 0 36 -4v-56q-12 2 -36 2q-76 0 -128 -38t-71 -107q123 -93 123 -266
q0 -149 -99.5 -242.5t-259.5 -93.5q-115 0 -200 51q-53 -15 -87 -55t-34 -90q0 -65 48.5 -104.5t131.5 -39.5h318q145 0 222 -66t77 -188q0 -149 -115.5 -227t-339.5 -78zM158 -119q0 -123 103.5 -187.5t293.5 -64.5q387 0 387 250q0 201 -248 201h-305q-25 0 -61 4
q-82 -23 -126 -76.5t-44 -126.5zM231 709q0 -126 82.5 -205.5t214.5 -79.5q133 0 215 79t82 206q0 129 -82 208.5t-215 79.5q-132 0 -214.5 -79.5t-82.5 -208.5z" />
    <glyph glyph-name="uni0122" unicode="&#x122;" horiz-adv-x="1492" 
d="M733 -35q-191 0 -330 102t-207.5 273.5t-68.5 390.5q0 165 41.5 303.5t119 239.5t196.5 158t266 57q114 0 207 -31.5t150.5 -78t99 -109.5t60.5 -117t27 -109l-65 -6q-10 54 -27.5 103.5t-55 104.5t-88.5 94.5t-132.5 65.5t-182.5 26q-172 0 -296.5 -90t-188 -248.5
t-63.5 -368.5q0 -146 34 -271t100 -222t172.5 -152t243.5 -55q88 0 162.5 21.5t126 56.5t92.5 83t65.5 97t40.5 101.5t22 94.5t6 78v119h-521v59h584v-735h-53l-8 342q-55 -175 -194 -276t-335 -101z" />
    <glyph glyph-name="uni0123" unicode="&#x123;" horiz-adv-x="1062" 
d="M549 -424q-220 0 -335.5 78.5t-115.5 218.5q0 82 46 141t132 84q-60 22 -93 66t-33 102q0 64 37 112t104 71q-119 95 -119 260q0 151 99 245.5t257 94.5q110 0 199 -50q24 83 86 131t150 48q12 0 36 -4v-56q-12 2 -36 2q-76 0 -128 -38t-71 -107q123 -93 123 -266
q0 -149 -99.5 -242.5t-259.5 -93.5q-115 0 -200 51q-53 -15 -87 -55t-34 -90q0 -65 48.5 -104.5t131.5 -39.5h318q145 0 222 -66t77 -188q0 -149 -115.5 -227t-339.5 -78zM158 -119q0 -123 103.5 -187.5t293.5 -64.5q387 0 387 250q0 201 -248 201h-305q-25 0 -61 4
q-82 -23 -126 -76.5t-44 -126.5zM231 709q0 -126 82.5 -205.5t214.5 -79.5q133 0 215 79t82 206q0 129 -82 208.5t-215 79.5q-132 0 -214.5 -79.5t-82.5 -208.5z" />
    <glyph glyph-name="Hcircumflex" unicode="&#x124;" horiz-adv-x="1540" 
d="M1303 1454v-1454h-68v717h-930v-717h-65v1454h65v-680h930v680h68z" />
    <glyph glyph-name="hcircumflex" unicode="&#x125;" horiz-adv-x="1202" 
d="M219 0v1485h62v-740q38 145 138 224.5t243 79.5q173 0 263.5 -105t90.5 -311v-633h-62v631q0 180 -77.5 272t-229.5 92q-160 0 -263 -124.5t-103 -319.5v-551h-62z" />
    <glyph glyph-name="Hbar" unicode="&#x126;" horiz-adv-x="1540" 
d="M1303 1454v-1454h-68v717h-930v-717h-65v1454h65v-680h930v680h68z" />
    <glyph glyph-name="hbar" unicode="&#x127;" horiz-adv-x="1202" 
d="M219 0v1485h62v-740q38 145 138 224.5t243 79.5q173 0 263.5 -105t90.5 -311v-633h-62v631q0 180 -77.5 272t-229.5 92q-160 0 -263 -124.5t-103 -319.5v-551h-62z" />
    <glyph glyph-name="Itilde" unicode="&#x128;" horiz-adv-x="544" 
d="M305 0h-65v1454h65v-1454z" />
    <glyph glyph-name="itilde" unicode="&#x129;" 
d="M219 0v1024h62v-1024h-62zM217 1192v242h66v-242h-66z" />
    <glyph glyph-name="Imacron" unicode="&#x12a;" horiz-adv-x="544" 
d="M305 0h-65v1454h65v-1454z" />
    <glyph glyph-name="imacron" unicode="&#x12b;" 
d="M219 0v1024h62v-1024h-62zM217 1192v242h66v-242h-66z" />
    <glyph glyph-name="Ibreve" unicode="&#x12c;" horiz-adv-x="544" 
d="M305 0h-65v1454h65v-1454z" />
    <glyph glyph-name="ibreve" unicode="&#x12d;" 
d="M219 0v1024h62v-1024h-62zM217 1192v242h66v-242h-66z" />
    <glyph glyph-name="Iogonek" unicode="&#x12e;" horiz-adv-x="544" 
d="M305 0h-65v1454h65v-1454z" />
    <glyph glyph-name="iogonek" unicode="&#x12f;" 
d="M219 0v1024h62v-1024h-62zM217 1192v242h66v-242h-66z" />
    <glyph glyph-name="Idotaccent" unicode="&#x130;" horiz-adv-x="544" 
d="M305 0h-65v1454h65v-1454z" />
    <glyph glyph-name="dotlessi" unicode="&#x131;" 
d="M219 0v1024h62v-1024h-62zM217 1192v242h66v-242h-66z" />
    <glyph glyph-name="IJ" unicode="&#x132;" horiz-adv-x="1310" 
d="M305 0h-65v1454h65v-1454zM586 -2v63q80 -24 159 -24q60 0 106.5 14t88 48t64 100.5t22.5 162.5v1092h66v-1106q0 -85 -19 -150.5t-50 -107t-76 -68t-93.5 -37t-105.5 -10.5q-99 0 -162 23z" />
    <glyph glyph-name="ij" unicode="&#x133;" horiz-adv-x="978" 
d="M219 0v1024h62v-1024h-62zM217 1192v242h66v-242h-66zM432 -401v53q58 -10 88 -10q82 0 130 46.5t48 143.5v1192h62v-1198q0 -115 -62 -177.5t-166 -62.5q-66 0 -100 13zM696 1192v242h66v-242h-66z" />
    <glyph glyph-name="Jcircumflex" unicode="&#x134;" horiz-adv-x="765" 
d="M547 348q0 -85 -19 -150.5t-50 -107t-76 -68t-93.5 -37t-105.5 -10.5q-99 0 -162 23v63q80 -24 160 -24q60 0 106.5 14t87.5 48t63.5 100.5t22.5 162.5v1092h66v-1106z" />
    <glyph glyph-name="jcircumflex" unicode="&#x135;" horiz-adv-x="481" 
d="M35 -414q-67 0 -101 13v53q58 -10 89 -10q82 0 130 46.5t48 143.5v1192h61v-1198q0 -115 -61.5 -177.5t-165.5 -62.5zM199 1192v242h65v-242h-65z" />
    <glyph glyph-name="uni0136" unicode="&#x136;" horiz-adv-x="1339" 
d="M240 0v1454h65v-883l823 883h86l-548 -582l589 -872h-77l-557 825l-316 -336v-489h-65z" />
    <glyph glyph-name="uni0137" unicode="&#x137;" horiz-adv-x="1085" 
d="M219 0v1485h62v-1065l591 604h80l-377 -383l410 -641h-74l-379 596l-251 -252v-344h-62z" />
    <glyph glyph-name="kgreenlandic" unicode="&#x138;" horiz-adv-x="1085" 
d="M219 0v1485h62v-1065l591 604h80l-377 -383l410 -641h-74l-379 596l-251 -252v-344h-62z" />
    <glyph glyph-name="Lacute" unicode="&#x139;" horiz-adv-x="1099" 
d="M240 0v1454h65v-1397h737v-57h-802z" />
    <glyph glyph-name="lacute" unicode="&#x13a;" 
d="M281 1485v-1485h-62v1485h62z" />
    <glyph glyph-name="uni013B" unicode="&#x13b;" horiz-adv-x="1099" 
d="M240 0v1454h65v-1397h737v-57h-802z" />
    <glyph glyph-name="uni013C" unicode="&#x13c;" 
d="M281 1485v-1485h-62v1485h62z" />
    <glyph glyph-name="Lcaron" unicode="&#x13d;" horiz-adv-x="1099" 
d="M240 0v1454h65v-1397h737v-57h-802z" />
    <glyph glyph-name="lcaron" unicode="&#x13e;" 
d="M281 1485v-1485h-62v1485h62z" />
    <glyph glyph-name="Ldot" unicode="&#x13f;" horiz-adv-x="1099" 
d="M240 0v1454h65v-1397h737v-57h-802z" />
    <glyph glyph-name="ldot" unicode="&#x140;" 
d="M281 1485v-1485h-62v1485h62z" />
    <glyph glyph-name="Lslash" unicode="&#x141;" horiz-adv-x="1099" 
d="M240 0v1454h65v-1397h737v-57h-802z" />
    <glyph glyph-name="lslash" unicode="&#x142;" 
d="M281 1485v-1485h-62v1485h62z" />
    <glyph glyph-name="Nacute" unicode="&#x143;" horiz-adv-x="1521" 
d="M240 0v1454h79l826 -1243q23 -34 76 -121h2q-2 63 -2 143v1221h63v-1454h-78l-829 1251q-61 96 -76 123h-2q4 -94 4 -143v-1231h-63z" />
    <glyph glyph-name="nacute" unicode="&#x144;" horiz-adv-x="1202" 
d="M219 0v1024h60v-281q37 148 134 227t242 79q177 0 269 -108t92 -318v-623h-62v623q0 181 -79 276.5t-230 95.5q-164 0 -264 -121.5t-100 -322.5v-551h-62z" />
    <glyph glyph-name="uni0145" unicode="&#x145;" horiz-adv-x="1521" 
d="M240 0v1454h79l826 -1243q23 -34 76 -121h2q-2 63 -2 143v1221h63v-1454h-78l-829 1251q-61 96 -76 123h-2q4 -94 4 -143v-1231h-63z" />
    <glyph glyph-name="uni0146" unicode="&#x146;" horiz-adv-x="1202" 
d="M219 0v1024h60v-281q37 148 134 227t242 79q177 0 269 -108t92 -318v-623h-62v623q0 181 -79 276.5t-230 95.5q-164 0 -264 -121.5t-100 -322.5v-551h-62z" />
    <glyph glyph-name="Ncaron" unicode="&#x147;" horiz-adv-x="1521" 
d="M240 0v1454h79l826 -1243q23 -34 76 -121h2q-2 63 -2 143v1221h63v-1454h-78l-829 1251q-61 96 -76 123h-2q4 -94 4 -143v-1231h-63z" />
    <glyph glyph-name="ncaron" unicode="&#x148;" horiz-adv-x="1202" 
d="M219 0v1024h60v-281q37 148 134 227t242 79q177 0 269 -108t92 -318v-623h-62v623q0 181 -79 276.5t-230 95.5q-164 0 -264 -121.5t-100 -322.5v-551h-62z" />
    <glyph glyph-name="napostrophe" unicode="&#x149;" horiz-adv-x="1202" 
d="M219 0v1024h60v-281q37 148 134 227t242 79q177 0 269 -108t92 -318v-623h-62v623q0 181 -79 276.5t-230 95.5q-164 0 -264 -121.5t-100 -322.5v-551h-62z" />
    <glyph glyph-name="Eng" unicode="&#x14a;" horiz-adv-x="1521" 
d="M240 0v1454h79l826 -1243q23 -34 76 -121h2q-2 63 -2 143v1221h63v-1454h-78l-829 1251q-61 96 -76 123h-2q4 -94 4 -143v-1231h-63z" />
    <glyph glyph-name="eng" unicode="&#x14b;" horiz-adv-x="1202" 
d="M219 0v1024h60v-281q37 148 134 227t242 79q177 0 269 -108t92 -318v-623h-62v623q0 181 -79 276.5t-230 95.5q-164 0 -264 -121.5t-100 -322.5v-551h-62z" />
    <glyph glyph-name="Omacron" unicode="&#x14c;" horiz-adv-x="1519" 
d="M762 -35q-190 0 -334.5 95t-222.5 267.5t-78 399.5q0 348 173 555t462 207q288 0 460.5 -207t172.5 -555q0 -347 -172.5 -554.5t-460.5 -207.5zM195 727q0 -205 68.5 -364.5t198 -249.5t300.5 -90q258 0 410.5 193.5t152.5 510.5q0 209 -68 368.5t-196 248t-299 88.5
q-259 0 -413 -194t-154 -511z" />
    <glyph glyph-name="omacron" unicode="&#x14d;" horiz-adv-x="1132" 
d="M565 -25q-204 0 -325 144t-121 393t121 393t325 144q205 0 327 -144t122 -393t-122 -393t-327 -144zM180 512q0 -224 105 -352.5t280 -128.5q176 0 280.5 128.5t104.5 352.5t-104.5 353.5t-280.5 129.5q-175 0 -280 -129.5t-105 -353.5z" />
    <glyph glyph-name="Obreve" unicode="&#x14e;" horiz-adv-x="1519" 
d="M762 -35q-190 0 -334.5 95t-222.5 267.5t-78 399.5q0 348 173 555t462 207q288 0 460.5 -207t172.5 -555q0 -347 -172.5 -554.5t-460.5 -207.5zM195 727q0 -205 68.5 -364.5t198 -249.5t300.5 -90q258 0 410.5 193.5t152.5 510.5q0 209 -68 368.5t-196 248t-299 88.5
q-259 0 -413 -194t-154 -511z" />
    <glyph glyph-name="obreve" unicode="&#x14f;" horiz-adv-x="1132" 
d="M565 -25q-204 0 -325 144t-121 393t121 393t325 144q205 0 327 -144t122 -393t-122 -393t-327 -144zM180 512q0 -224 105 -352.5t280 -128.5q176 0 280.5 128.5t104.5 352.5t-104.5 353.5t-280.5 129.5q-175 0 -280 -129.5t-105 -353.5z" />
    <glyph glyph-name="Ohungarumlaut" unicode="&#x150;" horiz-adv-x="1519" 
d="M762 -35q-190 0 -334.5 95t-222.5 267.5t-78 399.5q0 348 173 555t462 207q288 0 460.5 -207t172.5 -555q0 -347 -172.5 -554.5t-460.5 -207.5zM195 727q0 -205 68.5 -364.5t198 -249.5t300.5 -90q258 0 410.5 193.5t152.5 510.5q0 209 -68 368.5t-196 248t-299 88.5
q-259 0 -413 -194t-154 -511z" />
    <glyph glyph-name="ohungarumlaut" unicode="&#x151;" horiz-adv-x="1132" 
d="M565 -25q-204 0 -325 144t-121 393t121 393t325 144q205 0 327 -144t122 -393t-122 -393t-327 -144zM180 512q0 -224 105 -352.5t280 -128.5q176 0 280.5 128.5t104.5 352.5t-104.5 353.5t-280.5 129.5q-175 0 -280 -129.5t-105 -353.5z" />
    <glyph glyph-name="OE" unicode="&#x152;" horiz-adv-x="2764" 
d="M762 -35q-190 0 -334.5 95t-222.5 267.5t-78 399.5q0 348 173 555t462 207q288 0 460.5 -207t172.5 -555q0 -347 -172.5 -554.5t-460.5 -207.5zM195 727q0 -205 68.5 -364.5t198 -249.5t300.5 -90q258 0 410.5 193.5t152.5 510.5q0 209 -68 368.5t-196 248t-299 88.5
q-259 0 -413 -194t-154 -511zM1759 0v1454h850v-57h-784v-623h749v-57h-749v-660h798v-57h-864z" />
    <glyph glyph-name="oe" unicode="&#x153;" horiz-adv-x="2220" 
d="M565 -25q-204 0 -325 144t-121 393t121 393t325 144q205 0 327 -144t122 -393t-122 -393t-327 -144zM180 512q0 -224 105 -352.5t280 -128.5q176 0 280.5 128.5t104.5 352.5t-104.5 353.5t-280.5 129.5q-175 0 -280 -129.5t-105 -353.5zM1251 520q0 244 114.5 386.5
t309.5 142.5q202 0 310 -129t108 -373v-33h-780q1 -233 101 -359t280 -124q134 2 222 77t116 211l55 -12q-29 -154 -135 -243t-258 -89q-215 0 -329 140t-114 405zM1313 567h717v2q0 203 -93 315.5t-262 112.5q-161 0 -260 -118t-102 -312z" />
    <glyph glyph-name="Racute" unicode="&#x154;" horiz-adv-x="1343" 
d="M240 0v1454h477q102 0 181 -22.5t128.5 -59t81 -88t43.5 -105.5t12 -116q0 -69 -18 -129.5t-56.5 -115.5t-109 -93.5t-166.5 -52.5l395 -672h-78l-389 664h-436v-664h-65zM305 723h414q97 0 170.5 26.5t118 73.5t66.5 107.5t22 132.5q0 73 -20 132t-62.5 105t-117.5 71.5
t-177 25.5h-414v-674z" />
    <glyph glyph-name="racute" unicode="&#x155;" horiz-adv-x="710" 
d="M279 729q31 149 119.5 234.5t213.5 85.5q18 0 41 -5v-57q-18 4 -37 4q-116 0 -198 -76q-66 -63 -101.5 -158t-35.5 -206v-551h-62v1024h60v-295z" />
    <glyph glyph-name="uni0156" unicode="&#x156;" horiz-adv-x="1343" 
d="M240 0v1454h477q102 0 181 -22.5t128.5 -59t81 -88t43.5 -105.5t12 -116q0 -69 -18 -129.5t-56.5 -115.5t-109 -93.5t-166.5 -52.5l395 -672h-78l-389 664h-436v-664h-65zM305 723h414q97 0 170.5 26.5t118 73.5t66.5 107.5t22 132.5q0 73 -20 132t-62.5 105t-117.5 71.5
t-177 25.5h-414v-674z" />
    <glyph glyph-name="uni0157" unicode="&#x157;" horiz-adv-x="710" 
d="M279 729q31 149 119.5 234.5t213.5 85.5q18 0 41 -5v-57q-18 4 -37 4q-116 0 -198 -76q-66 -63 -101.5 -158t-35.5 -206v-551h-62v1024h60v-295z" />
    <glyph glyph-name="Rcaron" unicode="&#x158;" horiz-adv-x="1343" 
d="M240 0v1454h477q102 0 181 -22.5t128.5 -59t81 -88t43.5 -105.5t12 -116q0 -69 -18 -129.5t-56.5 -115.5t-109 -93.5t-166.5 -52.5l395 -672h-78l-389 664h-436v-664h-65zM305 723h414q97 0 170.5 26.5t118 73.5t66.5 107.5t22 132.5q0 73 -20 132t-62.5 105t-117.5 71.5
t-177 25.5h-414v-674z" />
    <glyph glyph-name="rcaron" unicode="&#x159;" horiz-adv-x="710" 
d="M279 729q31 149 119.5 234.5t213.5 85.5q18 0 41 -5v-57q-18 4 -37 4q-116 0 -198 -76q-66 -63 -101.5 -158t-35.5 -206v-551h-62v1024h60v-295z" />
    <glyph glyph-name="Sacute" unicode="&#x15a;" horiz-adv-x="1310" 
d="M682 -35q-256 0 -398.5 132t-150.5 349l66 5q5 -190 130 -309t359 -119q198 0 310 90.5t112 244.5q0 85 -24 145.5t-73 98t-107.5 58.5t-143.5 36l-223 41q-163 31 -252.5 122t-89.5 235q-3 180 121 287.5t339 107.5q105 0 191 -24.5t153.5 -76t106.5 -138.5t43 -203
l-66 -7q-17 394 -430 394q-185 0 -289.5 -91.5t-101.5 -246.5q0 -118 76.5 -197t232.5 -106l222 -41q69 -12 123.5 -30t104.5 -48.5t83 -71t52.5 -100t19.5 -133.5q0 -196 -137 -300t-359 -104z" />
    <glyph glyph-name="sacute" unicode="&#x15b;" horiz-adv-x="999" 
d="M522 -25q-177 0 -280.5 82.5t-122.5 243.5l61 6q17 -139 105 -208.5t239 -69.5q134 0 209.5 60t75.5 163q0 95 -48 143.5t-161 73.5l-201 43q-247 56 -247 266q0 121 96 196t250 75q341 0 364 -301l-61 -9q-15 137 -90.5 196.5t-214.5 59.5q-125 0 -204 -59.5t-79 -157.5
q0 -165 201 -209l207 -47q132 -30 190.5 -90.5t58.5 -173.5q0 -130 -92.5 -206.5t-255.5 -76.5z" />
    <glyph glyph-name="Scircumflex" unicode="&#x15c;" horiz-adv-x="1310" 
d="M682 -35q-256 0 -398.5 132t-150.5 349l66 5q5 -190 130 -309t359 -119q198 0 310 90.5t112 244.5q0 85 -24 145.5t-73 98t-107.5 58.5t-143.5 36l-223 41q-163 31 -252.5 122t-89.5 235q-3 180 121 287.5t339 107.5q105 0 191 -24.5t153.5 -76t106.5 -138.5t43 -203
l-66 -7q-17 394 -430 394q-185 0 -289.5 -91.5t-101.5 -246.5q0 -118 76.5 -197t232.5 -106l222 -41q69 -12 123.5 -30t104.5 -48.5t83 -71t52.5 -100t19.5 -133.5q0 -196 -137 -300t-359 -104z" />
    <glyph glyph-name="scircumflex" unicode="&#x15d;" horiz-adv-x="999" 
d="M522 -25q-177 0 -280.5 82.5t-122.5 243.5l61 6q17 -139 105 -208.5t239 -69.5q134 0 209.5 60t75.5 163q0 95 -48 143.5t-161 73.5l-201 43q-247 56 -247 266q0 121 96 196t250 75q341 0 364 -301l-61 -9q-15 137 -90.5 196.5t-214.5 59.5q-125 0 -204 -59.5t-79 -157.5
q0 -165 201 -209l207 -47q132 -30 190.5 -90.5t58.5 -173.5q0 -130 -92.5 -206.5t-255.5 -76.5z" />
    <glyph glyph-name="Scedilla" unicode="&#x15e;" horiz-adv-x="1310" 
d="M682 -35q-256 0 -398.5 132t-150.5 349l66 5q5 -190 130 -309t359 -119q198 0 310 90.5t112 244.5q0 85 -24 145.5t-73 98t-107.5 58.5t-143.5 36l-223 41q-163 31 -252.5 122t-89.5 235q-3 180 121 287.5t339 107.5q105 0 191 -24.5t153.5 -76t106.5 -138.5t43 -203
l-66 -7q-17 394 -430 394q-185 0 -289.5 -91.5t-101.5 -246.5q0 -118 76.5 -197t232.5 -106l222 -41q69 -12 123.5 -30t104.5 -48.5t83 -71t52.5 -100t19.5 -133.5q0 -196 -137 -300t-359 -104z" />
    <glyph glyph-name="scedilla" unicode="&#x15f;" horiz-adv-x="999" 
d="M522 -25q-177 0 -280.5 82.5t-122.5 243.5l61 6q17 -139 105 -208.5t239 -69.5q134 0 209.5 60t75.5 163q0 95 -48 143.5t-161 73.5l-201 43q-247 56 -247 266q0 121 96 196t250 75q341 0 364 -301l-61 -9q-15 137 -90.5 196.5t-214.5 59.5q-125 0 -204 -59.5t-79 -157.5
q0 -165 201 -209l207 -47q132 -30 190.5 -90.5t58.5 -173.5q0 -130 -92.5 -206.5t-255.5 -76.5z" />
    <glyph glyph-name="Scaron" unicode="&#x160;" horiz-adv-x="1310" 
d="M682 -35q-256 0 -398.5 132t-150.5 349l66 5q5 -190 130 -309t359 -119q198 0 310 90.5t112 244.5q0 85 -24 145.5t-73 98t-107.5 58.5t-143.5 36l-223 41q-163 31 -252.5 122t-89.5 235q-3 180 121 287.5t339 107.5q105 0 191 -24.5t153.5 -76t106.5 -138.5t43 -203
l-66 -7q-17 394 -430 394q-185 0 -289.5 -91.5t-101.5 -246.5q0 -118 76.5 -197t232.5 -106l222 -41q69 -12 123.5 -30t104.5 -48.5t83 -71t52.5 -100t19.5 -133.5q0 -196 -137 -300t-359 -104z" />
    <glyph glyph-name="scaron" unicode="&#x161;" horiz-adv-x="999" 
d="M522 -25q-177 0 -280.5 82.5t-122.5 243.5l61 6q17 -139 105 -208.5t239 -69.5q134 0 209.5 60t75.5 163q0 95 -48 143.5t-161 73.5l-201 43q-247 56 -247 266q0 121 96 196t250 75q341 0 364 -301l-61 -9q-15 137 -90.5 196.5t-214.5 59.5q-125 0 -204 -59.5t-79 -157.5
q0 -165 201 -209l207 -47q132 -30 190.5 -90.5t58.5 -173.5q0 -130 -92.5 -206.5t-255.5 -76.5z" />
    <glyph glyph-name="uni0162" unicode="&#x162;" horiz-adv-x="1153" 
d="M39 1397v57h1075v-57h-506v-1397h-63v1397h-506z" />
    <glyph glyph-name="uni0163" unicode="&#x163;" horiz-adv-x="692" 
d="M74 971v53h186v279l62 28v-307h282v-53h-282v-742q0 -95 49.5 -142.5t136.5 -47.5q46 0 96 12v-53q-49 -16 -112 -16q-106 0 -169 63t-63 180v746h-186z" />
    <glyph glyph-name="Tcaron" unicode="&#x164;" horiz-adv-x="1153" 
d="M39 1397v57h1075v-57h-506v-1397h-63v1397h-506z" />
    <glyph glyph-name="tcaron" unicode="&#x165;" horiz-adv-x="692" 
d="M74 971v53h186v279l62 28v-307h282v-53h-282v-742q0 -95 49.5 -142.5t136.5 -47.5q46 0 96 12v-53q-49 -16 -112 -16q-106 0 -169 63t-63 180v746h-186z" />
    <glyph glyph-name="Tbar" unicode="&#x166;" horiz-adv-x="1153" 
d="M39 1397v57h1075v-57h-506v-1397h-63v1397h-506z" />
    <glyph glyph-name="tbar" unicode="&#x167;" horiz-adv-x="692" 
d="M74 971v53h186v279l62 28v-307h282v-53h-282v-742q0 -95 49.5 -142.5t136.5 -47.5q46 0 96 12v-53q-49 -16 -112 -16q-106 0 -169 63t-63 180v746h-186z" />
    <glyph glyph-name="Utilde" unicode="&#x168;" horiz-adv-x="1452" 
d="M219 1454h66v-962q0 -218 114.5 -342.5t325.5 -124.5t326.5 124.5t115.5 342.5v962h68v-967q0 -241 -133.5 -381.5t-376.5 -140.5q-242 0 -374 140t-132 382v967z" />
    <glyph glyph-name="utilde" unicode="&#x169;" horiz-adv-x="1191" 
d="M541 -25q-180 0 -266.5 107.5t-86.5 302.5v639h62v-639q0 -80 16.5 -142t44 -102t66 -65.5t80 -36t88.5 -10.5q88 0 159.5 36t115.5 95.5t67.5 133t23.5 152.5v578h62v-1024h-60v258q-40 -128 -137 -205.5t-235 -77.5z" />
    <glyph glyph-name="Umacron" unicode="&#x16a;" horiz-adv-x="1452" 
d="M219 1454h66v-962q0 -218 114.5 -342.5t325.5 -124.5t326.5 124.5t115.5 342.5v962h68v-967q0 -241 -133.5 -381.5t-376.5 -140.5q-242 0 -374 140t-132 382v967z" />
    <glyph glyph-name="umacron" unicode="&#x16b;" horiz-adv-x="1191" 
d="M541 -25q-180 0 -266.5 107.5t-86.5 302.5v639h62v-639q0 -80 16.5 -142t44 -102t66 -65.5t80 -36t88.5 -10.5q88 0 159.5 36t115.5 95.5t67.5 133t23.5 152.5v578h62v-1024h-60v258q-40 -128 -137 -205.5t-235 -77.5z" />
    <glyph glyph-name="Ubreve" unicode="&#x16c;" horiz-adv-x="1452" 
d="M219 1454h66v-962q0 -218 114.5 -342.5t325.5 -124.5t326.5 124.5t115.5 342.5v962h68v-967q0 -241 -133.5 -381.5t-376.5 -140.5q-242 0 -374 140t-132 382v967z" />
    <glyph glyph-name="ubreve" unicode="&#x16d;" horiz-adv-x="1191" 
d="M541 -25q-180 0 -266.5 107.5t-86.5 302.5v639h62v-639q0 -80 16.5 -142t44 -102t66 -65.5t80 -36t88.5 -10.5q88 0 159.5 36t115.5 95.5t67.5 133t23.5 152.5v578h62v-1024h-60v258q-40 -128 -137 -205.5t-235 -77.5z" />
    <glyph glyph-name="Uring" unicode="&#x16e;" horiz-adv-x="1452" 
d="M219 1454h66v-962q0 -218 114.5 -342.5t325.5 -124.5t326.5 124.5t115.5 342.5v962h68v-967q0 -241 -133.5 -381.5t-376.5 -140.5q-242 0 -374 140t-132 382v967z" />
    <glyph glyph-name="uring" unicode="&#x16f;" horiz-adv-x="1191" 
d="M541 -25q-180 0 -266.5 107.5t-86.5 302.5v639h62v-639q0 -80 16.5 -142t44 -102t66 -65.5t80 -36t88.5 -10.5q88 0 159.5 36t115.5 95.5t67.5 133t23.5 152.5v578h62v-1024h-60v258q-40 -128 -137 -205.5t-235 -77.5z" />
    <glyph glyph-name="Uhungarumlaut" unicode="&#x170;" horiz-adv-x="1452" 
d="M219 1454h66v-962q0 -218 114.5 -342.5t325.5 -124.5t326.5 124.5t115.5 342.5v962h68v-967q0 -241 -133.5 -381.5t-376.5 -140.5q-242 0 -374 140t-132 382v967z" />
    <glyph glyph-name="uhungarumlaut" unicode="&#x171;" horiz-adv-x="1191" 
d="M541 -25q-180 0 -266.5 107.5t-86.5 302.5v639h62v-639q0 -80 16.5 -142t44 -102t66 -65.5t80 -36t88.5 -10.5q88 0 159.5 36t115.5 95.5t67.5 133t23.5 152.5v578h62v-1024h-60v258q-40 -128 -137 -205.5t-235 -77.5z" />
    <glyph glyph-name="Uogonek" unicode="&#x172;" horiz-adv-x="1452" 
d="M219 1454h66v-962q0 -218 114.5 -342.5t325.5 -124.5t326.5 124.5t115.5 342.5v962h68v-967q0 -241 -133.5 -381.5t-376.5 -140.5q-242 0 -374 140t-132 382v967z" />
    <glyph glyph-name="uogonek" unicode="&#x173;" horiz-adv-x="1191" 
d="M541 -25q-180 0 -266.5 107.5t-86.5 302.5v639h62v-639q0 -80 16.5 -142t44 -102t66 -65.5t80 -36t88.5 -10.5q88 0 159.5 36t115.5 95.5t67.5 133t23.5 152.5v578h62v-1024h-60v258q-40 -128 -137 -205.5t-235 -77.5z" />
    <glyph glyph-name="Wcircumflex" unicode="&#x174;" horiz-adv-x="1865" 
d="M463 0l-404 1454h72l356 -1317q13 -50 13 -61h4q0 14 12 61l381 1317h72l381 -1317q3 -13 6.5 -28.5t5 -23.5t2.5 -9h2q0 14 12 61l359 1317h69l-401 -1454h-82l-377 1309q-10 41 -12 63h-2q-4 -37 -12 -63l-377 -1309h-80z" />
    <glyph glyph-name="wcircumflex" unicode="&#x175;" horiz-adv-x="1445" 
d="M371 0l-312 1024h62l250 -819q2 -9 13.5 -56t16.5 -75h5q11 65 32 131l258 819h54l258 -819q20 -60 34 -131h5q5 38 30 131l248 819h61l-311 -1024h-61l-260 840q-21 70 -29 110h-2q-10 -39 -31 -110l-258 -840h-63z" />
    <glyph glyph-name="Ycircumflex" unicode="&#x176;" horiz-adv-x="1173" 
d="M553 0v596l-524 858h73l408 -663q51 -85 76 -134h4q23 49 74 134l407 663h74l-524 -858v-596h-68z" />
    <glyph glyph-name="ycircumflex" unicode="&#x177;" horiz-adv-x="915" 
d="M147 -410q-33 0 -77 9v55q33 -8 65 -8q59 0 105 20.5t79 61t55 84.5t44 108l26 76l-415 1028h67l310 -778q28 -69 69 -193h4q16 62 64 195l282 776h62l-400 -1090q-69 -185 -143.5 -264.5t-196.5 -79.5z" />
    <glyph glyph-name="Ydieresis" unicode="&#x178;" horiz-adv-x="1173" 
d="M553 0v596l-524 858h73l408 -663q51 -85 76 -134h4q23 49 74 134l407 663h74l-524 -858v-596h-68z" />
    <glyph glyph-name="Zacute" unicode="&#x179;" horiz-adv-x="1157" 
d="M80 61l907 1336h-872v57h946v-61l-909 -1336h938v-57h-1010v61z" />
    <glyph glyph-name="zacute" unicode="&#x17a;" horiz-adv-x="931" 
d="M98 51l652 920h-623v53h696v-47l-651 -924h674v-53h-748v51z" />
    <glyph glyph-name="Zdotaccent" unicode="&#x17b;" horiz-adv-x="1157" 
d="M80 61l907 1336h-872v57h946v-61l-909 -1336h938v-57h-1010v61z" />
    <glyph glyph-name="zdotaccent" unicode="&#x17c;" horiz-adv-x="931" 
d="M98 51l652 920h-623v53h696v-47l-651 -924h674v-53h-748v51z" />
    <glyph glyph-name="Zcaron" unicode="&#x17d;" horiz-adv-x="1157" 
d="M80 61l907 1336h-872v57h946v-61l-909 -1336h938v-57h-1010v61z" />
    <glyph glyph-name="zcaron" unicode="&#x17e;" horiz-adv-x="931" 
d="M98 51l652 920h-623v53h696v-47l-651 -924h674v-53h-748v51z" />
    <glyph glyph-name="AEacute" unicode="&#x1fc;" horiz-adv-x="2560" 
d="M66 0l559 1454h65l559 -1454h-67l-164 436h-719l-164 -436h-69zM322 496h673l-254 669q-47 123 -82 226h-4q-13 -42 -80 -226zM1554 0v1454h850v-57h-784v-623h750v-57h-750v-660h799v-57h-865z" />
    <glyph glyph-name="aeacute" unicode="&#x1fd;" horiz-adv-x="2181" 
d="M455 -25q-147 0 -237.5 79t-90.5 204q0 122 78 191q91 85 319 112l318 39v16q0 203 -70.5 291t-234.5 88q-143 0 -227 -73.5t-91 -212.5h-63q7 161 109 250.5t272 89.5q193 0 278.5 -99t85.5 -317v-244q0 -227 27 -389h-64q-15 93 -18 256q-45 -136 -144 -208.5
t-247 -72.5zM190 260q0 -105 76.5 -168t202.5 -63q168 0 271.5 118t103.5 299v105l-320 -41q-174 -22 -254 -81t-80 -169zM1210 520q0 244 114.5 386.5t309.5 142.5q202 0 310 -129t108 -373v-33h-780q1 -233 101 -359t280 -124q134 2 222 77t116 211l55 -12
q-29 -154 -135 -243t-258 -89q-215 0 -329 140t-114 405zM1272 567h717v2q0 203 -93 315.5t-262 112.5q-161 0 -260 -118t-102 -312z" />
    <glyph glyph-name="Oslashacute" unicode="&#x1fe;" horiz-adv-x="1519" 
d="M762 -35q-190 0 -334.5 95t-222.5 267.5t-78 399.5q0 348 173 555t462 207q288 0 460.5 -207t172.5 -555q0 -347 -172.5 -554.5t-460.5 -207.5zM195 727q0 -205 68.5 -364.5t198 -249.5t300.5 -90q258 0 410.5 193.5t152.5 510.5q0 209 -68 368.5t-196 248t-299 88.5
q-259 0 -413 -194t-154 -511z" />
    <glyph glyph-name="oslashacute" unicode="&#x1ff;" horiz-adv-x="1132" 
d="M565 -25q-204 0 -325 144t-121 393t121 393t325 144q205 0 327 -144t122 -393t-122 -393t-327 -144zM180 512q0 -224 105 -352.5t280 -128.5q176 0 280.5 128.5t104.5 352.5t-104.5 353.5t-280.5 129.5q-175 0 -280 -129.5t-105 -353.5z" />
    <glyph glyph-name="uni0218" unicode="&#x218;" horiz-adv-x="1310" 
d="M682 -35q-256 0 -398.5 132t-150.5 349l66 5q5 -190 130 -309t359 -119q198 0 310 90.5t112 244.5q0 85 -24 145.5t-73 98t-107.5 58.5t-143.5 36l-223 41q-163 31 -252.5 122t-89.5 235q-3 180 121 287.5t339 107.5q105 0 191 -24.5t153.5 -76t106.5 -138.5t43 -203
l-66 -7q-17 394 -430 394q-185 0 -289.5 -91.5t-101.5 -246.5q0 -118 76.5 -197t232.5 -106l222 -41q69 -12 123.5 -30t104.5 -48.5t83 -71t52.5 -100t19.5 -133.5q0 -196 -137 -300t-359 -104z" />
    <glyph glyph-name="uni0219" unicode="&#x219;" horiz-adv-x="999" 
d="M522 -25q-177 0 -280.5 82.5t-122.5 243.5l61 6q17 -139 105 -208.5t239 -69.5q134 0 209.5 60t75.5 163q0 95 -48 143.5t-161 73.5l-201 43q-247 56 -247 266q0 121 96 196t250 75q341 0 364 -301l-61 -9q-15 137 -90.5 196.5t-214.5 59.5q-125 0 -204 -59.5t-79 -157.5
q0 -165 201 -209l207 -47q132 -30 190.5 -90.5t58.5 -173.5q0 -130 -92.5 -206.5t-255.5 -76.5z" />
    <glyph glyph-name="uni021A" unicode="&#x21a;" horiz-adv-x="1153" 
d="M39 1397v57h1075v-57h-506v-1397h-63v1397h-506z" />
    <glyph glyph-name="uni021B" unicode="&#x21b;" horiz-adv-x="692" 
d="M74 971v53h186v279l62 28v-307h282v-53h-282v-742q0 -95 49.5 -142.5t136.5 -47.5q46 0 96 12v-53q-49 -16 -112 -16q-106 0 -169 63t-63 180v746h-186z" />
    <glyph glyph-name="uni0237" unicode="&#x237;" horiz-adv-x="481" 
d="M35 -414q-67 0 -101 13v53q58 -10 89 -10q82 0 130 46.5t48 143.5v1192h61v-1198q0 -115 -61.5 -177.5t-165.5 -62.5zM199 1192v242h65v-242h-65z" />
    <glyph glyph-name="uni0401" unicode="&#x401;" horiz-adv-x="1245" 
d="M305 57h799v-57h-864v1454h850v-57h-785v-623h750v-57h-750v-660z" />
    <glyph glyph-name="uni0404" unicode="&#x404;" horiz-adv-x="1458" 
d="M758 -35q-129 0 -235 39.5t-178.5 108.5t-122 166t-72.5 210t-23 242q0 227 72.5 396.5t217 265.5t345.5 96q164 0 286.5 -67.5t189.5 -182t85 -266.5l-68 -4q-27 214 -155.5 339.5t-339.5 125.5q-260 0 -409.5 -181t-157.5 -491h747v-60h-747q4 -148 41 -270.5
t106 -214.5t177 -143t245 -51q201 0 330 118.5t168 327.5l65 -6q-22 -107 -63.5 -194t-108.5 -157t-167.5 -108.5t-227.5 -38.5z" />
    <glyph glyph-name="uni0405" unicode="&#x405;" horiz-adv-x="1310" 
d="M682 -35q-256 0 -398.5 132t-150.5 349l66 5q5 -190 130 -309t359 -119q198 0 310 90.5t112 244.5q0 85 -24 145.5t-73 98t-107.5 58.5t-143.5 36l-223 41q-163 31 -252.5 122t-89.5 235q-3 180 121 287.5t339 107.5q105 0 191 -24.5t153.5 -76t106.5 -138.5t43 -203
l-66 -7q-17 394 -430 394q-185 0 -289.5 -91.5t-101.5 -246.5q0 -118 76.5 -197t232.5 -106l222 -41q69 -12 123.5 -30t104.5 -48.5t83 -71t52.5 -100t19.5 -133.5q0 -196 -137 -300t-359 -104z" />
    <glyph glyph-name="uni0406" unicode="&#x406;" horiz-adv-x="544" 
d="M305 0h-65v1454h65v-1454z" />
    <glyph glyph-name="uni0408" unicode="&#x408;" horiz-adv-x="765" 
d="M547 348q0 -85 -19 -150.5t-50 -107t-76 -68t-93.5 -37t-105.5 -10.5q-99 0 -162 23v63q80 -24 160 -24q60 0 106.5 14t87.5 48t63.5 100.5t22.5 162.5v1092h66v-1106z" />
    <glyph glyph-name="uni040F" unicode="&#x40f;" horiz-adv-x="1531" 
d="M1292 0h-495v-311h-64v311h-493v1454h65v-1395h922v1395h65v-1454z" />
    <glyph glyph-name="uni0410" unicode="&#x410;" horiz-adv-x="1314" 
d="M66 0l559 1454h65l559 -1454h-67l-164 436h-719l-164 -436h-69zM322 496h673l-254 669q-47 123 -82 226h-4q-13 -42 -80 -226z" />
    <glyph glyph-name="uni0411" unicode="&#x411;" horiz-adv-x="1298" 
d="M680 59q397 0 397 361q0 165 -99.5 250.5t-297.5 85.5h-375v-697h375zM240 0v1454h813v-59h-748v-582h385q225 0 339 -100.5t114 -292.5q0 -207 -112.5 -313.5t-338.5 -106.5h-452z" />
    <glyph glyph-name="uni0412" unicode="&#x412;" horiz-adv-x="1347" 
d="M240 0v1454h462q105 0 186.5 -21.5t131.5 -56.5t82 -83.5t44.5 -97.5t12.5 -103q0 -64 -15 -117.5t-48 -100.5t-91.5 -78.5t-138.5 -43.5q163 -17 244.5 -114.5t81.5 -246.5q0 -61 -12.5 -115t-45.5 -106t-84 -88.5t-133 -59t-188 -22.5h-489zM305 57h414q407 0 407 334
q0 71 -19.5 127.5t-63 103.5t-122 73t-188.5 26h-428v-664zM305 778h418q91 0 160 20t108 50.5t63.5 73.5t32 81t7.5 82q0 49 -10 91t-37 84t-69.5 71.5t-113 47.5t-162.5 18h-397v-619z" />
    <glyph glyph-name="uni0413" unicode="&#x413;" horiz-adv-x="1077" 
d="M1036 1454v-59h-731v-1395h-65v1454h796z" />
    <glyph glyph-name="uni0414" unicode="&#x414;" horiz-adv-x="1476" 
d="M1235 1454v-1393h166v-368h-64v307h-1253v-307h-64v368h152q64 123 107 261.5t71 361.5q36 281 39 770h846zM242 61h927v1334h-716q-3 -437 -37 -709q-27 -222 -69.5 -363t-104.5 -262z" />
    <glyph glyph-name="uni0415" unicode="&#x415;" horiz-adv-x="1245" 
d="M305 57h799v-57h-864v1454h850v-57h-785v-623h750v-57h-750v-660z" />
    <glyph glyph-name="uni0416" unicode="&#x416;" horiz-adv-x="1832" 
d="M883 0v733h-324l-442 -733h-78l463 768l-453 686h76l428 -661h330v661h67v-661h330l428 661h76l-453 -686l463 -768h-78l-442 733h-324v-733h-67z" />
    <glyph glyph-name="uni0417" unicode="&#x417;" horiz-adv-x="1308" 
d="M645 -31q-240 0 -372 117.5t-140 316.5l66 5q9 -178 123.5 -280.5t324.5 -102.5q219 0 331 92t112 268q0 159 -115 246.5t-336 87.5h-107v55h86q209 0 315.5 86.5t106.5 251.5q0 149 -107 235.5t-290 86.5q-198 0 -307.5 -97.5t-120.5 -277.5l-65 6q12 204 137.5 314
t355.5 110q213 0 337 -101t124 -272q0 -158 -85 -253.5t-253 -112.5q187 -12 287 -109.5t100 -251.5q0 -202 -131 -311t-377 -109z" />
    <glyph glyph-name="uni0418" unicode="&#x418;" horiz-adv-x="1558" 
d="M1319 0h-68v1237q0 96 2 141h-2q-12 -18 -36.5 -58t-40.5 -63l-852 -1257h-82v1454h67v-1229q0 -78 -2 -141h2q9 13 35 55t43 66l848 1249h86v-1454z" />
    <glyph glyph-name="uni0419" unicode="&#x419;" horiz-adv-x="1558" 
d="M1319 0h-68v1237q0 96 2 141h-2q-12 -18 -36.5 -58t-40.5 -63l-852 -1257h-82v1454h67v-1229q0 -78 -2 -141h2q9 13 35 55t43 66l848 1249h86v-1454z" />
    <glyph glyph-name="uni041A" unicode="&#x41a;" horiz-adv-x="1300" 
d="M240 0v1454h65v-661h330l495 661h78l-518 -686l529 -768h-80l-506 733h-328v-733h-65z" />
    <glyph glyph-name="uni041B" unicode="&#x41b;" horiz-adv-x="1492" 
d="M47 4v59q36 -8 76 -8q43 0 76.5 15t59 47.5t44 76.5t32 108.5t22.5 136.5t16 167q20 296 37 848h843v-1454h-65v1397h-719q-17 -517 -37 -797q-9 -129 -22.5 -221t-36 -168.5t-55 -122.5t-79.5 -71t-110 -25q-45 0 -82 12z" />
    <glyph glyph-name="uni041C" unicode="&#x41c;" horiz-adv-x="1769" 
d="M240 0v1454h88l524 -1282q27 -70 31 -90h4q1 7 33 90l522 1282h88v-1454h-64v1257q0 69 7 115h-5q-16 -60 -38 -115l-515 -1257h-61l-514 1257q-25 62 -39 115h-2q4 -39 4 -115v-1257h-63z" />
    <glyph glyph-name="uni041D" unicode="&#x41d;" horiz-adv-x="1540" 
d="M1303 1454v-1454h-68v717h-930v-717h-65v1454h65v-680h930v680h68z" />
    <glyph glyph-name="uni041E" unicode="&#x41e;" horiz-adv-x="1519" 
d="M762 -35q-190 0 -334.5 95t-222.5 267.5t-78 399.5q0 348 173 555t462 207q288 0 460.5 -207t172.5 -555q0 -347 -172.5 -554.5t-460.5 -207.5zM195 727q0 -205 68.5 -364.5t198 -249.5t300.5 -90q258 0 410.5 193.5t152.5 510.5q0 209 -68 368.5t-196 248t-299 88.5
q-259 0 -413 -194t-154 -511z" />
    <glyph glyph-name="uni041F" unicode="&#x41f;" horiz-adv-x="1531" 
d="M1292 1454v-1454h-65v1395h-922v-1395h-65v1454h1052z" />
    <glyph glyph-name="uni0420" unicode="&#x420;" horiz-adv-x="1241" 
d="M305 0h-65v1454h477q207 0 326.5 -102t119.5 -277q0 -192 -119.5 -302.5t-326.5 -110.5h-412v-662zM305 721h420q169 0 269 95.5t100 258.5q0 149 -100 235.5t-269 86.5h-420v-676z" />
    <glyph glyph-name="uni0421" unicode="&#x421;" horiz-adv-x="1458" 
d="M758 -35q-129 0 -235 39.5t-178.5 108.5t-122 166t-72.5 210t-23 242q0 227 72.5 396.5t217 265.5t345.5 96q164 0 286.5 -67.5t189.5 -182t85 -266.5l-68 -4q-27 214 -155.5 338.5t-339.5 124.5q-175 0 -303.5 -87.5t-195 -245t-66.5 -366.5q0 -153 35.5 -281t104 -224
t178 -149.5t249.5 -53.5q200 0 329.5 118t168.5 326l65 -6q-22 -107 -63.5 -194t-108.5 -157t-167.5 -108.5t-227.5 -38.5z" />
    <glyph glyph-name="uni0422" unicode="&#x422;" horiz-adv-x="1153" 
d="M39 1397v57h1075v-57h-506v-1397h-63v1397h-506z" />
    <glyph glyph-name="uni0423" unicode="&#x423;" horiz-adv-x="1247" 
d="M608 330l-569 1124h72l467 -917q46 -86 63 -148h2q17 51 64 148l434 917h67l-534 -1126q-25 -54 -39 -82.5t-39 -73t-43.5 -68t-46.5 -53.5t-55.5 -44.5t-63.5 -25t-76 -10.5q-59 0 -96 11v61q44 -10 92 -10q97 0 158.5 61t130.5 211z" />
    <glyph glyph-name="uni0424" unicode="&#x424;" horiz-adv-x="1650" 
d="M856 1522v-154q313 -5 490.5 -171t177.5 -460q0 -292 -175 -459.5t-493 -168.5v-164h-63v164q-322 1 -494 168.5t-172 459.5q0 294 176.5 461t489.5 170v154h63zM190 737q0 -272 154 -420t451 -149v1139h-2v2q-291 -3 -447 -153.5t-156 -418.5zM856 168
q295 1 448.5 149.5t153.5 419.5q0 268 -155.5 418t-446.5 154v-1141z" />
    <glyph glyph-name="uni0425" unicode="&#x425;" horiz-adv-x="1222" 
d="M39 0l532 758l-489 696h78l391 -553q44 -63 61 -100h4q14 31 64 98l387 555h76l-490 -702l531 -752h-80l-408 580q-52 71 -84 129h-4q-31 -55 -84 -129l-407 -580h-78z" />
    <glyph glyph-name="uni0426" unicode="&#x426;" horiz-adv-x="1533" 
d="M240 0v1454h65v-1395h922v1395h65v-1395h166v-366h-63v307h-1155z" />
    <glyph glyph-name="uni0427" unicode="&#x427;" horiz-adv-x="1286" 
d="M1049 1454v-1454h-68v672q-206 -78 -410 -78q-226 0 -329 113t-103 344v403h68v-389q0 -213 86 -311.5t280 -98.5q208 0 408 76v723h68z" />
    <glyph glyph-name="uni0428" unicode="&#x428;" horiz-adv-x="2064" 
d="M1757 1454h68v-1454h-1585v1454h63v-1393h696v1393h66v-1393h692v1393z" />
    <glyph glyph-name="uni0429" unicode="&#x429;" horiz-adv-x="2066" 
d="M1757 1454h68v-1397h168v-370h-64v313h-1689v1454h63v-1393h696v1393h66v-1393h692v1393z" />
    <glyph glyph-name="uni042A" unicode="&#x42a;" horiz-adv-x="1497" 
d="M39 1454h502v-641h385q223 0 337.5 -101.5t114.5 -291.5q0 -205 -113 -312.5t-339 -107.5h-451v1393h-436v61zM541 59h372q400 0 400 361q0 164 -100.5 249t-299.5 85h-372v-695z" />
    <glyph glyph-name="uni042B" unicode="&#x42b;" horiz-adv-x="1693" 
d="M678 59q399 0 399 361q0 164 -100 249t-299 85h-373v-695h373zM240 0v1454h65v-641h385q223 0 338 -101.5t115 -291.5q0 -205 -113.5 -312.5t-339.5 -107.5h-450zM1389 0v1454h65v-1454h-65z" />
    <glyph glyph-name="uni042C" unicode="&#x42c;" horiz-adv-x="1261" 
d="M678 59q399 0 399 361q0 164 -100 249t-299 85h-373v-695h373zM240 0v1454h65v-641h385q223 0 338 -101.5t115 -291.5q0 -205 -113.5 -312.5t-339.5 -107.5h-450z" />
    <glyph glyph-name="uni042D" unicode="&#x42d;" horiz-adv-x="1458" 
d="M739 -35q-114 0 -208 26t-160 70.5t-115 109t-78 136.5t-45 158l68 4q39 -214 173 -330t361 -116q166 0 287 91.5t181 246t63 354.5h-754v59h754q-9 305 -150 482.5t-395 177.5q-221 0 -352.5 -124.5t-163.5 -340.5l-68 4q16 114 59.5 207t115 162.5t175.5 108t232 38.5
q152 0 269.5 -55t192.5 -156t113.5 -239t38.5 -308q0 -161 -36.5 -298t-107.5 -242.5t-186.5 -165.5t-263.5 -60z" />
    <glyph glyph-name="uni042E" unicode="&#x42e;" horiz-adv-x="2086" 
d="M1313 -35q-296 0 -471.5 208.5t-175.5 553.5h-361v-727h-65v1454h65v-670h363q14 325 187 515t458 190q297 0 472 -206.5t175 -555.5q0 -348 -175 -555t-472 -207zM733 727q0 -206 69 -365t201.5 -249t309.5 -90q178 0 310 88.5t200.5 247t68.5 368.5q0 319 -155.5 512
t-423.5 193q-267 0 -423.5 -193.5t-156.5 -511.5z" />
    <glyph glyph-name="uni042F" unicode="&#x42f;" horiz-adv-x="1343" 
d="M1104 0h-66v664h-409h-25l-391 -664h-78l393 670q-78 10 -139 36t-99.5 62t-64 84.5t-35.5 99.5t-10 109q0 61 12.5 114.5t44 105.5t80.5 89.5t128.5 60.5t181.5 23h477v-1454zM248 1061q0 -156 89.5 -247t287.5 -91h413v674h-413q-102 0 -177 -27t-117.5 -75t-62.5 -106
t-20 -128z" />
    <glyph glyph-name="uni0430" unicode="&#x430;" horiz-adv-x="1093" 
d="M455 -25q-147 0 -237.5 79t-90.5 204q0 122 78 191q91 85 319 112l318 39v16q0 203 -70.5 291t-234.5 88q-143 0 -227 -73.5t-91 -212.5h-63q7 161 109 250.5t272 89.5q193 0 278.5 -99t85.5 -317v-244q0 -227 27 -389h-64q-15 93 -18 256q-45 -136 -144 -208.5
t-247 -72.5zM190 260q0 -105 76.5 -168t202.5 -63q168 0 271.5 118t103.5 299v105l-320 -41q-174 -22 -254 -81t-80 -169z" />
    <glyph glyph-name="uni0431" unicode="&#x431;" horiz-adv-x="1101" 
d="M573 1026q197 0 304.5 -131.5t107.5 -378.5q0 -258 -113.5 -399.5t-312.5 -141.5q-224 0 -333.5 162t-106.5 518q0 136 10.5 233.5t36 180.5t70.5 137t112.5 90.5t163.5 53.5l170 30q119 22 151 44.5t35 86.5h50q-2 -86 -41.5 -123t-159.5 -57l-193 -35
q-84 -14 -144.5 -46t-98.5 -76t-61 -109.5t-32 -136t-10 -166.5v-82q19 94 59.5 163t95 108t114 57t126.5 18zM190 500q0 -208 95.5 -337.5t273.5 -129.5q172 0 266.5 123.5t94.5 357.5q0 220 -91 337.5t-272 117.5q-172 0 -269.5 -122.5t-97.5 -346.5z" />
    <glyph glyph-name="uni0432" unicode="&#x432;" horiz-adv-x="1103" 
d="M219 0v1024h416q336 0 336 -258q0 -103 -59 -167t-160 -75q119 -8 190.5 -69.5t71.5 -175.5q0 -279 -357 -279h-438zM281 55h374q139 0 218 54.5t79 171.5q0 213 -305 213h-366v-439zM281 545h346q282 0 282 219q0 205 -276 205h-352v-424z" />
    <glyph glyph-name="uni0433" unicode="&#x433;" horiz-adv-x="866" 
d="M809 965h-528v-965h-62v1024h590v-59z" />
    <glyph glyph-name="uni0434" unicode="&#x434;" horiz-adv-x="1181" 
d="M104 -287h-59v346h139q92 188 117 406q25 201 25 559h628v-965h162v-346h-59v287h-953v-287zM246 59h647v906h-510q-3 -316 -27 -500q-27 -222 -110 -406z" />
    <glyph glyph-name="uni0435" unicode="&#x435;" horiz-adv-x="1089" 
d="M561 -25q-215 0 -328.5 140t-113.5 405q0 244 114.5 386.5t309.5 142.5q202 0 310 -129t108 -373v-33h-781q1 -233 101 -359t280 -124q134 2 222 77t116 211l55 -12q-29 -154 -135 -243t-258 -89zM180 567h717v2q0 203 -93 315.5t-261 112.5q-161 0 -260.5 -118
t-102.5 -312z" />
    <glyph glyph-name="uni0436" unicode="&#x436;" horiz-adv-x="1581" 
d="M762 0v496h-270l-363 -496h-72l392 535l-359 489h70l342 -475h260v475h59v-475h260l340 475h72l-358 -489l391 -535h-74l-360 496h-271v-496h-59z" />
    <glyph glyph-name="uni0437" unicode="&#x437;" horiz-adv-x="983" 
d="M512 -25q-183 0 -282.5 83t-110.5 231l61 4q11 -124 94 -194t240 -70q146 0 230.5 63.5t84.5 188.5q0 122 -73.5 172.5t-223.5 50.5h-122v53h108q134 0 206.5 57.5t72.5 163.5q0 107 -74.5 162t-210.5 55q-295 0 -322 -260l-61 4q18 159 118.5 234.5t266.5 75.5
q161 0 252.5 -68.5t91.5 -196.5q0 -105 -65 -171t-179 -78q135 -9 207 -69.5t72 -184.5q0 -146 -102.5 -226t-278.5 -80z" />
    <glyph glyph-name="uni0438" unicode="&#x438;" horiz-adv-x="1230" 
d="M219 0v1024h60v-776v-185h2q4 6 46.5 72.5t65.5 100.5l535 788h84v-1024h-60v782v179h-2q-92 -142 -112 -170l-535 -791h-84z" />
    <glyph glyph-name="uni0439" unicode="&#x439;" horiz-adv-x="1230" 
d="M219 0v1024h60v-776v-185h2q4 6 46.5 72.5t65.5 100.5l535 788h84v-1024h-60v782v179h-2q-92 -142 -112 -170l-535 -791h-84z" />
    <glyph glyph-name="uni043A" unicode="&#x43a;" horiz-adv-x="1083" 
d="M219 0v1024h62v-475h258l342 475h69l-358 -489l391 -535h-72l-362 496h-268v-496h-62z" />
    <glyph glyph-name="uni043B" unicode="&#x43b;" horiz-adv-x="1161" 
d="M41 -4v53q32 -4 51 -4q82 0 119 73.5t49 246.5q28 419 39 659h643v-1024h-61v965h-529q-13 -304 -35 -607q-6 -92 -18 -155t-36 -113.5t-65 -75t-100 -24.5q-30 0 -57 6z" />
    <glyph glyph-name="uni043C" unicode="&#x43c;" horiz-adv-x="1531" 
d="M1096 631l-305 -631h-64l-301 639q-45 95 -145 313h-2v-319v-633h-60v1024h92l391 -846q10 -20 27.5 -57t30.5 -62q40 81 59 119l402 846h92v-1024h-60v666v288q-139 -284 -157 -323z" />
    <glyph glyph-name="uni043D" unicode="&#x43d;" horiz-adv-x="1204" 
d="M281 1024v-477h643v477h61v-1024h-61v494h-643v-494h-62v1024h62z" />
    <glyph glyph-name="uni043E" unicode="&#x43e;" horiz-adv-x="1132" 
d="M565 -25q-204 0 -325 144t-121 393t121 393t325 144q205 0 327 -144t122 -393t-122 -393t-327 -144zM180 512q0 -224 105 -352.5t280 -128.5q176 0 280.5 128.5t104.5 352.5t-104.5 353.5t-280.5 129.5q-175 0 -280 -129.5t-105 -353.5z" />
    <glyph glyph-name="uni043F" unicode="&#x43f;" horiz-adv-x="1200" 
d="M219 0v1024h764v-1024h-61v965h-641v-965h-62z" />
    <glyph glyph-name="uni0440" unicode="&#x440;" horiz-adv-x="1212" 
d="M219 -399v1423h60v-291q40 147 144.5 231.5t252.5 84.5q193 0 305.5 -149.5t112.5 -389.5q0 -239 -117 -387t-311 -148q-140 0 -245 81t-140 220v-675h-62zM279 496q0 -127 43 -231.5t130.5 -169t204.5 -64.5q170 0 271.5 130.5t101.5 348.5q0 221 -95 352t-265 131
q-121 0 -212 -67.5t-135 -171t-44 -224.5v-34z" />
    <glyph glyph-name="uni0441" unicode="&#x441;" horiz-adv-x="1077" 
d="M559 -25q-207 0 -323.5 142t-116.5 395t117 395t323 142q167 0 273.5 -97.5t123.5 -267.5l-61 -2q-20 151 -108 232t-232 81q-177 0 -276 -127.5t-99 -353.5q0 -227 101 -355t280 -128q140 0 229 81.5t109 227.5l59 -4q-26 -172 -130.5 -266.5t-268.5 -94.5z" />
    <glyph glyph-name="uni0442" unicode="&#x442;" horiz-adv-x="974" 
d="M57 965v59h858v-59h-397v-965h-61v965h-400z" />
    <glyph glyph-name="uni0443" unicode="&#x443;" horiz-adv-x="915" 
d="M147 -410q-33 0 -77 9v55q33 -8 65 -8q59 0 105 20.5t79 61t55 84.5t44 108l26 76l-415 1028h67l310 -778q28 -69 69 -193h4q16 62 64 195l282 776h62l-400 -1090q-69 -185 -143.5 -264.5t-196.5 -79.5z" />
    <glyph glyph-name="uni0444" unicode="&#x444;" horiz-adv-x="1693" 
d="M817 1485h60v-643q32 100 115.5 153.5t185.5 53.5q86 0 153.5 -27.5t113 -75.5t75 -117t42.5 -147t13 -170q0 -537 -391 -537q-107 0 -188.5 51.5t-118.5 149.5v-577h-60v577q-37 -98 -118.5 -149.5t-188.5 -51.5q-391 0 -391 537q0 92 13 170t42.5 147t75 117t113 75.5
t153.5 27.5q102 0 185.5 -53.5t115.5 -153.5v643zM180 512q0 -485 334 -485q78 0 137.5 27t95 74t53 104t17.5 122v303q0 149 -77.5 244.5t-217.5 95.5q-163 0 -252.5 -119.5t-89.5 -365.5zM877 354q0 -65 17.5 -122t53 -104t95 -74t137.5 -27q333 0 333 485
q0 246 -89.5 365.5t-252.5 119.5q-140 0 -217 -95.5t-77 -244.5v-303z" />
    <glyph glyph-name="uni0445" unicode="&#x445;" horiz-adv-x="962" 
d="M57 0l387 539l-360 485h72l231 -311q14 -19 46.5 -64.5t49.5 -70.5h2q53 81 97 137l225 309h74l-359 -492l385 -532h-73l-265 371q-44 59 -86 125h-2q-69 -107 -90 -134l-262 -362h-72z" />
    <glyph glyph-name="uni0446" unicode="&#x446;" horiz-adv-x="1204" 
d="M219 0v1024h62v-965h637v965h61v-965h160v-346h-60v287h-860z" />
    <glyph glyph-name="uni0447" unicode="&#x447;" horiz-adv-x="1060" 
d="M180 748q0 -146 64 -213.5t231 -67.5q172 0 305 68v487h62v-1022h-62v479q-135 -69 -313 -69q-181 0 -264.5 77t-83.5 254v285h61v-278z" />
    <glyph glyph-name="uni0448" unicode="&#x448;" horiz-adv-x="1671" 
d="M1393 1024h61v-1024h-1235v1024h62v-965h526v965h61v-965h525v965z" />
    <glyph glyph-name="uni0449" unicode="&#x449;" horiz-adv-x="1679" 
d="M1393 1024h61v-965h160v-346h-60v287h-1335v1024h62v-965h526v965h61v-965h525v965z" />
    <glyph glyph-name="uni044A" unicode="&#x44a;" horiz-adv-x="1236" 
d="M57 965v59h414v-412h334q153 0 243.5 -77.5t90.5 -221.5q0 -151 -83 -232t-251 -81h-395v965h-353zM471 53h334q272 0 272 256q0 131 -77.5 191.5t-196.5 60.5h-332v-508z" />
    <glyph glyph-name="uni044B" unicode="&#x44b;" horiz-adv-x="1046" 
d="M948 313q0 -151 -83 -232t-251 -81h-395v1024h62v-412h333q153 0 243.5 -77.5t90.5 -221.5zM281 53h333q273 0 273 256q0 68 -22.5 118.5t-62 78.5t-87 41.5t-103.5 13.5h-331v-508z" />
    <glyph glyph-name="uni044C" unicode="&#x44c;" horiz-adv-x="1046" 
d="M948 313q0 -151 -83 -232t-251 -81h-395v1024h62v-412h333q153 0 243.5 -77.5t90.5 -221.5zM281 53h333q273 0 273 256q0 68 -22.5 118.5t-62 78.5t-87 41.5t-103.5 13.5h-331v-508z" />
    <glyph glyph-name="uni044D" unicode="&#x44d;" horiz-adv-x="1081" 
d="M532 -25q-173 0 -280.5 92t-132.5 261l59 4q20 -146 112 -224.5t242 -78.5q354 0 369 467h-500v53h500q-3 217 -95.5 332.5t-264.5 115.5q-151 0 -242 -78.5t-119 -228.5l-59 2q25 169 134.5 263t279.5 94q207 0 317.5 -136t110.5 -381q0 -273 -109 -415t-322 -142z" />
    <glyph glyph-name="uni044E" unicode="&#x44e;" horiz-adv-x="1558" 
d="M993 -25q-201 0 -321.5 138.5t-124.5 380.5h-266v-494h-62v1024h62v-477h266q9 233 129.5 367.5t316.5 134.5q205 0 327 -144t122 -393t-122 -393t-327 -144zM217 1192v242h66v-242h-66zM608 512q0 -224 105 -352.5t280 -128.5t280 128.5t105 352.5t-105 353.5
t-280 129.5t-280 -129.5t-105 -353.5z" />
    <glyph glyph-name="uni044F" unicode="&#x44f;" horiz-adv-x="1097" 
d="M137 721q0 144 92 223.5t256 79.5h394v-1024h-62v414h-332h-2l-282 -414h-72l287 418q-132 15 -205.5 92.5t-73.5 210.5zM201 725q0 -260 299 -260h317v506h-317q-83 0 -143 -19.5t-93 -55t-48 -77.5t-15 -94z" />
    <glyph glyph-name="uni0451" unicode="&#x451;" horiz-adv-x="1089" 
d="M561 -25q-215 0 -328.5 140t-113.5 405q0 244 114.5 386.5t309.5 142.5q202 0 310 -129t108 -373v-33h-781q1 -233 101 -359t280 -124q134 2 222 77t116 211l55 -12q-29 -154 -135 -243t-258 -89zM180 567h717v2q0 203 -93 315.5t-261 112.5q-161 0 -260.5 -118
t-102.5 -312z" />
    <glyph glyph-name="uni0454" unicode="&#x454;" horiz-adv-x="1073" 
d="M672 549v-53h-492q5 -220 103.5 -343.5t275.5 -123.5q137 0 225.5 79t110.5 224l59 -4q-25 -165 -129 -259t-266 -94q-211 0 -325.5 141t-114.5 396q0 253 114.5 395t325.5 142q164 0 270 -96t123 -259l-61 -4q-22 149 -108.5 227t-231.5 78q-169 0 -266 -118t-105 -328
h492z" />
    <glyph glyph-name="uni0455" unicode="&#x455;" horiz-adv-x="999" 
d="M522 -25q-177 0 -280.5 82.5t-122.5 243.5l61 6q17 -139 105 -208.5t239 -69.5q134 0 209.5 60t75.5 163q0 95 -48 143.5t-161 73.5l-201 43q-247 56 -247 266q0 121 96 196t250 75q341 0 364 -301l-61 -9q-15 137 -90.5 196.5t-214.5 59.5q-125 0 -204 -59.5t-79 -157.5
q0 -165 201 -209l207 -47q132 -30 190.5 -90.5t58.5 -173.5q0 -130 -92.5 -206.5t-255.5 -76.5z" />
    <glyph glyph-name="uni0458" unicode="&#x458;" horiz-adv-x="481" 
d="M35 -414q-67 0 -101 13v53q58 -10 89 -10q82 0 130 46.5t48 143.5v1192h61v-1198q0 -115 -61.5 -177.5t-165.5 -62.5zM199 1192v242h65v-242h-65z" />
    <glyph glyph-name="Wgrave" unicode="&#x1e80;" horiz-adv-x="1865" 
d="M463 0l-404 1454h72l356 -1317q13 -50 13 -61h4q0 14 12 61l381 1317h72l381 -1317q3 -13 6.5 -28.5t5 -23.5t2.5 -9h2q0 14 12 61l359 1317h69l-401 -1454h-82l-377 1309q-10 41 -12 63h-2q-4 -37 -12 -63l-377 -1309h-80z" />
    <glyph glyph-name="wgrave" unicode="&#x1e81;" horiz-adv-x="1445" 
d="M371 0l-312 1024h62l250 -819q2 -9 13.5 -56t16.5 -75h5q11 65 32 131l258 819h54l258 -819q20 -60 34 -131h5q5 38 30 131l248 819h61l-311 -1024h-61l-260 840q-21 70 -29 110h-2q-10 -39 -31 -110l-258 -840h-63z" />
    <glyph glyph-name="Wacute" unicode="&#x1e82;" horiz-adv-x="1865" 
d="M463 0l-404 1454h72l356 -1317q13 -50 13 -61h4q0 14 12 61l381 1317h72l381 -1317q3 -13 6.5 -28.5t5 -23.5t2.5 -9h2q0 14 12 61l359 1317h69l-401 -1454h-82l-377 1309q-10 41 -12 63h-2q-4 -37 -12 -63l-377 -1309h-80z" />
    <glyph glyph-name="wacute" unicode="&#x1e83;" horiz-adv-x="1445" 
d="M371 0l-312 1024h62l250 -819q2 -9 13.5 -56t16.5 -75h5q11 65 32 131l258 819h54l258 -819q20 -60 34 -131h5q5 38 30 131l248 819h61l-311 -1024h-61l-260 840q-21 70 -29 110h-2q-10 -39 -31 -110l-258 -840h-63z" />
    <glyph glyph-name="Wdieresis" unicode="&#x1e84;" horiz-adv-x="1865" 
d="M463 0l-404 1454h72l356 -1317q13 -50 13 -61h4q0 14 12 61l381 1317h72l381 -1317q3 -13 6.5 -28.5t5 -23.5t2.5 -9h2q0 14 12 61l359 1317h69l-401 -1454h-82l-377 1309q-10 41 -12 63h-2q-4 -37 -12 -63l-377 -1309h-80z" />
    <glyph glyph-name="wdieresis" unicode="&#x1e85;" horiz-adv-x="1445" 
d="M371 0l-312 1024h62l250 -819q2 -9 13.5 -56t16.5 -75h5q11 65 32 131l258 819h54l258 -819q20 -60 34 -131h5q5 38 30 131l248 819h61l-311 -1024h-61l-260 840q-21 70 -29 110h-2q-10 -39 -31 -110l-258 -840h-63z" />
    <glyph glyph-name="Ygrave" unicode="&#x1ef2;" horiz-adv-x="1173" 
d="M553 0v596l-524 858h73l408 -663q51 -85 76 -134h4q23 49 74 134l407 663h74l-524 -858v-596h-68z" />
    <glyph glyph-name="ygrave" unicode="&#x1ef3;" horiz-adv-x="915" 
d="M147 -410q-33 0 -77 9v55q33 -8 65 -8q59 0 105 20.5t79 61t55 84.5t44 108l26 76l-415 1028h67l310 -778q28 -69 69 -193h4q16 62 64 195l282 776h62l-400 -1090q-69 -185 -143.5 -264.5t-196.5 -79.5z" />
    </font>
</defs>
</svg>
