<?xml version="1.0" standalone="no"?>
<!DOCTYPE svg PUBLIC "-//W3C//DTD SVG 1.1//EN" "http://www.w3.org/Graphics/SVG/1.1/DTD/svg11.dtd" >
<svg xmlns="http://www.w3.org/2000/svg" xmlns:xlink="http://www.w3.org/1999/xlink" version="1.1">
<metadata>
Created by FontForge 20201107 at Mon Mar 17 08:31:30 2025
 By 
Copyright (c) 2018 by Piotr apa. All rights reserved.
</metadata>
<defs>
<font id="Manier-Thin-Trial" horiz-adv-x="493" >
  <font-face 
    font-family="Manier Thin-Trial"
    font-weight="100"
    font-stretch="normal"
    units-per-em="2048"
    panose-1="0 0 2 0 0 0 0 0 0 0"
    ascent="1577"
    descent="-471"
    x-height="1008"
    cap-height="1434"
    bbox="-51 -471 2105 1577"
    underline-thickness="102"
    underline-position="-204"
    unicode-range="U+0020-007A"
  />
<missing-glyph horiz-adv-x="1024" 
d="M190 1577h650v-2048h-650v2048zM682 1372v68h-338v-68h133v-76h-135v-67h340v67h-135v76h135zM547 1032v144h-205v-213h340v69h-135zM410 1106h67v-74h-67v74zM682 840v67h-340v-67h135v-76h-135v-68h205v144h135zM682 580v204h-68v-135h-272v-69h340zM682 303v232h-205
v-115h70v47h67v-96h-204v164h-68v-232h340zM682 -51v231h-340v-231h340zM410 113h204v-97h-204v97zM682 -166v68h-340v-68h143l-143 -96v-68h340v68h-209l143 96h66z" />
    <glyph glyph-name=".notdef" horiz-adv-x="1024" 
d="M190 1577h650v-2048h-650v2048zM682 1372v68h-338v-68h133v-76h-135v-67h340v67h-135v76h135zM547 1032v144h-205v-213h340v69h-135zM410 1106h67v-74h-67v74zM682 840v67h-340v-67h135v-76h-135v-68h205v144h135zM682 580v204h-68v-135h-272v-69h340zM682 303v232h-205
v-115h70v47h67v-96h-204v164h-68v-232h340zM682 -51v231h-340v-231h340zM410 113h204v-97h-204v97zM682 -166v68h-340v-68h143l-143 -96v-68h340v68h-209l143 96h66z" />
    <glyph glyph-name=".null" horiz-adv-x="0" 
 />
    <glyph glyph-name="nonmarkingreturn" horiz-adv-x="682" 
 />
    <glyph glyph-name="space" unicode=" " horiz-adv-x="552" 
 />
    <glyph glyph-name="exclam" unicode="!" horiz-adv-x="571" 
d="M217 1423v11h133v-11l-47 -995h-39zM281 -23l-105 105v12l105 105h10l106 -105v-12l-106 -105h-10z" />
    <glyph glyph-name="ampersand" unicode="&#x26;" horiz-adv-x="1527" 
d="M1133 354l358 -344l-4 -10h-127l-281 268q-184 -295 -495 -295q-200 0 -327.5 120.5t-127.5 289.5q0 152 104.5 263.5t282.5 162.5q-168 162 -168 328q0 138 111 229.5t278 91.5q142 0 307 -61l-4 -269h-10l-133 244q-78 47 -176 47q-122 0 -197 -75.5t-75 -196.5
q0 -73 33.5 -137.5t113.5 -141.5l494 -473q72 121 118 312l-129 100v10h391v-10l-215 -100q-54 -214 -122 -353zM608 43q115 0 227 64.5t207 197.5l-497 475q-145 -50 -221 -158.5t-76 -230.5q0 -142 103 -245t257 -103z" />
    <glyph glyph-name="comma" unicode="," 
d="M174 106l-41 37v11l86 84h10l64 -56q72 -63 72 -157q0 -174 -238 -287l-14 24q86 56 120.5 100t34.5 95q0 32 -13.5 59t-27.5 41t-53 49z" />
    <glyph glyph-name="hyphen" unicode="-" horiz-adv-x="983" 
d="M150 532v43h684v-43h-684z" />
    <glyph glyph-name="period" unicode="." 
d="M242 -23l-107 105v12l107 105h10l104 -105v-12l-104 -105h-10z" />
    <glyph glyph-name="zero" unicode="0" horiz-adv-x="1226" 
d="M612 -25q-153 0 -271.5 97t-181.5 265.5t-63 379.5t63 379t181.5 265t271.5 97q154 0 273 -97t182 -265t63 -379t-63 -379.5t-182 -265.5t-273 -97zM612 18q125 0 216.5 90.5t137.5 247.5t46 361t-46 361t-137.5 247t-216.5 90q-123 0 -214.5 -91t-138 -248t-46.5 -359
t46.5 -359.5t138 -248.5t214.5 -91z" />
    <glyph glyph-name="one" unicode="1" horiz-adv-x="651" 
d="M41 1309v16l332 123h16v-1360l229 -72v-16h-565v16l232 72v1215z" />
    <glyph glyph-name="two" unicode="2" horiz-adv-x="1173" 
d="M1053 -8l-971 8l4 51q12 163 122.5 298t334.5 280q71 45 120 80t98 79.5t77.5 86t46.5 93.5t18 109q0 153 -104.5 245.5t-259.5 92.5q-137 0 -244 -69l-139 -279h-15l2 297q234 94 424 94q200 0 325.5 -97.5t125.5 -258.5q0 -84 -35.5 -162t-104.5 -149t-143 -128
t-178 -124q-197 -120 -301 -226t-125 -227l778 -6l176 246h17z" />
    <glyph glyph-name="three" unicode="3" horiz-adv-x="1165" 
d="M143 1077l4 287q204 94 412 94q192 0 308 -81.5t116 -217.5q0 -219 -338 -321l2 -13q176 -3 299 -117t123 -290q0 -192 -144 -317.5t-374 -125.5q-199 0 -422 97l-27 293h17l178 -283q104 -64 242 -64q182 0 296.5 111t114.5 279q0 161 -104.5 266.5t-257.5 105.5
q-117 0 -205 -57l-16 55q262 66 382.5 157t120.5 212t-88.5 194.5t-240.5 73.5q-135 0 -240 -57l-141 -281h-17z" />
    <glyph glyph-name="four" unicode="4" horiz-adv-x="1114" 
d="M1083 469v-43h-235v-338l205 -72v-16h-529v16l219 72v338h-725v41l635 967h123v-17q-39 -62 -76.5 -120.5t-79 -119t-71.5 -105t-76.5 -108.5t-70 -97t-75.5 -103t-70 -94t-77 -102.5t-74 -98.5h637v367h105v-367h235z" />
    <glyph glyph-name="five" unicode="5" horiz-adv-x="1191" 
d="M600 922q219 0 356.5 -130.5t137.5 -334.5q0 -213 -146.5 -347.5t-386.5 -134.5q-188 0 -422 97l-26 293h16l184 -285q103 -62 238 -62q189 0 308.5 119t119.5 303q0 177 -111 291.5t-295 114.5q-230 0 -397 -182l-22 10l59 760h707l92 28h10l-29 -116h-739l-49 -592
q171 168 395 168z" />
    <glyph glyph-name="six" unicode="6" horiz-adv-x="1234" 
d="M672 903q207 0 342 -123t135 -313q0 -141 -69 -254.5t-184 -175.5t-251 -62q-240 0 -394.5 186.5t-154.5 495.5q0 170 48 318.5t133.5 254.5t208.5 167t266 61q146 0 309 -82l2 -286h-14l-140 276q-88 49 -190 49q-146 0 -264 -102.5t-185 -286.5t-67 -414v-6
q61 138 187.5 217.5t281.5 79.5zM657 18q154 0 264.5 122t110.5 309q0 171 -106.5 274.5t-274.5 103.5q-139 0 -255 -73.5t-191 -210.5q20 -229 148 -377t304 -148z" />
    <glyph glyph-name="seven" unicode="7" horiz-adv-x="1085" 
d="M78 1118h-17l2 316h969v-19q0 -53 -14 -74l-629 -1341h-123v16q268 560 705 1330h-776z" />
    <glyph glyph-name="eight" unicode="8" horiz-adv-x="1222" 
d="M727 795l98 -45q308 -139 308 -359q0 -191 -146.5 -305.5t-378.5 -114.5q-145 0 -260.5 45.5t-183.5 133.5t-68 204q0 310 414 432l-78 37q-124 57 -189 134.5t-65 187.5q0 141 125.5 230t312.5 89q193 0 315 -87.5t122 -241.5q0 -125 -90.5 -210.5t-235.5 -129.5z
M287 1165q0 -91 46.5 -150.5t168.5 -115.5l186 -86q248 110 248 315q0 134 -93 215.5t-235 81.5t-231.5 -75t-89.5 -185zM616 10q183 0 292.5 97.5t109.5 252.5q0 194 -250 306l-215 100q-158 -55 -246 -161.5t-88 -235.5q0 -157 108.5 -258t288.5 -101z" />
    <glyph glyph-name="nine" unicode="9" horiz-adv-x="1204" 
d="M571 1458q244 0 391.5 -202t147.5 -531q0 -225 -68.5 -394.5t-201.5 -264.5t-314 -95q-144 0 -336 72l-26 293h10l184 -281q76 -45 177 -45q214 0 337 195.5t123 519.5q0 91 -8 154q-52 -149 -172 -230.5t-262 -81.5q-194 0 -330.5 125.5t-136.5 315.5q0 195 138 322.5
t347 127.5zM555 633q138 0 248 75.5t176 233.5q-34 224 -142 349.5t-274 125.5q-165 0 -266.5 -112.5t-101.5 -290.5t97 -279.5t263 -101.5z" />
    <glyph glyph-name="colon" unicode=":" 
d="M242 698l-107 105v10l107 105h10l104 -105v-10l-104 -105h-10zM242 -23l-107 105v12l107 105h10l104 -105v-12l-104 -105h-10z" />
    <glyph glyph-name="question" unicode="?" horiz-adv-x="960" 
d="M104 1092l-22 311q165 59 342 59q205 0 323.5 -98t118.5 -242q0 -56 -18 -109.5t-53.5 -100.5t-69.5 -84t-86.5 -77t-82 -60t-76.5 -51q-12 -8 -17 -11l-41 -209h-29l-74 194v11q202 103 319.5 228.5t117.5 266.5q0 130 -95 216.5t-241 86.5q-118 0 -201 -47l-104 -284
h-11zM391 -23l-106 105v12l106 105h10l105 -105v-12l-105 -105h-10z" />
    <glyph glyph-name="A" unicode="A" horiz-adv-x="1400" 
d="M700 1434l576 -1344l170 -76v-14h-475v14l192 74l-190 447h-611l-178 -429l232 -92v-14h-451v14l172 97l502 1204l-53 104v15h114zM664 1260l-283 -680h573z" />
    <glyph glyph-name="B" unicode="B" horiz-adv-x="1433" 
d="M948 768v-10q54 -4 107 -19.5t101.5 -45t85.5 -69t59 -94.5t22 -118q0 -199 -143 -305.5t-414 -106.5h-690v14l192 74v1258l-192 73v15h704q206 0 334.5 -93t128.5 -247q0 -138 -86 -225t-209 -101zM745 1391h-370v-615h375q176 0 278 79.5t102 234.5q0 145 -105 223
t-280 78zM375 43h336q242 0 367.5 90t125.5 262q0 116 -59.5 193t-160 111t-239.5 34h-370v-690z" />
    <glyph glyph-name="C" unicode="C" horiz-adv-x="1456" 
d="M1313 1067h-15l-137 287q-153 65 -297 65q-97 0 -188 -26t-172.5 -81.5t-141.5 -135t-95 -194t-34 -251.5q0 -167 51 -305t137 -226.5t198 -137t237 -48.5q145 0 293 72l186 330h15l-50 -359q-258 -86 -454 -86q-121 0 -230 29t-202.5 89.5t-162 147t-107 208
t-38.5 266.5q0 144 42 266.5t115.5 210.5t172 150.5t211.5 93t234 30.5q173 0 432 -71v-324z" />
    <glyph glyph-name="D" unicode="D" horiz-adv-x="1570" 
d="M659 0h-583v14l192 74v1258l-192 73v15h641q163 0 299.5 -46t235.5 -132.5t154.5 -218.5t55.5 -296q0 -350 -213 -545.5t-590 -195.5zM375 1391v-1348h307q313 0 483 174t170 506q0 159 -49.5 287t-137.5 210.5t-207.5 126.5t-260.5 44h-305z" />
    <glyph glyph-name="E" unicode="E" horiz-adv-x="1384" 
d="M1083 43l179 317h14l-41 -360h-1159v14l192 74v1258l-192 73v15h1138v-326h-16l-135 283h-688v-617h368l146 94h14v-233h-14l-146 96h-368v-688h708z" />
    <glyph glyph-name="F" unicode="F" horiz-adv-x="1267" 
d="M76 1419v15h1118v-320h-16l-136 277h-667v-656h399l146 96h14v-233h-14l-146 94h-399v-604l205 -74v-14h-504v14l192 74v1258z" />
    <glyph glyph-name="G" unicode="G" horiz-adv-x="1540" 
d="M106 721q0 171 62.5 312t170.5 234t252 144t308 51q111 0 210.5 -20t225.5 -60v-323h-14l-133 284q-159 76 -324 76q-126 0 -239 -43.5t-201 -126.5t-139.5 -214.5t-51.5 -295.5q0 -139 33.5 -257.5t93 -203.5t140 -145t175.5 -89.5t199 -29.5q183 0 357 101v438h-402v45
h676v-16l-170 -72v-440q-149 -49 -260 -74t-225 -25q-158 0 -295 53.5t-236 149.5t-156 237.5t-57 309.5z" />
    <glyph glyph-name="H" unicode="H" horiz-adv-x="1667" 
d="M1591 1434v-15l-192 -73v-1258l192 -74v-14h-491v14l192 74v631h-917v-631l192 -74v-14h-491v14l192 74v1258l-192 73v15h491v-15l-192 -73v-582h917v582l-192 73v15h491z" />
    <glyph glyph-name="I" unicode="I" horiz-adv-x="643" 
d="M567 0h-491v14l192 74v1258l-192 73v15h491v-15l-192 -73v-1258l192 -74v-14z" />
    <glyph glyph-name="J" unicode="J" horiz-adv-x="1189" 
d="M117 49l-39 357h14l172 -330q141 -62 250 -62q165 0 253.5 105t88.5 284v943l-205 73v15h506v-15l-192 -73v-955q0 -199 -122 -309.5t-339 -110.5q-91 0 -177 19t-210 59z" />
    <glyph glyph-name="K" unicode="K" horiz-adv-x="1458" 
d="M700 846l584 -756l170 -76v-14h-510v14l207 76l-524 684l-252 -248v-438l192 -74v-14h-491v14l192 74v1258l-192 73v15h491v-15l-192 -73v-756l760 749l-172 80v15h426v-15l-205 -96z" />
    <glyph glyph-name="L" unicode="L" horiz-adv-x="1296" 
d="M1184 0h-1108v14l192 74v1258l-192 73v15h491v-15l-192 -73v-1303h641l201 340h14z" />
    <glyph glyph-name="M" unicode="M" horiz-adv-x="1839" 
d="M1763 1434v-15l-192 -78v-1253l192 -74v-14h-491v14l190 74v1233l-547 -1047h-14l-586 1039v-1204l240 -95v-14h-475v14l188 95v1232l-188 78v15h285l575 -1024l530 1024h293z" />
    <glyph glyph-name="N" unicode="N" horiz-adv-x="1585" 
d="M1053 1419v15h479v-15l-189 -92v-1327h-61l-971 1333v-1224l244 -95v-14h-479v14l188 95v1232l-188 78v15h293l927 -1280v1173z" />
    <glyph glyph-name="O" unicode="O" horiz-adv-x="1654" 
d="M827 -29q-325 0 -523 204.5t-198 541.5q0 338 197.5 541.5t523.5 203.5t523.5 -203.5t197.5 -541.5q0 -337 -198 -541.5t-523 -204.5zM827 14q118 0 224 45.5t189.5 131t133 221.5t49.5 305t-49.5 305.5t-133 221.5t-189.5 130t-224 45t-224 -45t-189.5 -130t-133 -221.5
t-49.5 -305.5t49.5 -305t133 -221.5t189.5 -131t224 -45.5z" />
    <glyph glyph-name="P" unicode="P" horiz-adv-x="1376" 
d="M76 1434h688q256 0 396 -113t140 -313q0 -204 -149 -327.5t-387 -123.5h-389v-469l205 -74v-14h-504v14l192 74v1258l-192 73v15zM375 602h346q204 0 330.5 103t126.5 301q0 187 -123.5 286t-325.5 99h-354v-789z" />
    <glyph glyph-name="Q" unicode="Q" horiz-adv-x="1654" 
d="M905 -25v-12l694 -207v-16l-137 -68l-698 301q-298 20 -478 222.5t-180 521.5q0 338 197.5 541.5t523.5 203.5t523.5 -203.5t197.5 -541.5q0 -316 -174.5 -516.5t-468.5 -225.5zM231 717q0 -169 49.5 -305t133 -221.5t189.5 -131t224 -45.5t224 45.5t189.5 131t133 221.5
t49.5 305t-49.5 305.5t-133 221.5t-189.5 130t-224 45t-224 -45t-189.5 -130t-133 -221.5t-49.5 -305.5z" />
    <glyph glyph-name="R" unicode="R" horiz-adv-x="1449" 
d="M961 567l321 -477l94 -70v-20h-159l-443 657h-399v-569l192 -74v-14h-491v14l192 74v1258l-192 73v15h694q222 0 350.5 -100.5t128.5 -276.5q0 -117 -60.5 -205.5t-154 -133t-205.5 -48.5v-13q63 -53 132 -90zM375 702h370q179 0 284.5 89t105.5 256t-114 255.5
t-292 88.5h-354v-689z" />
    <glyph glyph-name="S" unicode="S" horiz-adv-x="1210" 
d="M129 63l-25 363h15l157 -328q153 -84 314 -84q181 0 296 94.5t115 245.5q0 101 -59.5 172.5t-191.5 124.5l-324 137q-142 59 -210.5 139.5t-68.5 190.5q0 155 131 249.5t353 94.5q165 0 411 -71v-297h-14l-129 256q-138 69 -295 69q-162 0 -258 -73.5t-96 -196.5
q0 -166 194 -246l342 -143q178 -74 254 -159t76 -206q0 -187 -147.5 -305.5t-395.5 -118.5q-182 0 -444 92z" />
    <glyph glyph-name="T" unicode="T" horiz-adv-x="1388" 
d="M90 1081h-14v353h1239v-353h-17l-141 310h-407l-2 -1303l213 -74v-14h-533v14l213 74v1303h-410z" />
    <glyph glyph-name="U" unicode="U" horiz-adv-x="1570" 
d="M246 1346l-193 73v15h492v-15l-193 -73v-834q0 -203 124 -337t343 -134q146 0 253.5 63.5t160.5 169t53 238.5l2 813l-246 94v15h482v-15l-189 -94l-2 -813q0 -250 -140.5 -395.5t-404.5 -145.5q-267 0 -404.5 144.5t-137.5 396.5v834z" />
    <glyph glyph-name="V" unicode="V" horiz-adv-x="1419" 
d="M995 1419v15h453v-15l-160 -96l-547 -1323h-45l-555 1343l-170 76v15h471v-15l-190 -73l498 -1211l489 1194z" />
    <glyph glyph-name="W" unicode="W" horiz-adv-x="2076" 
d="M1657 1419v15h448v-15l-159 -96l-465 -1323h-56l-368 1047l-379 -1047h-53l-484 1343l-170 76v15h471v-15l-192 -73l430 -1207l352 975l-86 242l-137 63v15h430v-15l-184 -69l426 -1211l420 1188z" />
    <glyph glyph-name="X" unicode="X" horiz-adv-x="1509" 
d="M807 750l496 -658l190 -78v-14h-479v14l160 74l-459 610l-455 -596l223 -88v-14h-444v14l170 95l477 626l-457 608l-186 76v15h471v-15l-158 -71l424 -562l420 549l-221 84v15h442v-15l-168 -90z" />
    <glyph glyph-name="Y" unicode="Y" horiz-adv-x="1308" 
d="M887 1419v15h450v-15l-159 -96l-459 -758v-477l213 -74v-14h-533v14l211 74v375h-4l4 6v90l-469 784l-170 76v15h484v-15l-191 -73l432 -734l434 723z" />
    <glyph glyph-name="Z" unicode="Z" horiz-adv-x="1286" 
d="M1026 43l186 338h15l-49 -381h-1117v43l1002 1348h-770l-141 -297h-17v340h1063v-43l-999 -1348h827z" />
    <glyph glyph-name="a" unicode="a" horiz-adv-x="1120" 
d="M924 727v-641l176 -76v-10h-264l-9 184v13q-71 -104 -170 -163t-208 -59q-46 0 -90 7.5t-89.5 28t-79.5 51t-55.5 80.5t-21.5 114q0 114 87.5 186.5t229.5 104.5q145 35 397 86v59q0 149 -61 225t-203 76q-98 0 -225 -57l-127 -254h-10v293q248 57 364 57
q186 0 272.5 -83.5t86.5 -221.5zM475 35q187 0 352 209v352q-240 -59 -389 -98q-211 -58 -211 -230q0 -110 68.5 -171.5t179.5 -61.5z" />
    <glyph glyph-name="b" unicode="b" horiz-adv-x="1193" 
d="M633 1032q87 0 168.5 -33t148.5 -95t107.5 -163t40.5 -225q0 -123 -45 -227t-119 -171.5t-166.5 -105t-189.5 -37.5q-231 0 -396 105v1268l-194 75v11h291v-572q136 170 354 170zM565 14q187 0 304.5 131t117.5 363q0 217 -110.5 339t-286.5 122q-188 0 -311 -152v-692
q118 -111 286 -111z" />
    <glyph glyph-name="c" unicode="c" horiz-adv-x="1067" 
d="M934 676h-10l-140 266q-84 51 -182 51q-169 0 -285 -130t-116 -353q0 -112 33 -203t88.5 -149t127 -89.5t150.5 -31.5q222 0 356 215l33 -19q-121 -253 -393 -258q-219 -3 -361.5 144.5t-142.5 384.5q0 160 72 281.5t191.5 184t265.5 62.5q156 0 313 -55v-301z" />
    <glyph glyph-name="d" unicode="d" horiz-adv-x="1214" 
d="M1008 1434v-1348l176 -76v-10h-264l-9 164q-134 -187 -354 -187q-88 0 -170 33t-148.5 95.5t-106.5 164t-40 226.5q0 123 42.5 226t112.5 170.5t159 104.5t184 37q192 0 321 -162v476l-192 75v11h289zM594 31q195 0 317 180v614q-120 158 -301 158t-294 -125t-113 -354
q0 -221 110 -347t281 -126z" />
    <glyph glyph-name="e" unicode="e" horiz-adv-x="1103" 
d="M979 262l33 -18q-125 -269 -422 -269q-218 0 -357 140.5t-139 369.5q0 160 67 286t179.5 193.5t249.5 67.5q195 0 305.5 -118.5t110.5 -309.5v-69h-807v-31q0 -108 32.5 -197.5t88.5 -147t129.5 -89t156.5 -31.5q237 0 373 223zM578 993q-152 0 -255 -117t-120 -303h684
v43q0 177 -84 277t-225 100z" />
    <glyph glyph-name="f" unicode="f" horiz-adv-x="614" 
d="M545 1458q104 0 254 -39v-258h-11l-139 240q-49 18 -100 18q-106 0 -164.5 -65t-58.5 -195v-151h374v-39h-374v-887l213 -72v-10h-486v10l174 72v887h-188v39h188v98q0 95 26 165t72 109.5t100.5 58.5t119.5 19z" />
    <glyph glyph-name="g" unicode="g" horiz-adv-x="1073" 
d="M1053 1042h10v-120h-223q102 -96 102 -240q0 -158 -120 -256t-300 -98q-99 0 -190 32q-99 -50 -99 -122q0 -45 29 -70.5t98 -32.5l426 -51q137 -16 207 -69t70 -156q0 -123 -128 -198t-310 -75h-211q-162 -2 -272.5 60t-110.5 174q0 93 66.5 155.5t174.5 94.5
q-79 18 -112 52t-33 89q0 105 166 168q-90 45 -140.5 123.5t-50.5 179.5q0 158 119.5 254t300.5 96q170 0 289 -86zM522 369q128 0 216.5 81t88.5 232q0 103 -44 175t-111.5 104t-149.5 32q-130 0 -217.5 -79.5t-87.5 -231.5q0 -151 88 -232t217 -81zM958 -172q0 75 -46 118
t-130 54l-440 57q-108 -34 -154.5 -88.5t-46.5 -130.5q0 -100 92 -156.5t252 -56.5h140q82 0 156.5 22t125.5 69.5t51 111.5z" />
    <glyph glyph-name="h" unicode="h" horiz-adv-x="1245" 
d="M1049 707v-625l176 -72v-10h-449v10l176 72v602q0 134 -65 209.5t-193 75.5q-226 0 -381 -183v-704l174 -72v-10h-446v10l174 72v1266l-192 75v11h290v-603q79 92 181.5 146.5t222.5 54.5q162 0 247 -84.5t85 -240.5z" />
    <glyph glyph-name="i" unicode="i" horiz-adv-x="532" 
d="M256 1227l-96 96v10l96 99h10l99 -99v-10l-99 -96h-10zM229 922l-194 75v11h291v-926l176 -72v-10h-449v10l176 72v840z" />
    <glyph glyph-name="j" unicode="j" horiz-adv-x="483" 
d="M236 1227l-97 96v10l97 99h10l96 -99v-10l-96 -96h-10zM-51 -408v39q29 -2 59 -2q32 0 58 7.5t53.5 29.5t46.5 58t31 98.5t12 146.5v953l-195 75v11h291v-1004q0 -418 -272 -418q-43 0 -84 6z" />
    <glyph glyph-name="k" unicode="k" horiz-adv-x="1107" 
d="M541 625l389 -539l184 -76v-10h-242l-401 563l-158 -133v-348l174 -72v-10h-446v10l174 72v1266l-192 75v11h290v-949l500 426l-111 86v11h338v-11l-176 -96z" />
    <glyph glyph-name="l" unicode="l" horiz-adv-x="520" 
d="M215 1348l-192 75v11h290v-1352l174 -72v-10h-446v10l174 72v1266z" />
    <glyph glyph-name="m" unicode="m" horiz-adv-x="1947" 
d="M1751 735v-653l176 -72v-10h-448v10l176 72v618q0 124 -70.5 195.5t-210.5 71.5q-192 0 -342 -181q6 -30 6 -61v-643l176 -72v-10h-448v10l176 72v610q0 131 -68 203t-204 72q-202 0 -344 -191v-694l176 -72v-10h-449v10l176 72v840l-194 75v11h282l9 -183
q150 207 356 207q135 0 222 -58t118 -151q67 95 162 152t207 57q176 0 268 -77.5t92 -219.5z" />
    <glyph glyph-name="n" unicode="n" horiz-adv-x="1259" 
d="M1063 707v-625l176 -72v-10h-448v10l174 72v602q0 134 -64.5 209.5t-191.5 75.5q-226 0 -383 -185v-702l176 -72v-10h-449v10l176 72v840l-194 75v11h282l9 -179q76 93 179.5 148t225.5 55q162 0 247 -84.5t85 -240.5z" />
    <glyph glyph-name="o" unicode="o" horiz-adv-x="1200" 
d="M600 -25q-224 0 -367 142.5t-143 388.5q0 163 67 283.5t181.5 181.5t261.5 61t261.5 -61t181.5 -181.5t67 -283.5q0 -246 -143 -388.5t-367 -142.5zM600 14q79 0 149 30.5t125.5 89t88 154.5t32.5 218q0 121 -32.5 216t-88 153t-125.5 88t-149 30t-149 -30t-125.5 -88
t-88 -153t-32.5 -216q0 -122 32.5 -218t88 -154.5t125.5 -89t149 -30.5z" />
    <glyph glyph-name="p" unicode="p" horiz-adv-x="1216" 
d="M655 1032q88 0 170 -33t148.5 -95t106.5 -163t40 -225q0 -123 -42 -227t-112 -171.5t-159 -105t-184 -37.5q-193 0 -322 162v-444l213 -72v-10h-485v10l176 72v1229l-195 75v11h283l8 -162q130 186 354 186zM602 29q181 0 294.5 124.5t113.5 352.5q0 221 -110.5 348
t-281.5 127q-196 0 -317 -182v-615q121 -155 301 -155z" />
    <glyph glyph-name="q" unicode="q" horiz-adv-x="1169" 
d="M1008 928v-1235l176 -72v-10h-486v10l213 72v452q-136 -170 -354 -170q-87 0 -168.5 33t-148.5 95.5t-107.5 163.5t-40.5 225q0 123 45 227t119 171t166.5 104.5t189.5 37.5q239 0 396 -104zM600 41q190 0 311 149v693q-117 110 -286 110q-187 0 -304.5 -130t-117.5 -363
q0 -217 110.5 -338t286.5 -121z" />
    <glyph glyph-name="r" unicode="r" horiz-adv-x="837" 
d="M678 1030q65 0 117 -12v-275h-11l-133 228q-97 4 -181.5 -64t-143.5 -196v-629l213 -72v-10h-486v10l176 72v840l-194 75v11h282l9 -185v-32q69 125 153 182t199 57z" />
    <glyph glyph-name="s" unicode="s" horiz-adv-x="960" 
d="M829 702h-10l-129 242q-97 51 -211 51q-112 0 -182 -51.5t-70 -136.5q0 -67 47 -108.5t170 -84.5l162 -59q134 -49 204.5 -113.5t70.5 -160.5q0 -95 -55.5 -166t-145 -105.5t-197.5 -34.5q-169 0 -354 68l-18 315h10l158 -288q101 -58 210 -58q132 0 213.5 66.5
t81.5 173.5q0 82 -48.5 126t-166.5 87l-176 63q-124 46 -189 107.5t-65 150.5q0 113 96.5 179.5t245.5 66.5q198 0 348 -57v-273z" />
    <glyph glyph-name="t" unicode="t" horiz-adv-x="700" 
d="M694 1008v-39h-389v-721q0 -209 154 -209q122 0 203 129l32 -16q-85 -177 -252 -177q-104 0 -169.5 61t-65.5 171v762h-182v35l174 38l94 222h12v-256h389z" />
    <glyph glyph-name="u" unicode="u" horiz-adv-x="1241" 
d="M1034 1008v-922l176 -76v-10h-264l-8 180q-73 -94 -174.5 -149.5t-220.5 -55.5q-168 0 -256 85t-88 243v619l-193 75v11h291v-680q0 -136 67 -213.5t197 -77.5q220 0 377 190v695l-193 75v11h289z" />
    <glyph glyph-name="v" unicode="v" horiz-adv-x="1042" 
d="M705 997v11h366v-11l-131 -100l-379 -897h-59l-389 918l-144 79v11h426v-11l-176 -75l340 -805l334 788z" />
    <glyph glyph-name="w" unicode="w" horiz-adv-x="1632" 
d="M1294 997v11h367v-11l-131 -100l-344 -897h-76l-281 702l-276 -702h-76l-364 918l-144 79v11h424v-11l-176 -75l324 -824l264 668l-68 170l-108 61v11h368v-11l-153 -65l330 -834l309 807z" />
    <glyph glyph-name="x" unicode="x" horiz-adv-x="1077" 
d="M584 537l336 -457l151 -70v-10h-428v10l152 76l-281 381l-283 -365l152 -92v-10h-371v10l172 109l301 385l-305 414l-151 79v11h422v-11l-152 -75l256 -349l256 330l-149 94v11h368v-11l-172 -106z" />
    <glyph glyph-name="y" unicode="y" horiz-adv-x="1052" 
d="M717 997v11h364v-11l-131 -106l-458 -1098q-51 -120 -94 -163.5t-111 -43.5q-46 0 -86 17v112h10l113 -8q33 0 70 28.5t59 80.5l69 166l-409 936l-144 79v11h426v-11l-176 -75l354 -816l334 799z" />
    <glyph glyph-name="z" unicode="z" horiz-adv-x="995" 
d="M907 0h-829v39l698 930h-524l-123 -283h-12l-2 322h784v-39l-700 -930h565l135 313h12z" />
    </font>
</defs>
</svg>
