<?xml version="1.0" standalone="no"?>
<!DOCTYPE svg PUBLIC "-//W3C//DTD SVG 1.1//EN" "http://www.w3.org/Graphics/SVG/1.1/DTD/svg11.dtd" >
<svg xmlns="http://www.w3.org/2000/svg" xmlns:xlink="http://www.w3.org/1999/xlink" version="1.1">
<metadata>
Created by FontForge 20201107 at Mon Mar 17 08:31:31 2025
 By 
Copyright (c) 2018 by Piotr apa. All rights reserved.
</metadata>
<defs>
<font id="Manier-Medium-Trial" horiz-adv-x="563" >
  <font-face 
    font-family="Manier Medium-Trial"
    font-weight="500"
    font-stretch="normal"
    units-per-em="2048"
    panose-1="0 0 6 0 0 0 0 0 0 0"
    ascent="1577"
    descent="-471"
    x-height="1030"
    cap-height="1434"
    bbox="-45 -471 2159 1577"
    underline-thickness="102"
    underline-position="-204"
    unicode-range="U+0020-007A"
  />
<missing-glyph horiz-adv-x="1024" 
d="M190 1577h650v-2048h-650v2048zM682 1372v68h-338v-68h133v-76h-135v-67h340v67h-135v76h135zM547 1032v144h-205v-213h340v69h-135zM410 1106h67v-74h-67v74zM682 840v67h-340v-67h135v-76h-135v-68h205v144h135zM682 580v204h-68v-135h-272v-69h340zM682 303v232h-205
v-115h70v47h67v-96h-204v164h-68v-232h340zM682 -51v231h-340v-231h340zM410 113h204v-97h-204v97zM682 -166v68h-340v-68h143l-143 -96v-68h340v68h-209l143 96h66z" />
    <glyph glyph-name=".notdef" horiz-adv-x="1024" 
d="M190 1577h650v-2048h-650v2048zM682 1372v68h-338v-68h133v-76h-135v-67h340v67h-135v76h135zM547 1032v144h-205v-213h340v69h-135zM410 1106h67v-74h-67v74zM682 840v67h-340v-67h135v-76h-135v-68h205v144h135zM682 580v204h-68v-135h-272v-69h340zM682 303v232h-205
v-115h70v47h67v-96h-204v164h-68v-232h340zM682 -51v231h-340v-231h340zM410 113h204v-97h-204v97zM682 -166v68h-340v-68h143l-143 -96v-68h340v68h-209l143 96h66z" />
    <glyph glyph-name=".null" horiz-adv-x="0" 
 />
    <glyph glyph-name="nonmarkingreturn" horiz-adv-x="682" 
 />
    <glyph glyph-name="space" unicode=" " horiz-adv-x="518" 
 />
    <glyph glyph-name="exclam" unicode="!" horiz-adv-x="636" 
d="M158 1417v17h321v-17l-139 -942h-45zM311 -31l-164 164v17l164 161h17l161 -161v-17l-161 -164h-17z" />
    <glyph glyph-name="ampersand" unicode="&#x26;" horiz-adv-x="1587" 
d="M1198 406l379 -390l-2 -16h-332l-192 197q-182 -224 -469 -224q-211 0 -342 113.5t-131 288.5q0 146 99 256.5t265 161.5q-147 167 -147 329q0 151 118.5 243.5t317.5 92.5q174 0 348 -59l-4 -361h-16l-238 351q-41 24 -100 24q-80 0 -131.5 -57t-51.5 -154
q0 -78 38.5 -152.5t123.5 -164.5l428 -439q60 120 88 232l-135 131v16h428v-16l-244 -139q-41 -147 -98 -264zM698 76q175 0 316 160l-494 507q-77 -53 -118.5 -136.5t-41.5 -178.5q0 -153 98.5 -252.5t239.5 -99.5z" />
    <glyph glyph-name="comma" unicode="," 
d="M168 115l-57 51v16l153 148h17l77 -70q95 -83 95 -190q0 -205 -334 -346l-19 30q96 58 132 104t36 97q0 41 -21 74t-79 86z" />
    <glyph glyph-name="hyphen" unicode="-" horiz-adv-x="983" 
d="M129 541v49h727v-49h-727z" />
    <glyph glyph-name="period" unicode="." 
d="M274 -31l-163 164v17l163 161h17l162 -161v-17l-162 -164h-17z" />
    <glyph glyph-name="zero" unicode="0" horiz-adv-x="1327" 
d="M664 -27q-272 0 -427 198.5t-155 545.5t155 545t427 198t426.5 -198t154.5 -545t-155 -545.5t-426 -198.5zM664 20q144 0 215 171t71 526q0 356 -71 527t-215 171q-287 0 -287 -698q0 -697 287 -697z" />
    <glyph glyph-name="one" unicode="1" horiz-adv-x="749" 
d="M41 1262v18l461 190h18v-1357l203 -95v-18h-676v18l203 95v1124z" />
    <glyph glyph-name="two" unicode="2" horiz-adv-x="1202" 
d="M1083 -4l-1017 4l4 84q9 144 108.5 280t310.5 304q169 138 240 242.5t72 222.5q0 128 -68 205t-178 77q-81 0 -149 -37l-244 -370h-19l-8 381q226 71 449 71q234 0 368.5 -94t134.5 -270q0 -74 -28 -141.5t-72 -119.5t-113.5 -104t-136 -89.5t-155.5 -80.5
q-165 -83 -270 -164.5t-152 -175.5l803 -4l153 193h19z" />
    <glyph glyph-name="three" unicode="3" horiz-adv-x="1228" 
d="M150 1018l-11 375q225 67 445 67q225 0 354 -81t129 -220q0 -127 -109 -211.5t-321 -122.5l2 -14q139 6 253 -36.5t184.5 -135t70.5 -219.5q0 -204 -154 -325.5t-418 -121.5q-216 0 -446 72l-35 381h19l288 -373q67 -33 148 -33q130 0 217.5 100.5t87.5 274.5
q0 168 -93.5 265.5t-234.5 97.5q-76 0 -151 -35l-17 47q216 58 322 149t106 242q0 119 -65 186.5t-170 67.5q-76 0 -152 -29l-231 -368h-18z" />
    <glyph glyph-name="four" unicode="4" horiz-adv-x="1212" 
d="M1182 471v-47h-219v-311l194 -95v-18h-661v18l198 95v311h-667v45l551 965h370v-19q-317 -397 -825 -944h571v322h269v-322h219z" />
    <glyph glyph-name="five" unicode="5" horiz-adv-x="1216" 
d="M618 909q231 0 376 -117.5t145 -328.5q0 -223 -156 -356.5t-424 -133.5q-196 0 -422 70l-33 383h19l280 -375q67 -31 140 -31q136 0 219.5 109t83.5 291q0 187 -100 288t-269 101q-182 0 -315 -115l-21 11l49 729h758l109 28h16l-33 -243h-811l-32 -439q177 129 421 129z
" />
    <glyph glyph-name="six" unicode="6" horiz-adv-x="1296" 
d="M762 879q200 0 331.5 -109t131.5 -303q0 -218 -154 -356t-401 -138q-268 0 -428 190.5t-160 522.5q0 183 51 330.5t141 244t211 148t263 51.5q188 0 380 -63l-6 -375h-18l-246 367q-53 26 -119 26q-75 0 -139.5 -44t-114.5 -129.5t-81 -222t-35 -310.5q143 170 393 170z
M674 20q115 0 189.5 108t74.5 300q0 173 -78.5 266.5t-210.5 93.5q-161 0 -280 -145q1 -310 84.5 -466.5t220.5 -156.5z" />
    <glyph glyph-name="seven" unicode="7" horiz-adv-x="1124" 
d="M78 1034h-19l-2 400h1020v-31q0 -98 -37 -195l-477 -1208h-336v18q253 465 766 1201h-800z" />
    <glyph glyph-name="eight" unicode="8" horiz-adv-x="1284" 
d="M823 831l72 -34q160 -77 236.5 -169t76.5 -212q0 -208 -158 -326.5t-419 -118.5q-156 0 -278 42t-196.5 130t-74.5 211q0 148 100 242.5t273 138.5l-35 17q-262 131 -262 356q0 168 137 262t358 94q212 0 344.5 -85t132.5 -242q0 -116 -84 -193t-223 -113zM383 1196
q0 -86 49 -142.5t166 -113.5l168 -82q149 98 149 279q0 130 -76.5 206t-199.5 76q-116 0 -186 -62t-70 -161zM647 16q153 0 240.5 80.5t87.5 206.5q0 94 -57.5 160.5t-188.5 132.5l-221 111q-201 -113 -201 -342q0 -156 94.5 -252.5t245.5 -96.5z" />
    <glyph glyph-name="nine" unicode="9" horiz-adv-x="1277" 
d="M616 1460q270 0 425 -189t155 -530q0 -189 -46.5 -337t-130 -242t-195.5 -142.5t-246 -48.5q-172 0 -392 60l-34 383h16l297 -373q52 -25 108 -25q154 0 244 181t90 544v21q-56 -89 -156 -138t-227 -49q-124 0 -224.5 47t-164 145.5t-63.5 233.5q0 205 149 332t395 127z
M637 662q88 0 157 44t111 134q-10 292 -87 433.5t-210 141.5q-118 0 -188 -102t-70 -293q0 -172 78.5 -265t208.5 -93z" />
    <glyph glyph-name="colon" unicode=":" 
d="M274 641l-163 164v16l163 162h17l162 -162v-16l-162 -164h-17zM274 -31l-163 164v17l163 161h17l162 -161v-17l-162 -164h-17z" />
    <glyph glyph-name="question" unicode="?" horiz-adv-x="1036" 
d="M106 1024l-24 379q177 59 387 59q222 0 351.5 -92t129.5 -248q0 -67 -27.5 -129.5t-67.5 -110.5t-103.5 -97.5t-118 -82.5t-127.5 -73l-39 -162h-41l-96 158v16q154 88 248 213t94 276q0 129 -66 208t-164 79q-64 0 -104 -24l-215 -369h-17zM430 -31l-162 164v17l162 161
h16l164 -161v-17l-164 -164h-16z" />
    <glyph glyph-name="A" unicode="A" horiz-adv-x="1431" 
d="M811 1434l516 -1315l148 -99v-20h-607v20l170 91l-157 407h-549l-133 -344l245 -154v-20h-479v20l182 160l433 1114l-60 119v21h291zM606 1225l-256 -658h512z" />
    <glyph glyph-name="B" unicode="B" horiz-adv-x="1488" 
d="M958 768v-16q96 -5 174.5 -26.5t141.5 -61.5t98 -106t35 -152q0 -192 -144 -299t-405 -107h-797v20l164 93v1208l-164 92v21h775q234 0 366.5 -89t132.5 -243q0 -147 -102.5 -232.5t-274.5 -101.5zM737 1384h-229v-614h227q156 0 236 79t80 234q0 145 -84.5 223
t-229.5 78zM508 49h233q179 0 272 88.5t93 253.5t-99 247.5t-274 82.5h-225v-672z" />
    <glyph glyph-name="C" unicode="C" horiz-adv-x="1454" 
d="M1321 999h-21l-256 377q-95 39 -174 39q-91 0 -175 -46.5t-149.5 -131t-104.5 -214.5t-40 -286q-1 -179 37.5 -319.5t103.5 -225.5t145.5 -128.5t170.5 -43.5q97 0 178 43l307 420h21l-57 -438q-262 -74 -463 -74q-226 0 -394.5 84t-264 252t-95.5 402q0 173 59 315.5
t163 238t247.5 147.5t312.5 52q187 0 449 -63v-400z" />
    <glyph glyph-name="D" unicode="D" horiz-adv-x="1603" 
d="M756 0h-695v20l164 93v1208l-164 92v21h740q208 0 368.5 -82t252 -241t91.5 -374q0 -350 -201 -543.5t-556 -193.5zM508 1384v-1335h225q224 0 349.5 173t125.5 489t-135.5 494.5t-355.5 178.5h-209z" />
    <glyph glyph-name="E" unicode="E" horiz-adv-x="1409" 
d="M1004 49l296 400h21l-49 -449h-1211v20l164 93v1208l-164 92v21h1201v-396h-21l-254 346h-479v-616h219l229 123h21v-295h-21l-229 123h-219v-670h496z" />
    <glyph glyph-name="F" unicode="F" horiz-adv-x="1308" 
d="M61 1413v21h1180v-394h-20l-254 344h-459v-651h252l229 123h21v-295h-21l-229 123h-252v-571l205 -93v-20h-652v20l164 93v1208z" />
    <glyph glyph-name="G" unicode="G" horiz-adv-x="1533" 
d="M90 707q0 182 60.5 326.5t169 237.5t256.5 142t325 49q181 0 463 -65v-400h-21l-262 375q-98 43 -196 43q-93 0 -178.5 -42.5t-155 -124t-111 -215t-41.5 -300.5q0 -174 36 -312t99.5 -224.5t147 -131.5t180.5 -45q125 0 234 66v459h-305v49h722v-21l-149 -92v-413
q-276 -97 -514 -97q-348 0 -554 197.5t-206 538.5z" />
    <glyph glyph-name="H" unicode="H" horiz-adv-x="1683" 
d="M1622 1434v-21l-164 -92v-1208l164 -93v-20h-610v20l164 93v598h-668v-598l164 -93v-20h-611v20l164 93v1208l-164 92v21h611v-21l-164 -92v-561h668v561l-164 92v21h610z" />
    <glyph glyph-name="I" unicode="I" horiz-adv-x="733" 
d="M672 0h-611v20l164 93v1208l-164 92v21h611v-21l-164 -92v-1208l164 -93v-20z" />
    <glyph glyph-name="J" unicode="J" horiz-adv-x="1214" 
d="M90 41l-33 438h21l284 -426q68 -33 140 -33q119 0 180 94t61 277v930l-204 92v21h651v-21l-164 -92v-899q0 -222 -137.5 -336.5t-378.5 -114.5q-180 0 -420 70z" />
    <glyph glyph-name="K" unicode="K" horiz-adv-x="1533" 
d="M844 899l553 -778l147 -101v-20h-586v20l123 86l-432 607l-141 -135v-465l164 -93v-20h-611v20l164 93v1208l-164 92v21h611v-21l-164 -92v-674l651 627l-219 139v21h553v-21l-279 -158z" />
    <glyph glyph-name="L" unicode="L" horiz-adv-x="1333" 
d="M1223 0h-1162v20l164 93v1208l-164 92v21h611v-21l-164 -92v-1272h432l322 420h20z" />
    <glyph glyph-name="M" unicode="M" horiz-adv-x="1841" 
d="M1780 1434v-21l-164 -94v-1206l164 -93v-20h-611v20l164 93v1149l-493 -1022h-21l-540 1020v-1084l262 -156v-20h-490v20l174 158v1141l-174 94v21h443l448 -854l416 854h422z" />
    <glyph glyph-name="N" unicode="N" horiz-adv-x="1531" 
d="M1024 1413v21h477v-21l-174 -156v-1257h-203l-850 1305v-1129l250 -156v-20h-477v20l174 158v1141l-174 94v21h463l764 -1168v994z" />
    <glyph glyph-name="O" unicode="O" horiz-adv-x="1654" 
d="M827 -29q-341 0 -539 200t-198 546t198 545.5t539 199.5q343 0 540.5 -199.5t197.5 -545.5t-197.5 -546t-540.5 -200zM827 20q195 0 309.5 175.5t114.5 521.5t-114.5 522t-309.5 176t-309.5 -176t-114.5 -522t114.5 -521.5t309.5 -175.5z" />
    <glyph glyph-name="P" unicode="P" horiz-adv-x="1423" 
d="M61 1434h748q260 0 406.5 -109.5t146.5 -318.5q0 -217 -162.5 -341t-425.5 -124h-266v-428l205 -93v-20h-652v20l164 93v1208l-164 92v21zM508 590h201q163 0 260.5 106t97.5 297q0 184 -97 287.5t-247 103.5h-215v-794z" />
    <glyph glyph-name="Q" unicode="Q" horiz-adv-x="1654" 
d="M897 -27v-16l717 -147v-21l-240 -158l-655 346q-294 32 -461.5 228t-167.5 512q0 346 198 545.5t539 199.5q343 0 540.5 -199.5t197.5 -545.5q0 -327 -178 -524.5t-490 -219.5zM403 717q0 -346 114.5 -521.5t309.5 -175.5t309.5 175.5t114.5 521.5t-114.5 522t-309.5 176
t-309.5 -176t-114.5 -522z" />
    <glyph glyph-name="R" unicode="R" horiz-adv-x="1519" 
d="M1137 553l258 -434l94 -96v-23h-338l-377 655h-266v-542l164 -93v-20h-611v20l164 93v1208l-164 92v21h768q247 0 383 -93t136 -278q0 -94 -38.5 -168.5t-105.5 -122t-152.5 -73t-183.5 -27.5v-17q118 -65 269 -102zM508 705h229q154 0 238 88.5t84 255.5
q0 162 -87.5 248.5t-232.5 86.5h-231v-679z" />
    <glyph glyph-name="S" unicode="S" horiz-adv-x="1273" 
d="M129 49l-29 440h21l293 -419q95 -50 204 -50q145 0 238.5 83t93.5 206q0 174 -217 258l-299 119q-315 125 -315 389q0 183 148.5 285t394.5 102q201 0 448 -63v-379h-20l-271 354q-80 41 -184 41q-130 0 -209.5 -65.5t-79.5 -171.5q0 -153 184 -224l312 -120
q182 -70 266 -165.5t84 -236.5q0 -142 -79 -247.5t-214.5 -159.5t-308.5 -54q-216 0 -461 78z" />
    <glyph glyph-name="T" unicode="T" horiz-adv-x="1431" 
d="M82 1014h-21v420h1309v-420h-20l-238 370h-254v-1271l184 -93v-20h-651v20l184 93v1271h-256z" />
    <glyph glyph-name="U" unicode="U" horiz-adv-x="1550" 
d="M211 1321l-164 92v21h610v-21l-163 -92v-817q0 -191 108 -311.5t293 -120.5q186 0 293.5 120.5t107.5 311.5l2 756l-249 153v21h477v-21l-174 -156l-2 -749q0 -251 -146 -394t-422 -143q-275 0 -423 143t-148 392v815z" />
    <glyph glyph-name="V" unicode="V" horiz-adv-x="1415" 
d="M973 1413v21h477v-21l-174 -160l-481 -1253h-148l-534 1317l-150 96v21h606v-21l-163 -92l430 -1077l389 1018z" />
    <glyph glyph-name="W" unicode="W" horiz-adv-x="2121" 
d="M1681 1413v21h478v-21l-174 -156l-443 -1257h-139l-334 926l-332 -926h-139l-485 1317l-150 96v21h602v-21l-164 -92l379 -1049l262 729l-127 349l-100 63v21h547v-21l-150 -84l371 -1055l350 992z" />
    <glyph glyph-name="X" unicode="X" horiz-adv-x="1501" 
d="M864 803l479 -682l164 -101v-20h-622v20l137 93l-365 522l-368 -463l231 -152v-20h-510v20l223 164l394 494l-447 639l-162 96v21h619v-21l-137 -90l334 -477l337 424l-231 143v21h506v-21l-219 -156z" />
    <glyph glyph-name="Y" unicode="Y" horiz-adv-x="1372" 
d="M932 1413v21h475v-21l-174 -160l-393 -675v-465l184 -93v-20h-651v20l184 93v428l-444 776l-150 96v21h625v-21l-164 -92l389 -688l369 635z" />
    <glyph glyph-name="Z" unicode="Z" horiz-adv-x="1337" 
d="M942 49l311 422h21l-60 -471h-1155v49l873 1335h-524l-254 -378h-21v428h1118v-50l-870 -1335h561z" />
    <glyph glyph-name="a" unicode="a" horiz-adv-x="1157" 
d="M1006 752v-652l133 -84v-16h-348l-48 168q-129 -193 -333 -193q-63 0 -118.5 14.5t-105.5 46t-79 90t-29 138.5q0 119 85.5 192t223.5 105l352 88v135q0 115 -42 170.5t-136 55.5q-46 0 -112 -27l-267 -321h-16v342q253 51 432 51q206 0 307 -83.5t101 -219.5zM526 90
q115 0 213 133v387q-27 -8 -102 -31t-109 -34q-182 -66 -182 -246q0 -95 50.5 -152t129.5 -57z" />
    <glyph glyph-name="b" unicode="b" horiz-adv-x="1230" 
d="M733 1055q87 0 162 -31t135 -92.5t94.5 -164.5t34.5 -235q0 -135 -44.5 -243.5t-121 -175.5t-172.5 -102.5t-203 -35.5q-225 0 -471 82v1276l-145 84v17h412v-549q117 170 319 170zM604 20q127 0 200 115t73 367q0 217 -71 324.5t-188 107.5q-126 0 -204 -100v-705
q71 -109 190 -109z" />
    <glyph glyph-name="c" unicode="c" horiz-adv-x="1083" 
d="M987 647h-16l-246 334q-54 29 -109 29q-106 0 -186 -122.5t-80 -338.5q0 -218 93 -335.5t235 -117.5q207 0 323 211l39 -18q-125 -311 -452 -314q-230 -2 -377.5 147t-147.5 392q0 168 73.5 292.5t197 186.5t280.5 62q162 0 373 -49v-359z" />
    <glyph glyph-name="d" unicode="d" horiz-adv-x="1243" 
d="M1081 1434v-1334l133 -84v-16h-348l-43 156q-119 -181 -323 -181q-84 0 -159.5 31.5t-137 93.5t-97.5 164.5t-36 233.5q0 135 40.5 243.5t108.5 175.5t152 102.5t176 35.5q172 0 268 -107v385l-145 84v17h411zM614 92q123 0 201 115v684q-77 86 -188 86q-123 0 -199 -110
t-76 -341q0 -221 71 -327.5t191 -106.5z" />
    <glyph glyph-name="e" unicode="e" horiz-adv-x="1122" 
d="M1026 317l39 -18q-57 -147 -172 -235.5t-301 -88.5q-234 0 -380 145.5t-146 381.5q0 258 148.5 405.5t385.5 147.5q212 0 336.5 -120t124.5 -335v-63h-713q4 -209 97 -323t239 -114q220 0 342 217zM594 1010q-107 0 -173.5 -109.5t-72.5 -318.5h449v43q0 385 -203 385z
" />
    <glyph glyph-name="f" unicode="f" horiz-adv-x="684" 
d="M565 1458q127 0 303 -37v-299h-16l-217 285q-24 6 -47 6q-64 0 -103 -56.5t-39 -176.5v-150h314v-45h-314v-889l185 -80v-16h-584v16l133 80v889h-155v45h155v74q0 177 101.5 265.5t283.5 88.5z" />
    <glyph glyph-name="g" unicode="g" horiz-adv-x="1155" 
d="M1128 1128h17v-198h-219q94 -94 94 -232q0 -163 -128.5 -259.5t-332.5 -96.5q-117 0 -213 35q-53 -29 -53 -84q0 -82 135 -96l412 -45q151 -16 228 -72.5t77 -175.5q0 -93 -68.5 -167t-177.5 -112.5t-235 -38.5q-26 0 -71 -0.5t-85.5 -0.5t-83.5 1q-194 3 -300 62
t-106 166q0 78 62.5 134t169.5 83q-139 55 -139 174q0 63 49.5 112t140.5 78q-96 45 -150.5 123t-54.5 180q0 163 128.5 260t334.5 97q183 0 305 -78zM559 385q197 0 197 313q0 312 -197 312q-199 0 -199 -312q0 -313 199 -313zM801 -74l-387 62q-37 5 -84 16
q-101 -55 -101 -174q0 -96 72.5 -148.5t212.5 -52.5h150q110 0 191 46t81 120q0 57 -33 88.5t-102 42.5z" />
    <glyph glyph-name="h" unicode="h" horiz-adv-x="1290" 
d="M1137 723v-627l133 -80v-16h-533v16l133 80v609q0 225 -182 225q-148 0 -252 -129v-705l133 -80v-16h-532v16l133 80v1237l-145 84v17h411v-578q150 199 377 199q157 0 240.5 -86.5t83.5 -245.5z" />
    <glyph glyph-name="i" unicode="i" horiz-adv-x="606" 
d="M293 1192l-154 154v16l154 156h16l156 -156v-16l-156 -154h-16zM178 930l-145 84v16h411v-934l134 -80v-16h-533v16l133 80v834z" />
    <glyph glyph-name="j" unicode="j" horiz-adv-x="573" 
d="M283 1192l-156 154v16l156 156h16l154 -156v-16l-154 -154h-16zM-45 -408v46q21 -3 31 -3q95 0 137.5 89.5t42.5 281.5v924l-146 84v16h412v-962q0 -243 -107 -362.5t-292 -119.5q-41 0 -78 6z" />
    <glyph glyph-name="k" unicode="k" horiz-adv-x="1220" 
d="M725 690l373 -590l143 -84v-16h-381l-330 524l-94 -82v-346l133 -80v-16h-532v16l133 80v1237l-145 84v17h411v-930l430 368l-147 142v16h457v-16l-265 -164z" />
    <glyph glyph-name="l" unicode="l" horiz-adv-x="598" 
d="M170 1333l-145 84v17h411v-1338l133 -80v-16h-532v16l133 80v1237z" />
    <glyph glyph-name="m" unicode="m" horiz-adv-x="1976" 
d="M1825 735v-639l133 -80v-16h-533v16l134 80v615q0 105 -48.5 162t-148.5 57q-136 0 -234 -129q7 -40 7 -70v-635l133 -80v-16h-533v16l133 80v613q0 221 -188 221q-133 0 -236 -127v-707l134 -80v-16h-533v16l133 80v834l-145 84v16h360l49 -174q139 199 359 199
q126 0 206.5 -55.5t110.5 -153.5q136 209 371 209q163 0 249.5 -83.5t86.5 -236.5z" />
    <glyph glyph-name="n" unicode="n" horiz-adv-x="1298" 
d="M1147 723v-627l133 -80v-16h-532v16l133 80v609q0 225 -185 225q-146 0 -252 -129v-705l134 -80v-16h-533v16l133 80v834l-145 84v16h360l49 -176q148 201 379 201q158 0 242 -86.5t84 -245.5z" />
    <glyph glyph-name="o" unicode="o" horiz-adv-x="1214" 
d="M608 -25q-247 0 -397 144.5t-150 396.5q0 251 150 395t397 144q245 0 395 -144t150 -395t-150 -396t-395 -145zM608 20q252 0 252 496q0 494 -252 494t-252 -494q0 -496 252 -496z" />
    <glyph glyph-name="p" unicode="p" horiz-adv-x="1245" 
d="M743 1055q85 0 160.5 -31t137 -92.5t97.5 -163.5t36 -233q0 -135 -40.5 -244t-108.5 -176.5t-152.5 -103.5t-176.5 -36q-168 0 -268 107v-375l184 -80v-16h-583v16l133 80v1223l-146 84v16h361l43 -156q112 181 323 181zM616 53q123 0 199 110t76 341q0 222 -71 328
t-191 106q-124 0 -201 -113v-686q77 -86 188 -86z" />
    <glyph glyph-name="q" unicode="q" horiz-adv-x="1216" 
d="M1081 973v-1266l133 -80v-16h-583v16l184 80v438q-117 -170 -319 -170q-87 0 -162 31t-135 92.5t-94.5 164.5t-34.5 235q0 135 44.5 243.5t120.5 175.5t172 102.5t203 35.5q225 0 471 -82zM610 96q126 0 205 101v704q-71 109 -190 109q-127 0 -200 -115t-73 -367
q0 -217 70.5 -324.5t187.5 -107.5z" />
    <glyph glyph-name="r" unicode="r" horiz-adv-x="897" 
d="M725 1053q71 0 135 -17v-350h-16l-205 254q-121 -27 -195 -178v-666l185 -80v-16h-584v16l133 80v834l-145 84v16h360l51 -184v-6q109 213 281 213z" />
    <glyph glyph-name="s" unicode="s" horiz-adv-x="1005" 
d="M883 682h-17l-241 301q-66 29 -127 29q-82 0 -137.5 -43t-55.5 -115q0 -55 35.5 -91.5t122.5 -66.5l186 -65q146 -51 219.5 -122t73.5 -187q0 -108 -62.5 -188t-163.5 -119.5t-224 -39.5q-85 0 -188 17t-187 47l-21 360h17l264 -350q64 -31 129 -31q97 0 155 52.5
t58 138.5q0 67 -37.5 108.5t-120.5 71.5l-192 72q-135 51 -201 126t-66 179q0 135 115 212t301 77q191 0 365 -51v-322z" />
    <glyph glyph-name="t" unicode="t" horiz-adv-x="722" 
d="M737 1030v-45h-309v-723q0 -84 30.5 -128t88.5 -44q88 0 151 107l39 -21q-46 -99 -118.5 -150t-184.5 -51q-131 0 -201.5 68.5t-70.5 185.5v756h-154v41l139 39l267 250h14v-285h309z" />
    <glyph glyph-name="u" unicode="u" horiz-adv-x="1284" 
d="M1122 1030v-930l133 -84v-16h-348l-49 180q-143 -205 -358 -205q-165 0 -252.5 86.5t-87.5 247.5v621l-146 84v16h412v-702q0 -228 186 -228q144 0 244 138v692l-145 84v16h411z" />
    <glyph glyph-name="v" unicode="v" horiz-adv-x="1089" 
d="M727 1014v16h397v-16l-137 -152l-356 -862h-144l-409 926l-109 88v16h525v-16l-134 -84l308 -711l270 651z" />
    <glyph glyph-name="w" unicode="w" horiz-adv-x="1708" 
d="M1346 1014v16h397v-16l-137 -152l-336 -862h-140l-266 633l-256 -633h-137l-393 926l-109 88v16h523v-16l-134 -84l289 -705l191 471l-113 265l-68 53v16h478v-16l-119 -74l293 -711l247 641z" />
    <glyph glyph-name="x" unicode="x" horiz-adv-x="1116" 
d="M680 573l332 -471l121 -86v-16h-558v16l125 86l-233 332l-229 -289l168 -129v-16h-400v16l178 144l254 315l-317 451l-121 88v16h551v-16l-123 -84l221 -314l217 271l-168 127v16h400v-16l-178 -140z" />
    <glyph glyph-name="y" unicode="y" horiz-adv-x="1097" 
d="M737 1014v16h398v-16l-140 -154l-405 -991q-36 -87 -70.5 -143.5t-71 -86.5t-71.5 -41.5t-80 -11.5q-37 0 -102 21v184h16l98 -8q101 -10 155.5 16t80.5 90l4 11l-471 1026l-109 88v16h527v-16l-134 -84l318 -713l268 653z" />
    <glyph glyph-name="z" unicode="z" horiz-adv-x="1032" 
d="M958 0h-901v45l609 940h-330l-219 -321h-17v366h863v-45l-609 -940h359l229 352h16v-397z" />
    </font>
</defs>
</svg>
