<svg width="100" height="104" viewBox="0 0 100 104" fill="none" xmlns="http://www.w3.org/2000/svg">
<path d="M49.9199 15.1588H57.8752C58.186 15.1588 58.4841 15.0304 58.7038 14.8019C58.9236 14.5733 59.0471 14.2633 59.0471 13.9401C59.0471 13.6168 58.9236 13.3068 58.7038 13.0783C58.4841 12.8497 58.186 12.7213 57.8752 12.7213H49.9199C49.6091 12.7213 49.3111 12.8497 49.0913 13.0783C48.8715 13.3068 48.748 13.6168 48.748 13.9401C48.748 14.2633 48.8715 14.5733 49.0913 14.8019C49.3111 15.0304 49.6091 15.1588 49.9199 15.1588Z" fill="black"/>
<path d="M49.9199 24.7355H57.8752C58.186 24.7355 58.4841 24.6071 58.7038 24.3786C58.9236 24.15 59.0471 23.84 59.0471 23.5168C59.0471 23.1936 58.9236 22.8836 58.7038 22.655C58.4841 22.4265 58.186 22.298 57.8752 22.298H49.9199C49.6091 22.298 49.3111 22.4265 49.0913 22.655C48.8715 22.8836 48.748 23.1936 48.748 23.5168C48.748 23.84 48.8715 24.15 49.0913 24.3786C49.3111 24.6071 49.6091 24.7355 49.9199 24.7355Z" fill="black"/>
<path d="M67.1211 34.3123H72.7885C73.0993 34.3123 73.3973 34.1839 73.6171 33.9553C73.8369 33.7268 73.9604 33.4168 73.9604 33.0935C73.9604 32.7703 73.8369 32.4603 73.6171 32.2317C73.3973 32.0032 73.0993 31.8748 72.7885 31.8748H67.1211C66.8103 31.8748 66.5122 32.0032 66.2925 32.2317C66.0727 32.4603 65.9492 32.7703 65.9492 33.0935C65.9492 33.4168 66.0727 33.7268 66.2925 33.9553C66.5122 34.1839 66.8103 34.3123 67.1211 34.3123Z" fill="black"/>
<path d="M49.5486 34.3123H61.6406C61.9514 34.3123 62.2495 34.1839 62.4693 33.9553C62.689 33.7268 62.8125 33.4168 62.8125 33.0935C62.8125 32.7703 62.689 32.4603 62.4693 32.2317C62.2495 32.0032 61.9514 31.8748 61.6406 31.8748H49.5488C49.238 31.8748 48.94 32.0032 48.7202 32.2317C48.5004 32.4603 48.377 32.7703 48.377 33.0935C48.377 33.4168 48.5004 33.7268 48.7202 33.9553C48.94 34.1839 49.238 34.3123 49.5488 34.3123H49.5486Z" fill="black"/>
<path d="M72.7884 41.4515H35.2085C34.8977 41.4515 34.5996 41.5799 34.3799 41.8085C34.1601 42.037 34.0366 42.347 34.0366 42.6703C34.0366 42.9935 34.1601 43.3035 34.3799 43.532C34.5996 43.7606 34.8977 43.889 35.2085 43.889H72.7884C73.0992 43.889 73.3973 43.7606 73.617 43.532C73.8368 43.3035 73.9603 42.9935 73.9603 42.6703C73.9603 42.347 73.8368 42.037 73.617 41.8085C73.3973 41.5799 73.0992 41.4515 72.7884 41.4515Z" fill="black"/>
<path d="M24.6104 43.889H29.5361C29.8469 43.889 30.145 43.7606 30.3648 43.532C30.5845 43.3035 30.708 42.9935 30.708 42.6703C30.708 42.347 30.5845 42.037 30.3648 41.8085C30.145 41.5799 29.8469 41.4515 29.5361 41.4515H24.6104C24.2996 41.4515 24.0015 41.5799 23.7817 41.8085C23.5619 42.037 23.4385 42.347 23.4385 42.6703C23.4385 42.9935 23.5619 43.3035 23.7817 43.532C24.0015 43.7606 24.2996 43.889 24.6104 43.889Z" fill="black"/>
<path d="M72.7885 51.0282H54.7383C54.4275 51.0282 54.1294 51.1566 53.9096 51.3852C53.6899 51.6138 53.5664 51.9238 53.5664 52.247C53.5664 52.5702 53.6899 52.8802 53.9096 53.1088C54.1294 53.3373 54.4275 53.4657 54.7383 53.4657H72.7885C73.0993 53.4657 73.3973 53.3373 73.6171 53.1088C73.8369 52.8802 73.9604 52.5702 73.9604 52.247C73.9604 51.9238 73.8369 51.6138 73.6171 51.3852C73.3973 51.1566 73.0993 51.0282 72.7885 51.0282Z" fill="black"/>
<path d="M24.6104 53.4657H50.6189C50.9297 53.4657 51.2278 53.3373 51.4476 53.1088C51.6674 52.8802 51.7908 52.5702 51.7908 52.247C51.7908 51.9238 51.6674 51.6138 51.4476 51.3852C51.2278 51.1566 50.9297 51.0282 50.6189 51.0282H24.6104C24.2996 51.0282 24.0015 51.1566 23.7817 51.3852C23.5619 51.6138 23.4385 51.9238 23.4385 52.247C23.4385 52.5702 23.5619 52.8802 23.7817 53.1088C24.0015 53.3373 24.2996 53.4657 24.6104 53.4657Z" fill="black"/>
<path d="M72.7884 60.6048H44.2212C43.9104 60.6048 43.6123 60.7332 43.3926 60.9617C43.1728 61.1903 43.0493 61.5003 43.0493 61.8235C43.0493 62.1468 43.1728 62.4568 43.3926 62.6853C43.6123 62.9139 43.9104 63.0423 44.2212 63.0423H72.7884C73.0992 63.0423 73.3973 62.9139 73.617 62.6853C73.8368 62.4568 73.9603 62.1468 73.9603 61.8235C73.9603 61.5003 73.8368 61.1903 73.617 60.9617C73.3973 60.7332 73.0992 60.6048 72.7884 60.6048Z" fill="black"/>
<path d="M39.2092 63.0423C39.52 63.0423 39.818 62.9139 40.0378 62.6853C40.2576 62.4568 40.3811 62.1468 40.3811 61.8235C40.3811 61.5003 40.2576 61.1903 40.0378 60.9617C39.818 60.7332 39.52 60.6048 39.2092 60.6048H24.6104C24.2996 60.6048 24.0015 60.7332 23.7817 60.9617C23.5619 61.1903 23.4385 61.5003 23.4385 61.8235C23.4385 62.1468 23.5619 62.4568 23.7817 62.6853C24.0015 62.9139 24.2996 63.0423 24.6104 63.0423H39.2092Z" fill="black"/>
<path d="M62.2589 70.1817H25.0503C24.7395 70.1817 24.4414 70.3101 24.2217 70.5387C24.0019 70.7672 23.8784 71.0772 23.8784 71.4005C23.8784 71.7237 24.0019 72.0337 24.2217 72.2623C24.4414 72.4908 24.7395 72.6192 25.0503 72.6192H62.2589C62.5697 72.6192 62.8678 72.4908 63.0875 72.2623C63.3073 72.0337 63.4308 71.7237 63.4308 71.4005C63.4308 71.0772 63.3073 70.7672 63.0875 70.5387C62.8678 70.3101 62.5697 70.1817 62.2589 70.1817Z" fill="black"/>
<path d="M62.2589 79.7583H25.0503C24.7395 79.7583 24.4414 79.8867 24.2217 80.1152C24.0019 80.3438 23.8784 80.6538 23.8784 80.977C23.8784 81.3002 24.0019 81.6102 24.2217 81.8388C24.4414 82.0674 24.7395 82.1958 25.0503 82.1958H62.2589C62.5697 82.1958 62.8678 82.0674 63.0875 81.8388C63.3073 81.6102 63.4308 81.3002 63.4308 80.977C63.4308 80.6538 63.3073 80.3438 63.0875 80.1152C62.8678 79.8867 62.5697 79.7583 62.2589 79.7583Z" fill="black"/>
<path d="M62.2589 89.3344H25.0503C24.7395 89.3344 24.4414 89.4628 24.2217 89.6913C24.0019 89.9199 23.8784 90.2299 23.8784 90.5531C23.8784 90.8764 24.0019 91.1864 24.2217 91.4149C24.4414 91.6435 24.7395 91.7719 25.0503 91.7719H62.2589C62.5697 91.7719 62.8678 91.6435 63.0875 91.4149C63.3073 91.1864 63.4308 90.8764 63.4308 90.5531C63.4308 90.2299 63.3073 89.9199 63.0875 89.6913C62.8678 89.4628 62.5697 89.3344 62.2589 89.3344Z" fill="black"/>
<path d="M37.107 22.3328C37.5396 21.9237 37.9429 21.7265 38.3078 21.747C38.6517 21.7905 38.9699 21.9588 39.2062 22.2223C39.4074 22.4662 39.693 22.6177 40.001 22.6437C40.309 22.6697 40.6144 22.5681 40.8507 22.3611C41.087 22.1541 41.2352 21.8584 41.2629 21.5383C41.2907 21.2183 41.1957 20.8998 40.9988 20.6521C40.3563 19.889 39.457 19.4113 38.4859 19.3172C37.7756 19.266 36.689 19.4348 35.53 20.5305C35.4148 20.6377 35.3211 20.7677 35.2543 20.9128C35.1876 21.058 35.1491 21.2154 35.1412 21.3761C35.1333 21.5367 35.156 21.6974 35.208 21.8489C35.2601 22.0004 35.3405 22.1397 35.4446 22.2587C35.5487 22.3777 35.6744 22.4741 35.8145 22.5423C35.9546 22.6106 36.1063 22.6493 36.2608 22.6563C36.4153 22.6632 36.5697 22.6383 36.7149 22.5829C36.8602 22.5275 36.9934 22.4428 37.107 22.3336V22.3328Z" fill="black"/>
<path d="M27.1002 22.3328C27.5328 21.9237 27.9371 21.725 28.3009 21.747C28.6449 21.7904 28.9631 21.9588 29.1994 22.2223C29.4005 22.4662 29.6862 22.6177 29.9942 22.6437C30.3021 22.6697 30.6075 22.5681 30.8439 22.3611C31.0802 22.1541 31.2284 21.8584 31.2561 21.5383C31.2838 21.2182 31.1889 20.8998 30.992 20.6521C30.3496 19.889 29.4503 19.4112 28.4793 19.3172C27.7711 19.266 26.6824 19.4344 25.5232 20.5305C25.4079 20.6377 25.3142 20.7677 25.2475 20.9128C25.1808 21.058 25.1423 21.2154 25.1344 21.3761C25.1264 21.5367 25.1491 21.6974 25.2012 21.8489C25.2533 22.0004 25.3337 22.1397 25.4378 22.2587C25.5418 22.3777 25.6676 22.4741 25.8076 22.5423C25.9477 22.6106 26.0994 22.6493 26.254 22.6563C26.4085 22.6632 26.5628 22.6383 26.7081 22.5829C26.8533 22.5275 26.9866 22.4428 27.1002 22.3336V22.3328Z" fill="black"/>
<path d="M30.414 30.329C31.0561 31.0924 31.9553 31.5706 32.9263 31.665C32.9974 31.67 33.0726 31.6731 33.1511 31.6731C33.8542 31.6731 34.8402 31.4375 35.8823 30.4515C35.9976 30.3442 36.0913 30.2142 36.1581 30.0691C36.2248 29.924 36.2633 29.7665 36.2712 29.6059C36.2791 29.4452 36.2564 29.2845 36.2043 29.133C36.1523 28.9815 36.0719 28.8423 35.9678 28.7232C35.8637 28.6042 35.738 28.5078 35.5979 28.4396C35.4578 28.3714 35.3061 28.3326 35.1516 28.3257C34.997 28.3187 34.8427 28.3436 34.6975 28.399C34.5522 28.4544 34.419 28.5391 34.3054 28.6483C33.8726 29.0578 33.4687 29.2561 33.1044 29.2342C32.7605 29.1907 32.4423 29.0224 32.206 28.7588C32.0048 28.5149 31.7192 28.3635 31.4112 28.3375C31.1032 28.3115 30.7978 28.413 30.5615 28.62C30.3252 28.8271 30.177 29.1228 30.1493 29.4428C30.1215 29.7629 30.2165 30.0814 30.4134 30.329H30.414Z" fill="black"/>
<path d="M33.2646 37.623C35.8911 37.6169 38.4568 36.8014 40.6377 35.2794C42.8187 33.7574 44.5169 31.5973 45.5179 29.072C46.5189 26.5467 46.7778 23.7695 46.2618 21.0912C45.7458 18.413 44.478 15.9539 42.6188 14.0246C40.7595 12.0954 38.3921 10.7825 35.8157 10.2519C33.2393 9.72131 30.5695 9.99679 28.1436 11.0435C25.7177 12.0903 23.6445 13.8614 22.186 16.133C20.7275 18.4046 19.9491 21.0748 19.9492 23.8063C19.9573 27.4735 21.3637 30.9877 23.8599 33.578C26.3562 36.1682 29.7384 37.6229 33.2646 37.623ZM29.2055 13.2371C29.2055 13.2574 29.2041 13.2777 29.2041 13.298C29.2041 15.1871 29.3199 16.9902 30.7193 18.289C31.4736 18.9908 32.4497 19.3797 33.4617 19.3814C33.9016 19.3817 34.3385 19.3067 34.7549 19.1594C36.0611 18.6966 37.1203 17.2025 37.166 15.758C37.1908 15.3498 37.1211 14.9413 36.9627 14.5669C36.8043 14.1925 36.5618 13.8631 36.2557 13.6063C35.442 12.936 34.276 12.8611 33.4822 13.0843C33.1835 13.1698 32.9295 13.3748 32.7758 13.6546C32.622 13.9343 32.5811 14.266 32.6618 14.5771C32.7426 14.8881 32.9385 15.1533 33.2067 15.3145C33.475 15.4758 33.7937 15.52 34.0932 15.4375C34.3553 15.3642 34.7412 15.4404 34.8074 15.5234C34.8229 15.5733 34.8284 15.6259 34.8234 15.678C34.788 15.9286 34.6945 16.1664 34.5509 16.371C34.4073 16.5756 34.2181 16.7408 33.9994 16.8523C33.7058 16.9497 33.3927 16.9658 33.0913 16.8989C32.7898 16.8319 32.5104 16.6843 32.2807 16.4706C31.6617 15.8962 31.5486 14.9514 31.5486 13.2982C31.5495 13.0469 31.5791 12.7967 31.6369 12.5527C34.4084 12.1183 37.2347 12.8026 39.5367 14.4655C41.8386 16.1283 43.442 18.6438 44.0182 21.4964C44.5944 24.349 44.0998 27.3228 42.6358 29.8084C41.1717 32.2941 38.8491 34.1033 36.1438 34.8654C33.4385 35.6275 30.5554 35.2847 28.0853 33.9074C25.6151 32.5301 23.745 30.2225 22.858 27.4574C21.9711 24.6923 22.1345 21.6791 23.3148 19.0353C24.495 16.3915 26.6028 14.3172 29.2063 13.2375L29.2055 13.2371Z" fill="black"/>
<path d="M26.9907 29.2029C27.3039 29.2028 27.61 29.1061 27.8704 28.9251C28.1308 28.7441 28.3337 28.4869 28.4535 28.1859C28.5733 27.885 28.6046 27.5538 28.5435 27.2344C28.4823 26.9149 28.3314 26.6215 28.11 26.3912C27.8885 26.1609 27.6063 26.0041 27.2991 25.9406C26.992 25.8771 26.6736 25.9097 26.3842 26.0344C26.0949 26.1591 25.8476 26.3702 25.6736 26.641C25.4996 26.9118 25.4067 27.2302 25.4067 27.5559C25.4073 27.9926 25.5743 28.4113 25.8713 28.72C26.1682 29.0288 26.5708 29.2024 26.9907 29.2029Z" fill="black"/>
<path d="M39.6073 25.909C39.2941 25.909 38.988 26.0057 38.7276 26.1867C38.4672 26.3676 38.2642 26.6249 38.1444 26.9258C38.0246 27.2268 37.9933 27.5579 38.0544 27.8774C38.1155 28.1968 38.2663 28.4903 38.4878 28.7206C38.7093 28.9509 38.9915 29.1077 39.2986 29.1712C39.6058 29.2348 39.9242 29.2021 40.2136 29.0775C40.5029 28.9528 40.7502 28.7417 40.9242 28.4709C41.0982 28.2001 41.1911 27.8817 41.1911 27.5559C41.1905 27.1193 41.0235 26.7007 40.7266 26.392C40.4297 26.0832 40.0272 25.9095 39.6073 25.909Z" fill="black"/>
<path d="M93.3571 70.1714L82.1103 64.4333L82.2521 24.4593C82.2531 23.9831 82.1634 23.5115 81.988 23.0717C81.8126 22.6318 81.5551 22.2325 81.2304 21.8969L63.1464 3.09278C62.8235 2.75516 62.4394 2.48749 62.0164 2.30528C61.5934 2.12307 61.1398 2.02993 60.6819 2.03125H13.3185C11.3749 2.03334 9.51145 2.83713 8.13698 4.26627C6.76251 5.69541 5.98925 7.6332 5.98682 9.65453V92.6199C5.98925 94.6412 6.76251 96.579 8.13698 98.0082C9.51145 99.4373 11.3749 100.241 13.3185 100.243H76.3235L78.4606 101.757C78.6552 101.895 78.885 101.969 79.1204 101.969C79.3558 101.969 79.5857 101.895 79.7802 101.757L88.927 95.2776C91.7786 93.2577 94.013 88.8688 94.013 85.2855V71.2658C94.013 71.0378 93.9516 70.8144 93.8356 70.621C93.7197 70.4275 93.5539 70.2717 93.3571 70.1714ZM62.8872 6.27006L78.2505 22.2442H67.1944C66.034 22.2434 64.9212 21.7643 64.0998 20.9118C63.2785 20.0592 62.8155 18.9029 62.8124 17.696L62.8872 6.27006ZM17.2413 97.8057H13.3185C11.9963 97.8044 10.7286 97.2576 9.79346 96.2854C8.85838 95.3132 8.33227 93.995 8.33057 92.6199V9.65453C8.33227 8.27944 8.85838 6.9612 9.79346 5.98901C10.7286 5.01683 11.9963 4.47009 13.3185 4.46875H17.2413C15.978 5.87581 15.2758 7.72943 15.2769 9.65453V92.6199C15.2758 94.545 15.978 96.3986 17.2413 97.8057ZM22.6083 97.8057C21.2861 97.8043 20.0185 97.2575 19.0834 96.2854C18.1484 95.3132 17.6223 93.995 17.6206 92.6199V9.65453C17.6223 8.27947 18.1484 6.96127 19.0834 5.98909C20.0185 5.01691 21.2861 4.47015 22.6083 4.46875H60.5552L60.4687 17.6877C60.4708 19.5421 61.1801 21.32 62.441 22.6311C63.702 23.9423 65.4115 24.6798 67.1946 24.6817H79.9077L79.771 63.2397L79.6366 63.1719C79.4761 63.0901 79.2997 63.0476 79.121 63.0476C78.9423 63.0476 78.7659 63.0901 78.6054 63.1719L64.8849 70.1521C64.6878 70.2523 64.5218 70.4081 64.4057 70.6016C64.2896 70.7952 64.228 71.0188 64.228 71.2469V85.2865C64.228 88.8698 66.462 93.2587 69.3136 95.2784L72.8827 97.8069L22.6083 97.8057ZM77.9491 98.4451L70.6335 93.2626C68.4321 91.7034 66.5724 88.0504 66.5724 85.2853V77.6488L77.9491 71.861V74.699C75.8567 74.9949 73.9382 76.0695 72.5492 77.7237C71.1602 79.378 70.3948 81.4997 70.3948 83.6959C70.3948 85.8921 71.1602 88.0139 72.5492 89.6681C73.9382 91.3224 75.8567 92.397 77.9491 92.6928V98.4451ZM79.121 90.3394C77.8574 90.3401 76.622 89.9511 75.571 89.2215C74.5201 88.4918 73.7008 87.4545 73.2168 86.2406C72.7328 85.0267 72.6058 83.6907 72.852 82.4018C73.0981 81.1128 73.7062 79.9287 74.5995 78.9992C75.4928 78.0698 76.631 77.4367 77.8703 77.1801C79.1096 76.9235 80.3942 77.0549 81.5617 77.5577C82.7291 78.0604 83.727 78.912 84.429 80.0046C85.1311 81.0973 85.5058 82.3819 85.5058 83.696C85.5043 85.4569 84.8312 87.1453 83.6342 88.3908C82.4373 89.6362 80.8142 90.337 79.121 90.3394ZM91.6698 85.2853C91.6698 88.0504 89.8099 91.704 87.6083 93.2628L80.2929 98.4451V92.6928C82.3853 92.397 84.3038 91.3224 85.6928 89.6681C87.0818 88.0139 87.8472 85.8921 87.8472 83.6959C87.8472 81.4997 87.0818 79.378 85.6928 77.7237C84.3038 76.0695 82.3853 74.9949 80.2929 74.699V71.8634L91.6698 77.6677V85.2853ZM91.6698 74.9527L79.6366 68.8137C79.4761 68.7319 79.2997 68.6894 79.121 68.6894C78.9423 68.6894 78.7659 68.7319 78.6054 68.8137L66.5718 74.9359V72.0068L79.1196 65.6232L91.6692 72.0257L91.6698 74.9527Z" fill="black"/>
<path d="M82.6172 82.6719H80.2734V80.4375C80.2734 80.1143 80.15 79.8043 79.9302 79.5757C79.7104 79.3472 79.4124 79.2188 79.1016 79.2188C78.7908 79.2188 78.4927 79.3472 78.2729 79.5757C78.0532 79.8043 77.9297 80.1143 77.9297 80.4375V82.6719H75.9766C75.6658 82.6719 75.3677 82.8003 75.1479 83.0288C74.9282 83.2574 74.8047 83.5674 74.8047 83.8906C74.8047 84.2139 74.9282 84.5239 75.1479 84.7524C75.3677 84.981 75.6658 85.1094 75.9766 85.1094H77.9297V87.1406C77.9297 87.4639 78.0532 87.7739 78.2729 88.0024C78.4927 88.231 78.7908 88.3594 79.1016 88.3594C79.4124 88.3594 79.7104 88.231 79.9302 88.0024C80.15 87.7739 80.2734 87.4639 80.2734 87.1406V85.1094H82.6172C82.928 85.1094 83.2261 84.981 83.4458 84.7524C83.6656 84.5239 83.7891 84.2139 83.7891 83.8906C83.7891 83.5674 83.6656 83.2574 83.4458 83.0288C83.2261 82.8003 82.928 82.6719 82.6172 82.6719Z" fill="black"/>
<path d="M11.0376 8.45996C10.7268 8.45996 10.4287 8.58837 10.209 8.81693C9.98919 9.04549 9.86572 9.35548 9.86572 9.67871V10.1585C9.86572 10.4817 9.98919 10.7917 10.209 11.0203C10.4287 11.2488 10.7268 11.3772 11.0376 11.3772C11.3484 11.3772 11.6465 11.2488 11.8662 11.0203C12.086 10.7917 12.2095 10.4817 12.2095 10.1585V9.67871C12.2095 9.35548 12.086 9.04549 11.8662 8.81693C11.6465 8.58837 11.3484 8.45996 11.0376 8.45996Z" fill="black"/>
<path d="M11.0376 12.4335C10.7268 12.4335 10.4287 12.5619 10.209 12.7905C9.98919 13.019 9.86572 13.329 9.86572 13.6522V25.9819C9.86572 26.3052 9.98919 26.6152 10.209 26.8437C10.4287 27.0723 10.7268 27.2007 11.0376 27.2007C11.3484 27.2007 11.6465 27.0723 11.8662 26.8437C12.086 26.6152 12.2095 26.3052 12.2095 25.9819V13.6522C12.2095 13.329 12.086 13.019 11.8662 12.7905C11.6465 12.5619 11.3484 12.4335 11.0376 12.4335Z" fill="black"/>
</svg>
