<svg width="100" height="100" viewBox="0 0 100 100" fill="none" xmlns="http://www.w3.org/2000/svg">
<path d="M99.1678 71.9729C99.0766 72.2709 98.8706 72.5205 98.5948 72.6662C97.5846 73.2002 96.1028 74.0125 94.227 75.0406C80.3309 82.6568 65.162 90.7373 60.1741 90.7373C60.0503 90.7373 59.9331 90.7324 59.8219 90.7223L29.8663 88.0037C29.4147 89.7498 27.8307 91.0453 25.9452 91.0453H12.5741C11.927 91.0453 11.4022 90.5205 11.4022 89.8734V61.3389C11.4022 60.6918 11.927 60.167 12.5741 60.167H28.8276C29.4747 60.167 29.9995 60.6918 29.9995 61.3389V63.6113L36.7397 60.9461C36.3714 59.0258 36.1833 57.0096 36.1833 54.9361C36.1833 44.0635 42.7546 34.1398 53.2403 28.7053C51.9139 27.9818 51.0122 26.5746 51.0122 24.9604C51.0122 23.608 51.6458 22.4018 52.6309 21.6203L47.6843 12.7893C47.4315 12.3383 47.5044 11.775 47.8632 11.4029C49.3423 9.86992 51.87 8.9545 54.6245 8.9545C56.9096 8.9545 59.0387 9.58457 60.5425 10.6744C62.0462 9.58438 64.1753 8.9545 66.4604 8.9545C68.7456 8.9545 70.8747 9.58457 72.3784 10.6744C73.8821 9.58438 76.0112 8.9545 78.2964 8.9545C81.0511 8.9545 83.5786 9.86992 85.0577 11.4029C85.4165 11.775 85.4893 12.3383 85.2366 12.7893L80.2899 21.6203C81.2751 22.4018 81.9087 23.608 81.9087 24.9604C81.9087 26.5746 81.0067 27.982 79.6803 28.7053C90.1663 34.1398 96.7376 44.0637 96.7376 54.9361C96.7376 59.6459 95.7925 63.9467 93.9288 67.7523C96.3034 68.008 98.0329 69.1189 99.0803 71.0775C99.2274 71.3523 99.2589 71.6748 99.1678 71.9729ZM27.6559 62.5109H13.7462V88.7018H25.9454C26.8886 88.7018 27.6559 87.9344 27.6559 86.9912V62.5109ZM54.8147 20.723C54.9659 20.7066 55.1194 20.6979 55.2749 20.6979H77.6462C77.8016 20.6979 77.9551 20.7068 78.1063 20.723L82.7196 12.4871C81.6251 11.7418 80.0126 11.2984 78.2966 11.2984C76.1971 11.2984 74.2526 11.9621 73.2221 13.0303C73.0012 13.2592 72.6969 13.3885 72.3788 13.3885C72.0606 13.3885 71.7561 13.2592 71.5354 13.0303C70.505 11.9621 68.5604 11.2984 66.461 11.2984C64.3616 11.2984 62.4171 11.9621 61.3866 13.0303C61.1657 13.2592 60.8614 13.3885 60.5432 13.3885C60.2251 13.3885 59.9206 13.2592 59.6999 13.0303C58.6694 11.9621 56.7249 11.2984 54.6255 11.2984C52.9094 11.2984 51.2968 11.742 50.2024 12.4871L54.8147 20.723ZM77.6462 23.0416H55.2749C54.2169 23.0416 53.3561 23.9023 53.3561 24.9605C53.3561 26.0188 54.2169 26.8795 55.2749 26.8795H77.6462C78.7042 26.8795 79.5649 26.0188 79.5649 24.9607C79.5649 23.9027 78.7042 23.0416 77.6462 23.0416ZM38.5272 54.9363C38.5272 56.7045 38.6745 58.424 38.962 60.0678L41.0253 59.252C43.4401 58.2969 46.0538 58.2992 48.3856 59.2578L51.5022 60.5391C50.8743 58.808 50.5477 56.9711 50.5477 55.1068C50.5477 46.3326 57.6862 39.1941 66.4606 39.1941C75.235 39.1941 82.3735 46.3326 82.3735 55.1068C82.3735 62.8154 76.8544 69.3654 69.379 70.7486C69.3507 70.9072 69.3157 71.067 69.2655 71.2289C68.4425 73.8852 64.7389 76.4352 60.8292 76.4355C60.2307 76.4355 59.6282 76.376 59.0294 76.2479L51.1401 74.5582C50.2729 74.4078 49.5028 74.4543 48.8348 74.6959C50.9887 75.1498 52.1426 75.3916 53.3192 75.6381C54.8204 75.9525 56.3589 76.275 60.0583 77.0555C61.0596 77.2668 61.9016 77.348 62.7559 77.0572L81.6807 70.61C82.1946 70.435 82.7716 70.224 83.3825 70.0008C85.6995 69.1541 88.5592 68.1109 91.2645 67.7914C93.3397 64.0551 94.394 59.7348 94.394 54.9367C94.394 43.8105 86.8376 33.7389 75.1255 29.2234H57.796C46.0839 33.7389 38.5272 43.8102 38.5272 54.9363ZM68.9425 68.4465C75.32 67.2707 80.0298 61.6834 80.0298 55.1068C80.0298 47.6248 73.9427 41.5379 66.4606 41.5379C58.9786 41.5379 52.8915 47.625 52.8915 55.1068C52.8915 57.4807 53.5102 59.8023 54.6821 61.8465L66.9678 66.8971C67.86 67.2639 68.5272 67.8004 68.9425 68.4465ZM96.3163 71.2287C95.3241 70.2314 93.8856 69.9285 92.1667 70.0523C92.1065 70.0617 92.0458 70.0682 91.9844 70.0682C91.9813 70.0682 91.978 70.0676 91.9749 70.0676C89.7212 70.2688 87.0063 71.1713 84.1866 72.2018C83.5634 72.4297 82.9745 72.6447 82.436 72.8283L63.5112 79.2754C62.0678 79.7674 60.7108 79.5881 59.5741 79.3484C55.8766 78.5682 54.3387 78.2461 52.8384 77.9318C51.2843 77.6062 49.7702 77.2891 45.9401 76.4805C45.5524 76.3986 45.2321 76.1262 45.0893 75.7564C44.9464 75.3867 44.9999 74.9699 45.2317 74.6482C46.6809 72.6385 48.9305 71.7883 51.5673 72.2535C51.5811 72.2561 51.5952 72.2586 51.6091 72.2617L59.5202 73.9561C62.8577 74.6699 66.4497 72.3975 67.0268 70.5354C67.1231 70.2244 67.3237 69.5773 66.077 69.0648L47.4946 61.4256C45.7266 60.6988 43.7356 60.7008 41.8872 61.4314L29.9999 66.1318V85.6625L60.0339 88.3881C61.0331 88.4801 64.2159 87.8877 74.3233 82.9096C80.929 79.6563 88.2536 75.6418 93.1007 72.9854C94.3544 72.2982 95.4327 71.707 96.3163 71.2287ZM11.1985 56.0619C10.6505 55.3391 10.4759 54.4881 10.7063 53.6654L12.0407 48.9068C10.837 48.5805 9.94793 47.4814 9.94793 46.1762V45.6391C9.94793 44.0775 11.2184 42.807 12.78 42.807H20.7387V42.6684C20.6436 41.0037 20.0165 38.5527 19.293 36.8314C17.2848 38.0566 15.0147 38.6934 12.7001 38.6934C11.5911 38.6934 10.4725 38.5479 9.36765 38.2518C5.49637 37.2145 2.3989 34.4914 0.869803 30.7805C0.66824 30.2916 0.819022 29.7283 1.23816 29.4055C4.41785 26.9564 8.46238 26.1465 12.3333 27.184C16.1315 28.2018 19.1809 30.8445 20.7389 34.4482V29.0371C15.7333 28.4543 11.8345 24.1906 11.8345 19.0309C11.8345 13.4746 16.3548 8.9543 21.9108 8.9543C27.4669 8.9543 31.9874 13.4746 31.9874 19.0309C31.9874 24.1904 28.0887 28.4543 23.0827 29.0371V34.4484C24.6409 30.8445 27.6903 28.2016 31.4886 27.1838C35.3593 26.1465 39.4034 26.9559 42.5837 29.4053C43.0028 29.7279 43.1536 30.2914 42.952 30.7803C41.4225 34.491 38.3253 37.2143 34.454 38.2514C33.3495 38.5475 32.2302 38.693 31.1216 38.693C28.8065 38.693 26.5366 38.0563 24.5286 36.8311C23.8052 38.5522 23.1782 41.0033 23.0829 42.668V42.8064H31.0421C32.6036 42.8064 33.8741 44.077 33.8741 45.6385V46.1756C33.8741 47.4811 32.9848 48.5801 31.7811 48.9064L33.1155 53.665C33.3462 54.4877 33.1714 55.3387 32.6233 56.0615C31.9415 56.9609 30.7542 57.5422 29.5983 57.5422H14.2237C13.0678 57.5422 11.8803 56.9613 11.1985 56.0619ZM25.5473 34.7072C28.0116 36.2854 30.9874 36.7539 33.8473 35.9881C36.7071 35.2219 39.0499 33.3277 40.3948 30.7289C37.9305 29.1504 34.9546 28.6822 32.095 29.4481C29.235 30.2145 26.8923 32.1084 25.5473 34.7072ZM18.2743 34.7072C16.9294 32.1084 14.5866 30.2145 11.7268 29.4481C8.86648 28.6818 5.8909 29.1508 3.42683 30.7289C4.77195 33.3277 7.11472 35.2217 9.97429 35.9881C12.8345 36.7541 15.81 36.2852 18.2743 34.7072ZM30.8587 54.2984L29.3753 49.0084H14.4468L12.9634 54.2984C12.9514 54.3406 12.9198 54.4531 13.0663 54.6461C13.3053 54.9611 13.8028 55.1988 14.2237 55.1988H29.5983C30.0192 55.1988 30.5167 54.9611 30.7557 54.6461C30.9022 54.4529 30.8706 54.3406 30.8587 54.2984ZM21.911 26.7641C26.1749 26.7641 29.6438 23.2951 29.6438 19.0313C29.6438 14.7674 26.1749 11.2984 21.911 11.2984C17.6471 11.2984 14.1784 14.7674 14.1784 19.0313C14.1784 23.2951 17.6473 26.7641 21.911 26.7641ZM12.2921 46.1762C12.2921 46.4408 12.5157 46.6645 12.7803 46.6645H31.0421C31.3067 46.6645 31.5303 46.4408 31.5303 46.1762V45.6391C31.5303 45.3744 31.3067 45.1508 31.0421 45.1508H12.7803C12.5157 45.1508 12.2921 45.3744 12.2921 45.6391V46.1762Z" fill="black"/>
<path d="M68.7629 64.0234C68.5999 64.0225 68.4388 63.989 68.2897 63.925C68.1405 63.8609 68.0065 63.7678 67.8958 63.6512L61.2821 56.7232C61.0614 56.5061 60.9375 56.2128 60.9375 55.9073C60.9375 55.6017 61.0614 55.3085 61.2821 55.0913C61.4973 54.8956 61.7814 54.788 62.0758 54.7907H65.3532C65.9054 54.7813 66.4437 54.6205 66.9063 54.3268C67.369 54.0332 67.7374 53.6185 67.9693 53.1303H63.2515C62.9605 53.0987 62.6916 52.9636 62.4964 52.751C62.3011 52.5385 62.1932 52.2632 62.1932 51.978C62.1932 51.6928 62.3011 51.4176 62.4964 51.205C62.6916 50.9924 62.9605 50.8574 63.2515 50.8257H68.0428C67.8088 50.3402 67.4395 49.9285 66.977 49.6374C66.5145 49.3464 65.9773 49.1878 65.4267 49.1796H62.1493C61.8582 49.1479 61.5893 49.0129 61.3941 48.8003C61.1988 48.5877 61.0909 48.3125 61.0909 48.0273C61.0909 47.7421 61.1988 47.4668 61.3941 47.2543C61.5893 47.0417 61.8582 46.9066 62.1493 46.875H72.4372C72.7282 46.9066 72.9971 47.0417 73.1923 47.2543C73.3876 47.4668 73.4955 47.7421 73.4955 48.0273C73.4955 48.3125 73.3876 48.5877 73.1923 48.8003C72.9971 49.0129 72.7282 49.1479 72.4372 49.1796H69.8064C70.1474 49.681 70.3914 50.2389 70.5265 50.8257H72.4666C72.7576 50.8574 73.0265 50.9924 73.2217 51.205C73.417 51.4176 73.5249 51.6928 73.5249 51.978C73.5249 52.2632 73.417 52.5385 73.2217 52.751C73.0265 52.9636 72.7576 53.0987 72.4666 53.1303H70.5412C70.2727 54.2561 69.6214 55.2605 68.6929 55.9803C67.7644 56.7001 66.6134 57.093 65.4267 57.0953H64.8682L69.7035 62.1626C69.9234 62.3772 70.0469 62.6681 70.0469 62.9713C70.0469 63.2745 69.9234 63.5654 69.7035 63.7801C69.5727 63.8821 69.4215 63.9564 69.2596 63.9983C69.0976 64.0402 68.9284 64.0488 68.7629 64.0234Z" fill="black"/>
<path d="M23.0878 23.5683C22.9975 23.5678 22.9082 23.5492 22.8255 23.5137C22.7428 23.4782 22.6685 23.4266 22.6072 23.362L18.941 19.5216C18.8187 19.4012 18.75 19.2387 18.75 19.0693C18.75 18.8999 18.8187 18.7374 18.941 18.617C19.0603 18.5085 19.2178 18.4489 19.381 18.4504H21.1977C21.5038 18.4452 21.8022 18.356 22.0587 18.1932C22.3152 18.0305 22.5194 17.8006 22.6479 17.53H20.0327C19.8714 17.5124 19.7224 17.4376 19.6141 17.3197C19.5059 17.2019 19.446 17.0493 19.446 16.8912C19.446 16.7331 19.5059 16.5806 19.6141 16.4627C19.7224 16.3449 19.8714 16.27 20.0327 16.2525H22.6886C22.5589 15.9834 22.3542 15.7551 22.0978 15.5938C21.8415 15.4325 21.5437 15.3445 21.2385 15.34H19.4217C19.2604 15.3225 19.1113 15.2476 19.0031 15.1298C18.8949 15.0119 18.835 14.8594 18.835 14.7012C18.835 14.5431 18.8949 14.3906 19.0031 14.2727C19.1113 14.1549 19.2604 14.08 19.4217 14.0625H25.1246C25.2859 14.08 25.4349 14.1549 25.5432 14.2727C25.6514 14.3906 25.7112 14.5431 25.7112 14.7012C25.7112 14.8594 25.6514 15.0119 25.5432 15.1298C25.4349 15.2476 25.2859 15.3225 25.1246 15.34H23.6663C23.8553 15.6179 23.9906 15.9272 24.0655 16.2525H25.1409C25.3022 16.27 25.4512 16.3449 25.5595 16.4627C25.6677 16.5806 25.7275 16.7331 25.7275 16.8912C25.7275 17.0493 25.6677 17.2019 25.5595 17.3197C25.4512 17.4376 25.3022 17.5124 25.1409 17.53H24.0736C23.9248 18.154 23.5637 18.7108 23.049 19.1098C22.5343 19.5088 21.8963 19.7266 21.2385 19.7279H20.9289L23.6092 22.5368C23.7311 22.6558 23.7996 22.817 23.7996 22.9851C23.7996 23.1532 23.7311 23.3144 23.6092 23.4334C23.5367 23.49 23.4529 23.5312 23.3631 23.5544C23.2734 23.5776 23.1796 23.5824 23.0878 23.5683Z" fill="black"/>
</svg>
