<svg width="100" height="100" viewBox="0 0 100 100" fill="none" xmlns="http://www.w3.org/2000/svg">
<path d="M89.5641 71.9356C88.1664 69.5982 85.0514 68.166 81.8021 69.9492C79.8062 71.0449 77.4043 72.4022 74.8613 73.8389C71.6191 75.6703 68.2793 77.5572 65.7644 78.9078C58.6619 74.8141 48.1998 71.9701 42.4844 70.6178L42.0121 70.5053C38.9457 69.7734 34.7476 68.7713 31.7646 70.1025L22.7385 73.9535C22.2158 73.3962 21.5236 73.0272 20.7696 72.9038C20.0155 72.7804 19.2418 72.9095 18.5687 73.2711L15.6748 74.8231C15.054 75.1553 14.5491 75.6688 14.2272 76.295C13.9053 76.9213 13.7817 77.6307 13.8728 78.3289L11.6799 79.4936C10.7635 79.9823 10.0786 80.8148 9.77554 81.8082C9.4725 82.8015 9.57613 83.8746 10.0637 84.7916L16.6293 97.0008C16.8698 97.4553 17.1977 97.8579 17.5941 98.1854C17.9906 98.5129 18.4478 98.759 18.9395 98.9095C19.4312 99.06 19.9478 99.1119 20.4597 99.0623C20.9715 99.0127 21.4686 98.8626 21.9223 98.6205L24.1332 97.4459C24.6642 97.9028 25.3213 98.1879 26.0177 98.2636C26.7141 98.3392 27.4171 98.2018 28.0338 97.8695L30.9279 96.3176C31.3307 96.103 31.6869 95.8107 31.9759 95.4575C32.2649 95.1044 32.481 94.6974 32.6117 94.2602C32.675 94.0494 32.7184 93.8331 32.7412 93.6143C35.0478 93.0227 38.0865 92.4529 46.8465 95.8336C48.976 96.652 51.2393 97.0666 53.5207 97.0561C63.234 97.0561 73.1519 90.0443 81.4258 84.1947C83.4945 82.7322 85.4492 81.3506 87.273 80.1662C90.8428 77.849 90.9629 74.2754 89.5641 71.9356ZM20.6383 96.2059C20.501 96.2788 20.3508 96.3238 20.1961 96.3384C20.0414 96.353 19.8853 96.3369 19.7368 96.291C19.5884 96.2451 19.4505 96.1703 19.331 96.0709C19.2116 95.9716 19.1129 95.8496 19.0408 95.7119L12.4758 83.5025C12.3295 83.2263 12.2987 82.9034 12.3903 82.6045C12.4818 82.3057 12.6882 82.0553 12.9641 81.9084L14.9633 80.8461L22.6322 95.1471L20.6383 96.2059ZM29.9937 93.4701C29.9659 93.5631 29.92 93.6497 29.8585 93.7249C29.797 93.8 29.7212 93.8622 29.6355 93.9078L26.7414 95.46C26.6558 95.5059 26.5621 95.5344 26.4655 95.5441C26.3689 95.5537 26.2713 95.5443 26.1784 95.5162C26.0855 95.4882 25.999 95.4421 25.9239 95.3806C25.8487 95.3191 25.7865 95.2434 25.7406 95.1578L16.6648 78.2336C16.6189 78.148 16.5904 78.0543 16.5807 77.9577C16.571 77.8611 16.5805 77.7636 16.6086 77.6706C16.6366 77.5777 16.6827 77.4912 16.7442 77.4161C16.8057 77.3409 16.8814 77.2787 16.967 77.2328L19.8611 75.6809C19.9681 75.6231 20.0878 75.5928 20.2094 75.5928C20.2822 75.5928 20.3545 75.6035 20.4242 75.6246C20.5173 75.6524 20.6039 75.6985 20.6791 75.76C20.7543 75.8216 20.8165 75.8974 20.8621 75.9832L29.9377 92.907C29.9838 92.9925 30.0125 93.0863 30.0221 93.183C30.0317 93.2796 30.0221 93.3772 29.9937 93.4701ZM85.784 77.8729C83.9141 79.0865 81.9387 80.4832 79.8465 81.9619C70.1955 88.7857 58.1838 97.2775 47.8308 93.2826C38.1883 89.5609 34.5725 90.3176 32.0066 90.9795L24.148 76.325L32.8482 72.6141C32.856 72.6107 32.8639 72.6074 32.8715 72.6037C35.0064 71.6467 38.8402 72.5605 41.3773 73.166L41.8549 73.2795C47.4994 74.615 57.8779 77.4332 64.6674 81.4344C64.3683 82.2471 63.8251 82.9473 63.1123 83.4391C60.5697 85.1352 51.6084 83.2676 46.5576 81.6918C46.2115 81.5837 45.8366 81.6176 45.5154 81.786C45.1943 81.9543 44.9532 82.2433 44.8451 82.5895C44.7371 82.9356 44.7709 83.3105 44.9393 83.6316C45.1076 83.9528 45.3966 84.1939 45.7428 84.302C48.2097 85.0473 50.7145 85.6611 53.2465 86.1408C55.7373 86.6049 57.8533 86.8373 59.6137 86.8373C61.8467 86.8373 63.5068 86.4631 64.6303 85.7133C66.2383 84.6402 67.4726 82.6342 67.4406 81.1463C67.4406 81.1352 67.4385 81.1244 67.4381 81.1131C69.9295 79.7668 73.1133 77.9686 76.206 76.2205C78.7416 74.7879 81.1363 73.4348 83.1174 72.3475C84.941 71.3467 86.4902 72.1246 87.2168 73.3399C87.9332 74.5365 87.9885 76.4424 85.784 77.8729ZM28.8113 65.8713C33.4098 67.6258 39.6937 67.6258 46.3504 67.6258C50.7449 67.6258 54.9096 67.6258 58.5365 67.143C60.5012 69.1862 62.9571 70.6915 65.6694 71.515C68.3817 72.3384 71.2599 72.4526 74.0289 71.8465C76.798 71.2405 79.3653 69.9345 81.4857 68.0533C83.6061 66.1721 85.2086 63.7785 86.1401 61.1014C87.0717 58.4243 87.3012 55.553 86.8066 52.7619C86.3121 49.9708 85.11 47.3531 83.3154 45.159C81.5207 42.9649 79.1933 41.2678 76.5557 40.2296C73.9181 39.1915 71.0583 38.8471 68.2496 39.2293C65.131 32.2143 60.2223 24.7033 55.5683 19.702C56.4313 19.5974 57.2226 19.1699 57.783 18.5053C58.3433 17.8408 58.6311 16.9886 58.5884 16.1204C58.5457 15.2522 58.1756 14.4324 57.5527 13.8261C56.9298 13.2198 56.1003 12.872 55.2312 12.8527C56.6476 10.593 57.2305 7.75254 56.9965 4.24844C56.9824 4.03851 56.9201 3.83465 56.8144 3.65271C56.7087 3.47077 56.5625 3.31565 56.3871 3.19942L53.2867 1.14747C53.0629 0.999223 52.8003 0.920171 52.5318 0.920171C52.2633 0.920171 52.0008 0.999223 51.7769 1.14747L49.4332 2.70001L47.0894 1.14766C46.8656 0.99946 46.6031 0.920431 46.3347 0.920431C46.0662 0.920431 45.8037 0.99946 45.5799 1.14766L43.2348 2.7002L40.8877 1.14727C40.6639 0.99911 40.4014 0.920105 40.133 0.920105C39.8646 0.920105 39.6021 0.99911 39.3783 1.14727L36.2785 3.19942C36.098 3.31892 35.9485 3.47958 35.8422 3.66817C35.7359 3.85676 35.6759 4.06789 35.6672 4.28419C35.5477 7.27386 36.2584 10.2382 37.7207 12.8486H37.5502C36.6812 12.8481 35.8443 13.1766 35.2077 13.7681C34.5711 14.3596 34.182 15.1702 34.1188 16.0369C34.0555 16.9035 34.3228 17.762 34.8668 18.4396C35.4107 19.1173 36.1911 19.5638 37.051 19.6895C33.6246 23.3565 30.0457 28.4059 27.1082 33.7799C23.0859 41.1387 20.8707 47.9441 20.8707 52.9426C20.8697 59.6039 23.4678 63.8328 28.8113 65.8713ZM43.3578 49.2916V47.1357C43.3579 47.0511 43.3915 46.9698 43.4514 46.9099C43.5112 46.85 43.5924 46.8163 43.6771 46.8162H56.4455C55.8858 47.7008 55.4114 48.6366 55.0287 49.6109H43.6767C43.5921 49.6108 43.5109 49.5772 43.4511 49.5173C43.3912 49.4574 43.3579 49.3763 43.3578 49.2916ZM53.8976 55.1402H43.6767C43.5921 55.1401 43.5109 55.1064 43.451 55.0465C43.3911 54.9866 43.3575 54.9054 43.3574 54.8207V52.6649C43.3575 52.5802 43.3912 52.499 43.451 52.4391C43.5109 52.3792 43.5921 52.3455 43.6767 52.3453H54.2158C54.0306 53.2662 53.9244 54.2013 53.8976 55.1402ZM43.3578 58.194C43.3579 58.1093 43.3916 58.0281 43.4514 57.9683C43.5113 57.9084 43.5925 57.8747 43.6771 57.8746H54.0385C54.1651 58.8226 54.3742 59.7577 54.6635 60.6693H43.6767C43.5921 60.6692 43.5109 60.6355 43.451 60.5756C43.3912 60.5157 43.3575 60.4345 43.3574 60.3498L43.3578 58.194ZM84.2926 55.6488C84.2926 58.3855 83.4811 61.0607 81.9608 63.3362C80.4404 65.6116 78.2794 67.3851 75.7511 68.4324C73.2227 69.4797 70.4406 69.7538 67.7566 69.2199C65.0725 68.686 62.607 67.3682 60.6719 65.4331C58.7368 63.498 57.4189 61.0326 56.885 58.3485C56.3511 55.6644 56.6251 52.8823 57.6724 50.354C58.7196 47.8257 60.4931 45.6646 62.7686 44.1442C65.044 42.6238 67.7192 41.8123 70.4558 41.8123C74.1242 41.8165 77.6411 43.2757 80.235 45.8696C82.8289 48.4636 84.2884 51.9805 84.2926 55.6488ZM38.3883 5.08243L40.1334 3.92715L42.4787 5.47969C42.7025 5.6279 42.965 5.70692 43.2335 5.70692C43.5019 5.70692 43.7644 5.6279 43.9883 5.47969L46.3332 3.92715L48.6769 5.4795C48.9008 5.62774 49.1633 5.70679 49.4318 5.70679C49.7003 5.70679 49.9629 5.62774 50.1867 5.4795L52.5305 3.92696L54.2992 5.09883C54.4117 8.50294 53.5734 11.0484 51.7475 12.8494H40.9199C39.243 10.3797 38.4101 7.82715 38.3883 5.08243ZM37.5506 15.5832H55.1482C55.242 15.5817 55.3351 15.5988 55.4222 15.6336C55.5092 15.6684 55.5885 15.7201 55.6553 15.7859C55.7222 15.8516 55.7753 15.93 55.8115 16.0165C55.8478 16.103 55.8664 16.1958 55.8664 16.2896C55.8664 16.3833 55.8478 16.4761 55.8115 16.5626C55.7753 16.6491 55.7222 16.7275 55.6553 16.7932C55.5885 16.859 55.5092 16.9108 55.4222 16.9455C55.3351 16.9803 55.242 16.9975 55.1482 16.9959H37.5506C37.4568 16.9975 37.3637 16.9803 37.2766 16.9455C37.1896 16.9108 37.1103 16.859 37.0435 16.7932C36.9766 16.7275 36.9235 16.6491 36.8873 16.5626C36.851 16.4761 36.8324 16.3833 36.8324 16.2896C36.8324 16.1958 36.851 16.103 36.8873 16.0165C36.9235 15.93 36.9766 15.8516 37.0435 15.7859C37.1103 15.7201 37.1896 15.6684 37.2766 15.6336C37.3637 15.5988 37.4568 15.5817 37.5506 15.5832ZM40.874 19.7303H51.741C56.5699 24.2225 62.075 32.2649 65.5197 39.8291C62.8984 40.6524 60.5226 42.1138 58.6057 44.082H43.6767C42.8671 44.083 42.0909 44.4051 41.5185 44.9776C40.946 45.5501 40.624 46.3263 40.623 47.1359V49.2918C40.6226 49.8921 40.8002 50.4791 41.1334 50.9785C40.8002 51.4778 40.6226 52.0648 40.623 52.665V54.8209C40.6226 55.4212 40.8002 56.0082 41.1334 56.5076C40.8002 57.0069 40.6226 57.5939 40.623 58.1941V60.35C40.624 61.1596 40.946 61.9358 41.5185 62.5083C42.0909 63.0809 42.8671 63.4029 43.6767 63.4039H55.8168C56.0371 63.8182 56.2758 64.2207 56.5293 64.6133C53.4582 64.8904 49.984 64.8916 46.3463 64.8916C39.9525 64.8916 33.9131 64.8916 29.7855 63.3168C25.5105 61.6859 23.6041 58.4865 23.6041 52.9428C23.6041 43.5129 33.0027 27.0174 40.874 19.7303ZM70.4555 67.2461C72.7491 67.2461 74.9912 66.566 76.8982 65.2917C78.8053 64.0175 80.2917 62.2063 81.1694 60.0873C82.0471 57.9683 82.2768 55.6366 81.8293 53.387C81.3818 51.1375 80.2774 49.0712 78.6555 47.4493C77.0337 45.8275 74.9674 44.723 72.7179 44.2756C70.4683 43.8281 68.1366 44.0578 66.0176 44.9355C63.8986 45.8132 62.0874 47.2996 60.8132 49.2066C59.5389 51.1137 58.8588 53.3558 58.8588 55.6494C58.8622 58.724 60.0851 61.6716 62.2592 63.8457C64.4332 66.0197 67.3809 67.2426 70.4555 67.2461ZM70.4555 46.7871C72.2083 46.7871 73.9217 47.3069 75.3791 48.2807C76.8365 49.2545 77.9724 50.6386 78.6432 52.258C79.3139 53.8773 79.4894 55.6592 79.1475 57.3784C78.8055 59.0975 77.9615 60.6766 76.7221 61.916C75.4826 63.1554 73.9035 63.9995 72.1844 64.3414C70.4653 64.6834 68.6834 64.5079 67.064 63.8371C65.4446 63.1664 64.0605 62.0304 63.0867 60.5731C62.1129 59.1157 61.5931 57.4022 61.5931 55.6494C61.5957 53.2997 62.5302 51.047 64.1916 49.3854C65.8531 47.7239 68.1057 46.7898 70.4555 46.7871Z" fill="black"/>
<path d="M71.9735 60.9909C71.8699 60.9903 71.7675 60.9688 71.6727 60.9278C71.5779 60.8867 71.4927 60.827 71.4224 60.7523L67.219 56.3119C67.0787 56.1728 67 55.9849 67 55.789C67 55.5932 67.0787 55.4052 67.219 55.2661C67.3558 55.1406 67.5364 55.0716 67.7234 55.0734H69.8064C70.1574 55.0673 70.4995 54.9643 70.7935 54.7761C71.0876 54.5879 71.3217 54.3221 71.4691 54.0092H68.4707C68.2857 53.9889 68.1148 53.9024 67.9907 53.7661C67.8666 53.6299 67.798 53.4535 67.798 53.2707C67.798 53.0878 67.8666 52.9114 67.9907 52.7752C68.1148 52.6389 68.2857 52.5524 68.4707 52.5321H71.5158C71.3671 52.2209 71.1324 51.9571 70.8384 51.7705C70.5445 51.584 70.2031 51.4823 69.8531 51.4771H67.7701C67.5852 51.4568 67.4143 51.3702 67.2902 51.234C67.1661 51.0977 67.0975 50.9213 67.0975 50.7385C67.0975 50.5557 67.1661 50.3793 67.2902 50.2431C67.4143 50.1068 67.5852 50.0203 67.7701 50H74.3087C74.4936 50.0203 74.6645 50.1068 74.7886 50.2431C74.9127 50.3793 74.9813 50.5557 74.9813 50.7385C74.9813 50.9213 74.9127 51.0977 74.7886 51.234C74.6645 51.3702 74.4936 51.4568 74.3087 51.4771H72.6367C72.8534 51.7984 73.0085 52.156 73.0944 52.5321H74.3273C74.5123 52.5524 74.6832 52.6389 74.8073 52.7752C74.9314 52.9114 75 53.0878 75 53.2707C75 53.4535 74.9314 53.6299 74.8073 53.7661C74.6832 53.9024 74.5123 53.9889 74.3273 54.0092H73.1037C72.9331 54.7308 72.5191 55.3745 71.929 55.8358C71.3389 56.2971 70.6073 56.549 69.8531 56.5505H69.4982L72.5713 59.7982C72.711 59.9358 72.7895 60.1222 72.7895 60.3165C72.7895 60.5109 72.711 60.6973 72.5713 60.8349C72.4882 60.9003 72.392 60.9479 72.2891 60.9748C72.1862 61.0016 72.0787 61.0071 71.9735 60.9909Z" fill="black"/>
</svg>
