<svg width="100" height="100" viewBox="0 0 100 100" fill="none" xmlns="http://www.w3.org/2000/svg">
<mask id="mask0_6483_9" style="mask-type:luminance" maskUnits="userSpaceOnUse" x="0" y="0" width="100" height="100">
<path d="M0 7.62939e-06H100V100H0V7.62939e-06Z" fill="white"/>
</mask>
<g mask="url(#mask0_6483_9)">
<path d="M50.0002 61.6455C37.4537 61.6455 27.1885 51.3801 27.1885 38.8336V32.9744C36.3158 32.9744 46.757 32.0455 50.0002 26.4281C53.2434 32.0455 63.6846 32.9744 72.8119 32.9744V38.8336C72.8119 51.3801 62.5467 61.6455 50.0002 61.6455Z" stroke="black" stroke-width="3" stroke-miterlimit="22.926"/>
<path d="M54.8964 48.032C54.8964 50.4603 52.6929 52.447 49.9997 52.447C47.3065 52.447 45.103 50.4605 45.103 48.032" stroke="black" stroke-width="3" stroke-miterlimit="22.926"/>
<path d="M65.5729 41.7023C65.5729 39.9292 64.1222 38.4782 62.3489 38.4782C60.5757 38.4782 59.1247 39.929 59.1247 41.7023M40.8753 41.7023C40.8753 39.9292 39.4247 38.4782 37.6515 38.4782C35.878 38.4782 34.4272 39.929 34.4272 41.7023" stroke="black" stroke-width="3" stroke-miterlimit="22.926"/>
<path d="M57.3242 60.4319V65.6518L54.3945 72.9758H45.6055L42.6758 65.6518V60.4319" stroke="black" stroke-width="3" stroke-miterlimit="22.926"/>
<path d="M45.6054 98.5351H17.4448V82.0933C17.4448 73.0504 24.8437 65.6517 33.8866 65.6517H42.6757M51.4647 98.5351H48.5351M57.3241 65.6517H66.1132C75.1562 65.6517 82.5548 73.0508 82.5548 82.0933V98.5351H54.3944" stroke="black" stroke-width="3" stroke-miterlimit="22.926"/>
<path d="M69.3716 98.5351V83.558M30.6284 98.5351V83.558" stroke="black" stroke-width="3" stroke-miterlimit="22.926"/>
<path d="M30.6282 89.4174L17.4448 87.9526" stroke="black" stroke-width="3" stroke-miterlimit="22.926"/>
<path d="M82.555 87.9526L69.3716 89.4174" stroke="black" stroke-width="3" stroke-miterlimit="22.926"/>
<path d="M27.9576 44.693H24.2588C21.842 44.693 19.8643 42.7155 19.8643 40.2985C19.8643 37.8815 21.8418 35.9039 24.2588 35.9039H27.1885" stroke="black" stroke-width="3" stroke-miterlimit="22.926"/>
<path d="M72.0425 44.693H75.7413C78.1581 44.693 80.1358 42.7155 80.1358 40.2985C80.1358 37.8815 78.1583 35.9039 75.7413 35.9039H72.8116" stroke="black" stroke-width="3" stroke-miterlimit="22.926"/>
<path d="M30.6037 8.58517C35.8551 4.14865 42.6289 1.46486 50.0002 1.46486C66.5748 1.46486 80.1359 15.026 80.1359 31.6008V40.2984M19.8643 40.2984V31.6008C19.8643 23.4447 23.1492 16.0197 28.4598 10.5803" stroke="black" stroke-width="3" stroke-miterlimit="22.926"/>
<path d="M24.2586 44.693C17.4451 48.0321 14.0623 54.5233 14.4299 61.6455C20.9334 64.3098 29.1811 59.827 32.9412 53.9354M75.7414 44.693C82.5549 48.0321 85.9377 54.5233 85.5701 61.6455C79.0666 64.3098 70.8189 59.827 67.0588 53.9354" stroke="black" stroke-width="3" stroke-miterlimit="22.926"/>
<path d="M57.3242 10.2539H60.2539M63.1836 13.1834H66.1133" stroke="black" stroke-width="3" stroke-miterlimit="2.613"/>
</g>
</svg>
