<svg width="100" height="100" viewBox="0 0 100 100" fill="none" xmlns="http://www.w3.org/2000/svg">
<path d="M46.6581 34.7117C47.4209 35.4744 48.6573 35.4744 49.4204 34.7117L59.2258 24.9063C59.9885 24.1436 59.9885 22.9068 59.2258 22.1441C58.4631 21.3814 57.2268 21.3814 56.4635 22.1439L48.0391 30.5684L43.537 26.0662C42.7741 25.3037 41.5377 25.3037 40.7747 26.0662C40.012 26.8289 40.012 28.0656 40.7747 28.8285L46.6581 34.7117Z" fill="black"/>
<path d="M94.1169 82.358C94.1169 73.2904 87.2401 65.8 78.428 64.8248V58.8248C78.428 57.7461 77.5534 56.8717 76.4749 56.8717H23.5253C22.4468 56.8717 21.5722 57.7461 21.5722 58.8248V64.8248C12.7601 65.7998 5.8833 73.2904 5.8833 82.358C5.8833 92.1264 13.8411 100 23.5253 100C33.2052 100 41.1671 92.1295 41.1671 82.358C41.1671 73.2904 34.2903 65.8 25.4784 64.8248V60.7779H74.5218V64.8248C65.7099 65.7998 58.8331 73.2904 58.8331 82.358C58.8331 92.1451 66.8093 100 76.4749 100C86.1706 100 94.1169 92.1158 94.1169 82.358ZM13.914 92.1584C19.2409 86.9262 27.8048 86.9217 33.1366 92.1584C27.7812 97.4115 19.2585 97.4006 13.914 92.1584ZM19.595 80.3971C19.595 78.2299 21.3581 76.467 23.5253 76.467C25.6925 76.467 27.4554 78.2301 27.4554 80.3971C27.4554 82.5641 25.6925 84.3271 23.5253 84.3271C21.3581 84.3271 19.595 82.5641 19.595 80.3971ZM37.2608 82.358C37.2608 84.7801 36.6282 87.0563 35.5233 89.0342C33.7874 87.4189 31.7622 86.185 29.5636 85.3863C30.686 84.0301 31.3616 82.291 31.3616 80.3971C31.3616 76.076 27.8462 72.5607 23.5253 72.5607C19.2042 72.5607 15.6888 76.0762 15.6888 80.3971C15.6888 82.291 16.3644 84.0301 17.487 85.3863C15.2884 86.185 13.2632 87.4191 11.5272 89.0342C10.4222 87.0563 9.78975 84.7801 9.78975 82.358C9.78975 74.7842 15.9517 68.6225 23.5255 68.6225C31.0993 68.6225 37.2608 74.7844 37.2608 82.358ZM76.4749 68.6225C84.0487 68.6225 90.2106 74.7842 90.2106 82.358C90.2106 84.7801 89.578 87.0563 88.4731 89.0342C86.7372 87.4189 84.712 86.185 82.5134 85.3863C83.636 84.0301 84.3116 82.291 84.3116 80.3971C84.3116 76.076 80.7962 72.5607 76.4751 72.5607C72.1542 72.5607 68.6388 76.0762 68.6388 80.3971C68.6388 82.291 69.3144 84.0301 70.437 85.3863C68.2384 86.185 66.213 87.4191 64.4771 89.0342C63.3722 87.0563 62.7396 84.7801 62.7396 82.358C62.7394 74.7844 68.9009 68.6225 76.4749 68.6225ZM72.5448 80.3971C72.5448 78.2299 74.3077 76.467 76.4749 76.467C78.6421 76.467 80.4052 78.2301 80.4052 80.3971C80.4052 82.5641 78.6421 84.3271 76.4749 84.3271C74.3077 84.3271 72.5448 82.5641 72.5448 80.3971ZM66.8636 92.1584C72.1919 86.9254 80.7554 86.9225 86.0862 92.1584C80.7308 97.4113 72.2079 97.4008 66.8636 92.1584Z" fill="black"/>
<path d="M39.4212 49.1281L49.3192 52.8111C49.752 52.9721 50.235 52.9771 50.6815 52.8111L60.5795 49.1281C67.8047 46.44 72.2569 39.3348 71.7059 31.7986C71.6104 30.4922 70.1411 10.4137 70.0463 9.11836C69.9907 8.35703 69.4963 7.69785 68.7811 7.43086C65.9221 6.36465 63.7917 4.22344 62.6196 1.23906C62.3256 0.491602 61.6045 0 60.8014 0H39.1991C38.396 0 37.6747 0.491601 37.3811 1.23926C36.209 4.22363 34.0786 6.36484 31.2194 7.43106C30.5042 7.69785 30.0098 8.35703 29.954 9.11856C28.1305 34.0365 28.2424 32.2553 28.2483 33.1811C28.2883 40.0584 32.537 46.5668 39.4212 49.1281ZM67.8448 33.0936C67.8417 35.3004 67.2872 37.391 66.3194 39.2219H33.6811C32.4809 36.952 32.0157 34.4766 32.1907 32.0836L33.2479 17.6338H66.7524C67.8794 33.0889 67.8462 32.298 67.8448 33.0936ZM59.217 45.4672L50.0003 48.8967L40.7835 45.4672C40.7835 45.4672 40.7835 45.4672 40.7835 45.467C39.3077 44.918 37.9672 44.1266 36.7989 43.1281H63.2016C62.0335 44.1266 60.693 44.918 59.217 45.4672ZM40.469 3.90625H59.5315C61.0034 6.88301 63.3288 9.20137 66.2372 10.591L66.4667 13.7277H33.5336L33.7631 10.591C36.6715 9.20156 38.9971 6.88301 40.469 3.90625Z" fill="black"/>
</svg>
