<svg width="100" height="104" viewBox="0 0 100 104" fill="none" xmlns="http://www.w3.org/2000/svg">
<path d="M93.5783 18.6062L96.7033 12.1062C96.8231 11.8589 96.8802 11.5837 96.8691 11.307C96.8579 11.0302 96.7789 10.761 96.6396 10.5249C96.5003 10.2888 96.3052 10.0937 96.073 9.9581C95.8407 9.82247 95.579 9.75084 95.3127 9.75H57.2189L54.5158 4.14375C54.3893 3.87299 54.1914 3.64521 53.9452 3.48697C53.699 3.32873 53.4146 3.24654 53.1252 3.25H46.8752C46.5857 3.24654 46.3013 3.32873 46.0551 3.48697C45.8089 3.64521 45.611 3.87299 45.4845 4.14375L42.7814 9.75H4.68765C4.4213 9.75084 4.15958 9.82247 3.92734 9.9581C3.6951 10.0937 3.50005 10.2888 3.36072 10.5249C3.22139 10.761 3.1424 11.0302 3.13125 11.307C3.1201 11.5837 3.17717 11.8589 3.29703 12.1062L6.42203 18.6062C6.54851 18.877 6.7464 19.1048 6.99262 19.263C7.23883 19.4213 7.52323 19.5035 7.81265 19.5H12.0314L8.4064 33.5887C6.95554 36.3099 6.21278 39.3778 6.2516 42.489C6.29042 45.6003 7.10946 48.6471 8.62774 51.3282C10.146 54.0093 12.3109 56.2317 14.9084 57.7758C17.5058 59.3199 20.4458 60.1321 23.4377 60.1321C26.4295 60.1321 29.3695 59.3199 31.9669 57.7758C34.5644 56.2317 36.7293 54.0093 38.2476 51.3282C39.7658 48.6471 40.5849 45.6003 40.6237 42.489C40.6625 39.3778 39.9198 36.3099 38.4689 33.5887L34.8439 19.5H43.7502V81.25H39.0627C38.6483 81.25 38.2508 81.4212 37.9578 81.7259C37.6648 82.0307 37.5002 82.444 37.5002 82.875V91H12.5002C12.0858 91 11.6883 91.1712 11.3953 91.4759C11.1023 91.7807 10.9377 92.194 10.9377 92.625V99.125C10.9377 99.556 11.1023 99.9693 11.3953 100.274C11.6883 100.579 12.0858 100.75 12.5002 100.75H87.5002C87.9146 100.75 88.312 100.579 88.605 100.274C88.898 99.9693 89.0627 99.556 89.0627 99.125V92.625C89.0627 92.194 88.898 91.7807 88.605 91.4759C88.312 91.1712 87.9146 91 87.5002 91H62.5002V82.875C62.5002 82.444 62.3355 82.0307 62.0425 81.7259C61.7495 81.4212 61.3521 81.25 60.9377 81.25H56.2502V19.5H65.1564L61.5314 33.5887C60.0805 36.3099 59.3378 39.3778 59.3766 42.489C59.4154 45.6003 60.2345 48.6471 61.7527 51.3282C63.271 54.0093 65.4359 56.2317 68.0334 57.7758C70.6308 59.3199 73.5708 60.1321 76.5627 60.1321C79.5545 60.1321 82.4945 59.3199 85.0919 57.7758C87.6894 56.2317 89.8543 54.0093 91.3726 51.3282C92.8908 48.6471 93.7099 45.6003 93.7487 42.489C93.7875 39.3778 93.0448 36.3099 91.5939 33.5887L87.9689 19.5H92.1877C92.4771 19.5035 92.7615 19.4213 93.0077 19.263C93.2539 19.1048 93.4518 18.877 93.5783 18.6062ZM12.9377 51.9512C11.0076 49.6961 9.79589 46.8749 9.4689 43.875H13.5783C13.6865 46.193 14.0589 48.4895 14.6877 50.7162C14.0794 51.0883 13.4948 51.5009 12.9377 51.9512ZM13.5783 40.625H9.4689C9.79589 37.6251 11.0076 34.8039 12.9377 32.5487C13.4948 32.9991 14.0794 33.4117 14.6877 33.7838C14.0589 36.0105 13.6865 38.307 13.5783 40.625ZM15.3127 54.1613C15.4845 54.0475 15.6564 53.9175 15.8283 53.7875C16.0002 54.1612 16.1877 54.535 16.3752 54.8762C16.0158 54.6487 15.6564 54.4213 15.3127 54.1613ZM15.8283 30.7125C15.6564 30.5825 15.4845 30.4525 15.3127 30.3387C15.6564 30.0787 16.0158 29.8512 16.3752 29.6237C16.1877 29.965 16.0002 30.3387 15.8283 30.7125ZM21.8752 56.4037C20.4343 55.4122 19.3087 53.9984 18.6408 52.3412C19.6862 51.9516 20.7716 51.6898 21.8752 51.5612V56.4037ZM21.8752 48.2787C20.397 48.4304 18.9429 48.7744 17.547 49.3025C17.0781 47.5303 16.7952 45.7106 16.7033 43.875H21.8752V48.2787ZM21.8752 40.625H16.7033C16.7952 38.7894 17.0781 36.9696 17.547 35.1975C18.9429 35.7256 20.397 36.0696 21.8752 36.2213V40.625ZM21.8752 32.9387C20.7716 32.8102 19.6862 32.5484 18.6408 32.1588C19.3087 30.5016 20.4343 29.0878 21.8752 28.0963V32.9387ZM13.0783 28.015L15.2658 19.5H31.6095L33.797 28.015C30.8207 25.6539 27.181 24.3751 23.4377 24.3751C19.6943 24.3751 16.0546 25.6539 13.0783 28.015ZM28.2345 32.1588C27.1892 32.5484 26.1037 32.8102 25.0002 32.9387V28.0963C26.441 29.0878 27.5666 30.5016 28.2345 32.1588ZM25.0002 56.4037V51.5612C26.1037 51.6898 27.1892 51.9516 28.2345 52.3412C27.5666 53.9984 26.441 55.4122 25.0002 56.4037ZM29.3283 49.3025C27.9324 48.7744 26.4783 48.4304 25.0002 48.2787V43.875H30.172C30.0801 45.7106 29.7972 47.5303 29.3283 49.3025ZM25.0002 40.625V36.2213C26.4783 36.0696 27.9324 35.7256 29.3283 35.1975C29.7972 36.9696 30.0801 38.7894 30.172 40.625H25.0002ZM30.5002 54.8762C30.6877 54.535 30.8752 54.1612 31.047 53.7875C31.2189 53.9175 31.3908 54.0475 31.5627 54.1613C31.2189 54.4213 30.8595 54.6487 30.5002 54.8762ZM31.047 30.7125C30.8752 30.3387 30.6877 29.965 30.5002 29.6237C30.8595 29.8512 31.2189 30.0787 31.5627 30.3387C31.3908 30.4525 31.2189 30.5825 31.047 30.7125ZM33.9377 51.9512C33.3805 51.5009 32.7959 51.0883 32.1877 50.7162C32.8164 48.4895 33.1888 46.193 33.297 43.875H37.4064C37.0794 46.8749 35.8677 49.6961 33.9377 51.9512ZM37.4064 40.625H33.297C33.1888 38.307 32.8164 36.0105 32.1877 33.7838C32.7959 33.4117 33.3805 32.9991 33.9377 32.5487C35.8677 34.8039 37.0794 37.6251 37.4064 40.625ZM85.9377 94.25V97.5H14.0627V94.25H85.9377ZM59.3752 84.5V91H40.6252V84.5H59.3752ZM90.6252 42.25C90.6252 45.1426 89.8004 47.9701 88.2552 50.3752C86.71 52.7803 84.5137 54.6548 81.9441 55.7617C79.3746 56.8687 76.5471 57.1583 73.8192 56.594C71.0913 56.0297 68.5856 54.6368 66.619 52.5914C64.6523 50.5461 63.313 47.9402 62.7704 45.1032C62.2278 42.2662 62.5062 39.3256 63.5706 36.6533C64.635 33.9809 66.4374 31.6968 68.7499 30.0898C71.0625 28.4827 73.7814 27.625 76.5627 27.625C80.2905 27.631 83.864 29.1738 86.5 31.9152C89.1359 34.6566 90.6194 38.3731 90.6252 42.25ZM66.2033 28.015L68.3908 19.5H84.7345L86.922 28.015C83.9457 25.6539 80.306 24.3751 76.5627 24.3751C72.8193 24.3751 69.1796 25.6539 66.2033 28.015ZM54.6877 16.25C54.2733 16.25 53.8758 16.4212 53.5828 16.726C53.2898 17.0307 53.1252 17.444 53.1252 17.875V81.25H46.8752V17.875C46.8752 17.444 46.7105 17.0307 46.4175 16.726C46.1245 16.4212 45.7271 16.25 45.3127 16.25H8.7814L7.2189 13H43.7502C44.0396 13.0035 44.324 12.9213 44.5702 12.763C44.8164 12.6048 45.0143 12.377 45.1408 12.1062L47.8439 6.5H52.1564L54.8595 12.1062C54.986 12.377 55.1839 12.6048 55.4301 12.763C55.6763 12.9213 55.9607 13.0035 56.2502 13H92.7814L91.2189 16.25H54.6877Z" fill="black"/>
<path d="M78.2168 49.9884C78.0874 49.9876 77.9594 49.9603 77.8409 49.9081C77.7224 49.8559 77.6159 49.7799 77.528 49.6848L72.2738 44.0334C72.0984 43.8563 72 43.6171 72 43.3678C72 43.1186 72.0984 42.8794 72.2738 42.7023C72.4447 42.5426 72.6704 42.4548 72.9043 42.4571H75.508C75.9467 42.4493 76.3743 42.3182 76.7419 42.0786C77.1095 41.8391 77.4021 41.5008 77.5863 41.1026H73.8384C73.6071 41.0768 73.3936 40.9666 73.2384 40.7932C73.0833 40.6198 72.9975 40.3953 72.9975 40.1627C72.9975 39.93 73.0833 39.7055 73.2384 39.5321C73.3936 39.3587 73.6071 39.2485 73.8384 39.2227H77.6447C77.4588 38.8267 77.1655 38.4908 76.798 38.2534C76.4306 38.016 76.0038 37.8866 75.5664 37.8799H72.9627C72.7315 37.8541 72.5179 37.744 72.3627 37.5705C72.2076 37.3971 72.1219 37.1726 72.1219 36.94C72.1219 36.7073 72.2076 36.4828 72.3627 36.3094C72.5179 36.136 72.7315 36.0258 72.9627 36H81.1358C81.367 36.0258 81.5806 36.136 81.7358 36.3094C81.8909 36.4828 81.9766 36.7073 81.9766 36.94C81.9766 37.1726 81.8909 37.3971 81.7358 37.5705C81.5806 37.744 81.367 37.8541 81.1358 37.8799H79.0458C79.3167 38.2889 79.5106 38.744 79.618 39.2227H81.1592C81.3904 39.2485 81.604 39.3587 81.7591 39.5321C81.9142 39.7055 82 39.93 82 40.1627C82 40.3953 81.9142 40.6198 81.7591 40.7932C81.604 40.9666 81.3904 41.0768 81.1592 41.1026H79.6296C79.4163 42.021 78.8988 42.8402 78.1612 43.4274C77.4236 44.0145 76.5092 44.3351 75.5664 44.337H75.1227L78.9641 48.4704C79.1388 48.6455 79.2369 48.8828 79.2369 49.1302C79.2369 49.3775 79.1388 49.6148 78.9641 49.7899C78.8602 49.8731 78.7401 49.9337 78.6114 49.9679C78.4827 50.0021 78.3484 50.0091 78.2168 49.9884Z" fill="black"/>
</svg>
